<?xml version="1.0" encoding="utf-8"?>
<!-- Generator: Adobe Illustrator 22.1.0, SVG Export Plug-In . SVG Version: 6.00 Build 0)  -->
<svg version="1.1" xmlns="http://www.w3.org/2000/svg" xmlns:xlink="http://www.w3.org/1999/xlink" x="0px" y="0px"
	 viewBox="0 0 364 210" style="enable-background:new 0 0 364 210;" xml:space="preserve">
<style type="text/css">
	.st0{clip-path:url(#SVGID_2_);fill:#FFFFFF;}
	.st1{clip-path:url(#SVGID_2_);}
	.st2{opacity:5.000000e-02;fill:#3C6EF3;}
	.st3{opacity:5.000000e-02;}
	.st4{fill:#3C6EF3;}
	.st5{fill:url(#SVGID_3_);}
	.st6{fill:#2E2E82;}
	.st7{fill:#69DFFF;}
	.st8{fill:none;stroke:#69DFFF;stroke-width:2.8518;stroke-linecap:round;stroke-miterlimit:10;}
	.st9{fill:url(#SVGID_4_);}
	.st10{fill:url(#SVGID_5_);}
	.st11{clip-path:url(#SVGID_7_);fill:none;stroke:#2D2E82;stroke-width:0.3406;stroke-miterlimit:10;}
	.st12{clip-path:url(#SVGID_9_);}
	.st13{fill:#2D2E82;}
	.st14{fill:url(#SVGID_10_);}
	.st15{clip-path:url(#SVGID_12_);fill:none;stroke:#2D2E82;stroke-width:0.3406;stroke-miterlimit:10;}
	.st16{fill:url(#SVGID_13_);stroke:url(#SVGID_14_);stroke-width:0.6812;stroke-miterlimit:10;}
	.st17{fill:url(#SVGID_15_);stroke:url(#SVGID_16_);stroke-width:0.6812;stroke-miterlimit:10;}
	.st18{fill:url(#SVGID_17_);stroke:url(#SVGID_18_);stroke-width:0.6812;stroke-miterlimit:10;}
	.st19{fill:url(#SVGID_19_);stroke:url(#SVGID_20_);stroke-width:0.6812;stroke-miterlimit:10;}
	.st20{fill:#FFFFFF;}
	.st21{fill:#66F29E;}
	.st22{fill:#9DFFB0;}
	.st23{fill:#E5007D;}
	.st24{fill:#FA5D7A;}
	.st25{fill:#6941E8;}
	.st26{opacity:0.2;fill:url(#SVGID_21_);enable-background:new    ;}
	.st27{opacity:0.2;fill:url(#SVGID_22_);enable-background:new    ;}
	.st28{clip-path:url(#SVGID_24_);}
	.st29{fill:#BED4F4;}
	.st30{fill:none;stroke:#2D2E82;stroke-width:2;stroke-linecap:round;stroke-miterlimit:10;}
	.st31{fill:#3438C2;}
	.st32{fill:url(#SVGID_25_);}
	.st33{clip-path:url(#SVGID_27_);fill:none;stroke:#E5007D;stroke-width:1.6778;stroke-miterlimit:10;}
	.st34{clip-path:url(#SVGID_29_);}
	.st35{fill:url(#SVGID_30_);}
	.st36{fill:url(#SVGID_31_);}
	.st37{clip-path:url(#SVGID_33_);fill:none;stroke:#E5007D;stroke-width:1.6778;stroke-miterlimit:10;}
	.st38{fill:url(#SVGID_34_);stroke:url(#SVGID_35_);stroke-width:3.3556;stroke-miterlimit:10;}
	.st39{fill:url(#SVGID_36_);stroke:url(#SVGID_37_);stroke-width:3.3556;stroke-miterlimit:10;}
	.st40{fill:url(#SVGID_38_);stroke:url(#SVGID_39_);stroke-width:3.3556;stroke-miterlimit:10;}
	.st41{fill:url(#SVGID_40_);stroke:url(#SVGID_41_);stroke-width:3.3556;stroke-miterlimit:10;}
	.st42{clip-path:url(#SVGID_43_);}
	.st43{fill:url(#SVGID_44_);}
	.st44{fill:url(#SVGID_45_);}
	.st45{clip-path:url(#SVGID_47_);fill:none;stroke:#2D2E82;stroke-width:0.2125;stroke-miterlimit:10;}
	.st46{clip-path:url(#SVGID_49_);}
	.st47{fill:url(#SVGID_50_);}
	.st48{clip-path:url(#SVGID_52_);fill:none;stroke:#2D2E82;stroke-width:0.2125;stroke-miterlimit:10;}
	.st49{fill:url(#SVGID_53_);stroke:url(#SVGID_54_);stroke-width:0.425;stroke-miterlimit:10;}
	.st50{fill:url(#SVGID_55_);stroke:url(#SVGID_56_);stroke-width:0.425;stroke-miterlimit:10;}
	.st51{fill:url(#SVGID_57_);stroke:url(#SVGID_58_);stroke-width:0.425;stroke-miterlimit:10;}
	.st52{fill:url(#SVGID_59_);stroke:url(#SVGID_60_);stroke-width:0.425;stroke-miterlimit:10;}
	.st53{fill:url(#SVGID_61_);}
	.st54{clip-path:url(#SVGID_63_);fill:none;stroke:#2D2E82;stroke-width:0.2449;stroke-miterlimit:10;}
	.st55{clip-path:url(#SVGID_65_);}
	.st56{fill:url(#SVGID_66_);}
	.st57{clip-path:url(#SVGID_68_);fill:none;stroke:#2D2E82;stroke-width:0.2449;stroke-miterlimit:10;}
	.st58{fill:url(#SVGID_69_);stroke:url(#SVGID_70_);stroke-width:0.4898;stroke-miterlimit:10;}
	.st59{fill:url(#SVGID_71_);stroke:url(#SVGID_72_);stroke-width:0.4898;stroke-miterlimit:10;}
	.st60{fill:url(#SVGID_73_);stroke:url(#SVGID_74_);stroke-width:0.4898;stroke-miterlimit:10;}
	.st61{fill:url(#SVGID_75_);stroke:url(#SVGID_76_);stroke-width:0.4898;stroke-miterlimit:10;}
	.st62{fill:url(#SVGID_77_);}
	.st63{fill:url(#SVGID_78_);}
	.st64{fill:url(#SVGID_79_);}
	.st65{fill:url(#SVGID_80_);}
	.st66{fill:url(#SVGID_81_);}
	.st67{fill:url(#SVGID_82_);}
	.st68{fill:url(#SVGID_83_);}
	.st69{fill:url(#SVGID_84_);}
	.st70{fill:url(#SVGID_85_);}
	.st71{fill:url(#SVGID_86_);}
	.st72{fill:url(#SVGID_87_);stroke:url(#SVGID_88_);stroke-width:1.1339;stroke-miterlimit:10;}
	.st73{fill:url(#SVGID_89_);stroke:url(#SVGID_90_);stroke-width:1.1339;stroke-miterlimit:10;}
	.st74{fill:url(#SVGID_91_);stroke:url(#SVGID_92_);stroke-width:1.1339;stroke-miterlimit:10;}
	.st75{fill:url(#SVGID_93_);stroke:url(#SVGID_94_);stroke-width:1.1339;stroke-miterlimit:10;}
	.st76{fill:url(#SVGID_95_);}
	.st77{fill:url(#SVGID_96_);}
	.st78{fill:url(#SVGID_97_);}
	.st79{fill:url(#SVGID_98_);}
	.st80{fill:url(#SVGID_99_);}
	.st81{fill:url(#SVGID_100_);}
	.st82{fill:url(#SVGID_101_);}
	.st83{fill:url(#SVGID_102_);}
	.st84{fill:url(#SVGID_103_);}
	.st85{fill:url(#SVGID_104_);}
	.st86{fill:url(#SVGID_105_);stroke:url(#SVGID_106_);stroke-width:1.254;stroke-miterlimit:10;}
	.st87{fill:url(#SVGID_107_);stroke:url(#SVGID_108_);stroke-width:1.254;stroke-miterlimit:10;}
	.st88{fill:url(#SVGID_109_);stroke:url(#SVGID_110_);stroke-width:1.254;stroke-miterlimit:10;}
	.st89{fill:url(#SVGID_111_);stroke:url(#SVGID_112_);stroke-width:1.254;stroke-miterlimit:10;}
	.st90{fill:url(#SVGID_115_);}
	.st91{fill:url(#SVGID_116_);}
	.st92{fill:url(#SVGID_117_);}
	.st93{fill:url(#SVGID_118_);}
	.st94{fill:url(#SVGID_119_);}
	.st95{fill:url(#SVGID_120_);}
	.st96{fill:url(#SVGID_121_);}
	.st97{fill:url(#SVGID_122_);}
	.st98{fill:url(#SVGID_123_);}
	.st99{fill:url(#SVGID_124_);}
	.st100{fill:url(#SVGID_125_);}
	.st101{fill:url(#SVGID_126_);}
	.st102{fill:url(#SVGID_127_);}
	.st103{fill:url(#SVGID_128_);}
	.st104{fill:url(#SVGID_129_);}
	.st105{fill:url(#SVGID_130_);stroke:url(#SVGID_131_);stroke-width:1.7703;stroke-miterlimit:10;}
	.st106{fill:url(#SVGID_132_);stroke:url(#SVGID_133_);stroke-width:1.7703;stroke-miterlimit:10;}
	.st107{fill:url(#SVGID_134_);stroke:url(#SVGID_135_);stroke-width:1.7703;stroke-miterlimit:10;}
	.st108{fill:url(#SVGID_136_);stroke:url(#SVGID_137_);stroke-width:1.7703;stroke-miterlimit:10;}
	.st109{clip-path:url(#SVGID_139_);fill:#2D2E82;}
	.st110{fill:url(#SVGID_140_);}
	.st111{fill:url(#SVGID_141_);}
	.st112{fill:url(#SVGID_142_);}
	.st113{opacity:0.6;fill:url(#SVGID_143_);}
	.st114{opacity:0.6;fill:url(#SVGID_144_);}
	.st115{fill:url(#SVGID_145_);}
	.st116{clip-path:url(#SVGID_147_);fill:none;stroke:#2D2E82;stroke-width:0.3563;stroke-miterlimit:10;}
	.st117{clip-path:url(#SVGID_149_);}
	.st118{fill:url(#SVGID_150_);}
	.st119{clip-path:url(#SVGID_152_);fill:none;stroke:#2D2E82;stroke-width:0.3563;stroke-miterlimit:10;}
	.st120{fill:url(#SVGID_153_);stroke:url(#SVGID_154_);stroke-width:0.7126;stroke-miterlimit:10;}
	.st121{fill:url(#SVGID_155_);stroke:url(#SVGID_156_);stroke-width:0.7126;stroke-miterlimit:10;}
	.st122{fill:url(#SVGID_157_);stroke:url(#SVGID_158_);stroke-width:0.7126;stroke-miterlimit:10;}
	.st123{fill:url(#SVGID_159_);stroke:url(#SVGID_160_);stroke-width:0.7126;stroke-miterlimit:10;}
	.st124{opacity:0.2;fill:url(#SVGID_161_);enable-background:new    ;}
	.st125{fill:url(#SVGID_162_);}
	.st126{fill:url(#SVGID_163_);}
	.st127{fill:url(#SVGID_164_);}
	.st128{opacity:0.6;fill:url(#SVGID_165_);}
	.st129{opacity:0.6;fill:url(#SVGID_166_);}
	.st130{opacity:0.2;fill:url(#SVGID_167_);enable-background:new    ;}
	.st131{fill:url(#SVGID_168_);}
	.st132{clip-path:url(#SVGID_170_);fill:url(#SVGID_171_);}
	.st133{clip-path:url(#SVGID_170_);fill:url(#SVGID_172_);}
	.st134{opacity:0.2;fill:url(#SVGID_173_);enable-background:new    ;}
	.st135{fill:url(#SVGID_174_);}
	.st136{clip-path:url(#SVGID_176_);fill:url(#SVGID_177_);}
	.st137{clip-path:url(#SVGID_176_);fill:url(#SVGID_178_);}
	.st138{fill:url(#SVGID_179_);}
	.st139{clip-path:url(#SVGID_181_);fill:none;stroke:#66F29E;stroke-width:0.4077;stroke-miterlimit:10;}
	.st140{clip-path:url(#SVGID_183_);}
	.st141{fill:url(#SVGID_184_);}
	.st142{clip-path:url(#SVGID_186_);fill:none;stroke:#66F29E;stroke-width:0.4077;stroke-miterlimit:10;}
	.st143{fill:url(#SVGID_187_);stroke:url(#SVGID_188_);stroke-width:0.8154;stroke-miterlimit:10;}
	.st144{fill:url(#SVGID_189_);stroke:url(#SVGID_190_);stroke-width:0.8154;stroke-miterlimit:10;}
	.st145{fill:url(#SVGID_191_);stroke:url(#SVGID_192_);stroke-width:0.8154;stroke-miterlimit:10;}
	.st146{fill:url(#SVGID_193_);stroke:url(#SVGID_194_);stroke-width:0.8154;stroke-miterlimit:10;}
	.st147{fill:url(#SVGID_195_);}
	.st148{clip-path:url(#SVGID_197_);fill:none;stroke:#E5007D;stroke-width:0.32;stroke-miterlimit:10;}
	.st149{clip-path:url(#SVGID_199_);}
	.st150{fill:url(#SVGID_200_);}
	.st151{fill:url(#SVGID_201_);}
	.st152{clip-path:url(#SVGID_203_);fill:none;stroke:#E5007D;stroke-width:0.32;stroke-miterlimit:10;}
	.st153{fill:url(#SVGID_204_);stroke:url(#SVGID_205_);stroke-width:0.64;stroke-miterlimit:10;}
	.st154{fill:url(#SVGID_206_);stroke:url(#SVGID_207_);stroke-width:0.64;stroke-miterlimit:10;}
	.st155{fill:url(#SVGID_208_);stroke:url(#SVGID_209_);stroke-width:0.64;stroke-miterlimit:10;}
	.st156{fill:url(#SVGID_210_);stroke:url(#SVGID_211_);stroke-width:0.64;stroke-miterlimit:10;}
	.st157{fill:url(#SVGID_212_);}
	.st158{clip-path:url(#SVGID_214_);fill:none;stroke:#E5007D;stroke-width:0.255;stroke-miterlimit:10;}
	.st159{clip-path:url(#SVGID_216_);}
	.st160{fill:url(#SVGID_217_);}
	.st161{fill:url(#SVGID_218_);}
	.st162{clip-path:url(#SVGID_220_);fill:none;stroke:#E5007D;stroke-width:0.255;stroke-miterlimit:10;}
	.st163{fill:url(#SVGID_221_);stroke:url(#SVGID_222_);stroke-width:0.51;stroke-miterlimit:10;}
	.st164{fill:url(#SVGID_223_);stroke:url(#SVGID_224_);stroke-width:0.51;stroke-miterlimit:10;}
	.st165{fill:url(#SVGID_225_);stroke:url(#SVGID_226_);stroke-width:0.51;stroke-miterlimit:10;}
	.st166{fill:url(#SVGID_227_);stroke:url(#SVGID_228_);stroke-width:0.51;stroke-miterlimit:10;}
	.st167{fill:url(#SVGID_229_);}
	.st168{clip-path:url(#SVGID_231_);fill:none;stroke:#66F29E;stroke-width:0.116;stroke-miterlimit:10;}
	.st169{clip-path:url(#SVGID_233_);}
	.st170{fill:url(#SVGID_234_);}
	.st171{clip-path:url(#SVGID_236_);fill:none;stroke:#66F29E;stroke-width:0.116;stroke-miterlimit:10;}
	.st172{fill:url(#SVGID_237_);stroke:url(#SVGID_238_);stroke-width:0.2321;stroke-miterlimit:10;}
	.st173{fill:url(#SVGID_239_);stroke:url(#SVGID_240_);stroke-width:0.2321;stroke-miterlimit:10;}
	.st174{fill:url(#SVGID_241_);stroke:url(#SVGID_242_);stroke-width:0.2321;stroke-miterlimit:10;}
	.st175{fill:url(#SVGID_243_);stroke:url(#SVGID_244_);stroke-width:0.2321;stroke-miterlimit:10;}
	.st176{fill:url(#SVGID_245_);}
	.st177{clip-path:url(#SVGID_247_);fill:none;stroke:#66F29E;stroke-width:0.2286;stroke-miterlimit:10;}
	.st178{clip-path:url(#SVGID_249_);}
	.st179{fill:url(#SVGID_250_);}
	.st180{clip-path:url(#SVGID_252_);fill:none;stroke:#66F29E;stroke-width:0.2286;stroke-miterlimit:10;}
	.st181{fill:url(#SVGID_253_);stroke:url(#SVGID_254_);stroke-width:0.4573;stroke-miterlimit:10;}
	.st182{fill:url(#SVGID_255_);stroke:url(#SVGID_256_);stroke-width:0.4573;stroke-miterlimit:10;}
	.st183{fill:url(#SVGID_257_);stroke:url(#SVGID_258_);stroke-width:0.4573;stroke-miterlimit:10;}
	.st184{fill:url(#SVGID_259_);stroke:url(#SVGID_260_);stroke-width:0.4573;stroke-miterlimit:10;}
	.st185{clip-path:url(#SVGID_262_);fill:#FFFFFF;}
	.st186{clip-path:url(#SVGID_262_);}
	.st187{fill:url(#SVGID_263_);stroke:url(#SVGID_264_);stroke-miterlimit:10;}
	.st188{opacity:0.2;fill:url(#SVGID_265_);enable-background:new    ;}
	.st189{opacity:0.2;fill:url(#SVGID_266_);enable-background:new    ;}
	.st190{opacity:0.2;fill:url(#SVGID_267_);enable-background:new    ;}
	.st191{fill:url(#SVGID_268_);}
	.st192{clip-path:url(#SVGID_270_);fill:url(#SVGID_271_);}
	.st193{clip-path:url(#SVGID_270_);fill:url(#SVGID_272_);}
	.st194{fill:url(#SVGID_273_);}
	.st195{clip-path:url(#SVGID_275_);fill:none;stroke:#2D2E82;stroke-width:0.1346;stroke-miterlimit:10;}
	.st196{clip-path:url(#SVGID_277_);}
	.st197{fill:url(#SVGID_278_);}
	.st198{clip-path:url(#SVGID_280_);fill:none;stroke:#2D2E82;stroke-width:0.1346;stroke-miterlimit:10;}
	.st199{fill:url(#SVGID_281_);stroke:url(#SVGID_282_);stroke-width:0.2691;stroke-miterlimit:10;}
	.st200{fill:url(#SVGID_283_);stroke:url(#SVGID_284_);stroke-width:0.2691;stroke-miterlimit:10;}
	.st201{fill:url(#SVGID_285_);stroke:url(#SVGID_286_);stroke-width:0.2691;stroke-miterlimit:10;}
	.st202{fill:url(#SVGID_287_);stroke:url(#SVGID_288_);stroke-width:0.2691;stroke-miterlimit:10;}
	.st203{fill:url(#SVGID_289_);stroke:url(#SVGID_290_);stroke-width:0.3233;stroke-miterlimit:10;}
	.st204{fill:url(#SVGID_291_);stroke:url(#SVGID_292_);stroke-width:0.3233;stroke-miterlimit:10;}
	.st205{fill:url(#SVGID_293_);stroke:url(#SVGID_294_);stroke-width:0.3233;stroke-miterlimit:10;}
	.st206{fill:url(#SVGID_295_);stroke:url(#SVGID_296_);stroke-width:0.3233;stroke-miterlimit:10;}
	.st207{fill:url(#SVGID_297_);}
	.st208{fill:url(#SVGID_298_);}
	.st209{fill:url(#SVGID_299_);}
	.st210{fill:url(#SVGID_300_);}
	.st211{fill:url(#SVGID_301_);}
	.st212{opacity:0.2;fill:url(#SVGID_302_);enable-background:new    ;}
	.st213{fill:url(#SVGID_303_);}
	.st214{fill:url(#SVGID_304_);}
	.st215{fill:url(#SVGID_305_);}
	.st216{fill:#9CC1E5;}
	.st217{fill:url(#SVGID_306_);}
	.st218{clip-path:url(#SVGID_308_);fill:none;stroke:#E5007D;stroke-width:0.2538;stroke-miterlimit:10;}
	.st219{clip-path:url(#SVGID_310_);}
	.st220{fill:url(#SVGID_311_);}
	.st221{fill:url(#SVGID_312_);}
	.st222{clip-path:url(#SVGID_314_);fill:none;stroke:#E5007D;stroke-width:0.2538;stroke-miterlimit:10;}
	.st223{fill:url(#SVGID_315_);stroke:url(#SVGID_316_);stroke-width:0.5076;stroke-miterlimit:10;}
	.st224{fill:url(#SVGID_317_);stroke:url(#SVGID_318_);stroke-width:0.5076;stroke-miterlimit:10;}
	.st225{fill:url(#SVGID_319_);stroke:url(#SVGID_320_);stroke-width:0.5076;stroke-miterlimit:10;}
	.st226{fill:url(#SVGID_321_);stroke:url(#SVGID_322_);stroke-width:0.5076;stroke-miterlimit:10;}
	.st227{clip-path:url(#SVGID_324_);fill:#FFFFFF;}
	.st228{clip-path:url(#SVGID_324_);}
	.st229{fill:url(#SVGID_325_);}
	.st230{fill:url(#SVGID_326_);}
	.st231{fill:url(#SVGID_327_);}
	.st232{fill:url(#SVGID_328_);}
	.st233{fill:url(#SVGID_329_);}
	.st234{fill:url(#SVGID_330_);}
	.st235{fill:url(#SVGID_331_);}
	.st236{clip-path:url(#SVGID_333_);fill:none;stroke:#2D2E82;stroke-width:0.8939;stroke-miterlimit:10;}
	.st237{clip-path:url(#SVGID_335_);}
	.st238{fill:url(#SVGID_336_);}
	.st239{clip-path:url(#SVGID_338_);fill:none;stroke:#E5007D;stroke-width:0.8939;stroke-miterlimit:10;}
	.st240{fill:url(#SVGID_339_);stroke:url(#SVGID_340_);stroke-width:1.7878;stroke-miterlimit:10;}
	.st241{fill:url(#SVGID_341_);stroke:url(#SVGID_342_);stroke-width:1.7878;stroke-miterlimit:10;}
	.st242{fill:url(#SVGID_343_);stroke:url(#SVGID_344_);stroke-width:1.7878;stroke-miterlimit:10;}
	.st243{fill:url(#SVGID_345_);stroke:url(#SVGID_346_);stroke-width:1.7878;stroke-miterlimit:10;}
	.st244{fill:url(#SVGID_347_);}
	.st245{clip-path:url(#SVGID_349_);fill:none;stroke:#E5007D;stroke-width:0.1538;stroke-miterlimit:10;}
	.st246{clip-path:url(#SVGID_351_);}
	.st247{fill:url(#SVGID_352_);}
	.st248{clip-path:url(#SVGID_354_);fill:none;stroke:#E5007D;stroke-width:0.1538;stroke-miterlimit:10;}
	.st249{fill:url(#SVGID_355_);stroke:url(#SVGID_356_);stroke-width:0.3076;stroke-miterlimit:10;}
	.st250{fill:url(#SVGID_357_);stroke:url(#SVGID_358_);stroke-width:0.3076;stroke-miterlimit:10;}
	.st251{fill:url(#SVGID_359_);stroke:url(#SVGID_360_);stroke-width:0.3076;stroke-miterlimit:10;}
	.st252{fill:url(#SVGID_361_);stroke:url(#SVGID_362_);stroke-width:0.3076;stroke-miterlimit:10;}
	.st253{fill:url(#SVGID_363_);}
	.st254{clip-path:url(#SVGID_365_);fill:none;stroke:#66F29E;stroke-width:0.3988;stroke-miterlimit:10;}
	.st255{clip-path:url(#SVGID_367_);}
	.st256{fill:url(#SVGID_368_);}
	.st257{clip-path:url(#SVGID_370_);fill:none;stroke:#66F29E;stroke-width:0.3988;stroke-miterlimit:10;}
	.st258{fill:url(#SVGID_371_);stroke:url(#SVGID_372_);stroke-width:0.7975;stroke-miterlimit:10;}
	.st259{fill:url(#SVGID_373_);stroke:url(#SVGID_374_);stroke-width:0.7975;stroke-miterlimit:10;}
	.st260{fill:url(#SVGID_375_);stroke:url(#SVGID_376_);stroke-width:0.7975;stroke-miterlimit:10;}
	.st261{fill:url(#SVGID_377_);stroke:url(#SVGID_378_);stroke-width:0.7975;stroke-miterlimit:10;}
	.st262{fill:url(#SVGID_379_);}
	.st263{clip-path:url(#SVGID_381_);fill:none;stroke:#66F29E;stroke-width:0.1947;stroke-miterlimit:10;}
	.st264{clip-path:url(#SVGID_383_);}
	.st265{fill:url(#SVGID_384_);}
	.st266{clip-path:url(#SVGID_386_);fill:none;stroke:#66F29E;stroke-width:0.1947;stroke-miterlimit:10;}
	.st267{fill:url(#SVGID_387_);stroke:url(#SVGID_388_);stroke-width:0.3894;stroke-miterlimit:10;}
	.st268{fill:url(#SVGID_389_);stroke:url(#SVGID_390_);stroke-width:0.3894;stroke-miterlimit:10;}
	.st269{fill:url(#SVGID_391_);stroke:url(#SVGID_392_);stroke-width:0.3894;stroke-miterlimit:10;}
	.st270{fill:url(#SVGID_393_);stroke:url(#SVGID_394_);stroke-width:0.3894;stroke-miterlimit:10;}
	.st271{fill:url(#SVGID_395_);}
	.st272{clip-path:url(#SVGID_397_);fill:none;stroke:#E5007D;stroke-width:0.216;stroke-miterlimit:10;}
	.st273{clip-path:url(#SVGID_399_);}
	.st274{fill:url(#SVGID_400_);}
	.st275{clip-path:url(#SVGID_402_);fill:none;stroke:#E5007D;stroke-width:0.216;stroke-miterlimit:10;}
	.st276{fill:url(#SVGID_403_);stroke:url(#SVGID_404_);stroke-width:0.432;stroke-miterlimit:10;}
	.st277{fill:url(#SVGID_405_);stroke:url(#SVGID_406_);stroke-width:0.432;stroke-miterlimit:10;}
	.st278{fill:url(#SVGID_407_);stroke:url(#SVGID_408_);stroke-width:0.432;stroke-miterlimit:10;}
	.st279{fill:url(#SVGID_409_);stroke:url(#SVGID_410_);stroke-width:0.432;stroke-miterlimit:10;}
	.st280{opacity:0.2;fill:url(#SVGID_411_);enable-background:new    ;}
	.st281{fill:url(#SVGID_412_);}
	.st282{clip-path:url(#SVGID_414_);fill:url(#SVGID_415_);}
	.st283{clip-path:url(#SVGID_414_);fill:url(#SVGID_416_);}
	.st284{opacity:0.2;fill:url(#SVGID_417_);enable-background:new    ;}
	.st285{fill:url(#SVGID_418_);}
	.st286{clip-path:url(#SVGID_420_);fill:url(#SVGID_421_);}
	.st287{clip-path:url(#SVGID_420_);fill:url(#SVGID_422_);}
	.st288{fill:url(#SVGID_423_);}
	.st289{clip-path:url(#SVGID_425_);fill:none;stroke:#E5007D;stroke-width:0.8388;stroke-miterlimit:10;}
	.st290{clip-path:url(#SVGID_427_);}
	.st291{fill:url(#SVGID_428_);}
	.st292{clip-path:url(#SVGID_430_);fill:none;stroke:#E5007D;stroke-width:0.8388;stroke-miterlimit:10;}
	.st293{fill:url(#SVGID_431_);stroke:url(#SVGID_432_);stroke-width:1.6777;stroke-miterlimit:10;}
	.st294{fill:url(#SVGID_433_);stroke:url(#SVGID_434_);stroke-width:1.6777;stroke-miterlimit:10;}
	.st295{fill:url(#SVGID_435_);stroke:url(#SVGID_436_);stroke-width:1.6777;stroke-miterlimit:10;}
	.st296{fill:url(#SVGID_437_);stroke:url(#SVGID_438_);stroke-width:1.6777;stroke-miterlimit:10;}
	.st297{opacity:0.2;fill:url(#SVGID_439_);enable-background:new    ;}
	.st298{fill:url(#SVGID_440_);stroke:url(#SVGID_441_);stroke-width:0.551;stroke-miterlimit:10;}
	.st299{fill:url(#SVGID_442_);stroke:url(#SVGID_443_);stroke-width:0.551;stroke-miterlimit:10;}
	.st300{fill:url(#SVGID_444_);stroke:url(#SVGID_445_);stroke-width:0.551;stroke-miterlimit:10;}
	.st301{fill:url(#SVGID_446_);stroke:url(#SVGID_447_);stroke-width:0.551;stroke-miterlimit:10;}
	.st302{fill:url(#SVGID_448_);}
	.st303{fill:url(#SVGID_449_);}
	.st304{fill:url(#SVGID_450_);}
	.st305{fill:url(#SVGID_451_);}
	.st306{fill:url(#SVGID_452_);}
	.st307{fill:url(#SVGID_453_);}
	.st308{clip-path:url(#SVGID_455_);fill:none;stroke:#2D2E82;stroke-width:0.2108;stroke-miterlimit:10;}
	.st309{clip-path:url(#SVGID_457_);}
	.st310{fill:url(#SVGID_458_);}
	.st311{clip-path:url(#SVGID_460_);fill:none;stroke:#2D2E82;stroke-width:0.2108;stroke-miterlimit:10;}
	.st312{fill:url(#SVGID_461_);stroke:url(#SVGID_462_);stroke-width:0.4216;stroke-miterlimit:10;}
	.st313{fill:url(#SVGID_463_);stroke:url(#SVGID_464_);stroke-width:0.4216;stroke-miterlimit:10;}
	.st314{fill:url(#SVGID_465_);stroke:url(#SVGID_466_);stroke-width:0.4216;stroke-miterlimit:10;}
	.st315{fill:url(#SVGID_467_);stroke:url(#SVGID_468_);stroke-width:0.4216;stroke-miterlimit:10;}
	.st316{opacity:0.3;enable-background:new    ;}
	.st317{opacity:0.2;fill:url(#SVGID_469_);enable-background:new    ;}
	.st318{opacity:0.2;fill:url(#SVGID_470_);enable-background:new    ;}
	.st319{opacity:0.2;fill:url(#SVGID_471_);enable-background:new    ;}
	.st320{fill:#DCE7F9;}
	.st321{opacity:0.2;fill:url(#SVGID_472_);enable-background:new    ;}
	.st322{opacity:0.7;fill:#B3CBF4;}
	.st323{fill:url(#SVGID_473_);}
	.st324{fill:url(#SVGID_474_);}
	.st325{fill:url(#SVGID_475_);}
	.st326{fill:url(#SVGID_476_);}
	.st327{fill:url(#SVGID_477_);}
	.st328{fill:url(#SVGID_478_);stroke:url(#SVGID_479_);stroke-width:0.7765;stroke-miterlimit:10;}
	.st329{fill:url(#SVGID_480_);stroke:url(#SVGID_481_);stroke-width:0.7765;stroke-miterlimit:10;}
	.st330{fill:url(#SVGID_482_);stroke:url(#SVGID_483_);stroke-width:0.7765;stroke-miterlimit:10;}
	.st331{fill:url(#SVGID_484_);stroke:url(#SVGID_485_);stroke-width:0.7765;stroke-miterlimit:10;}
	.st332{fill:url(#SVGID_486_);}
	.st333{clip-path:url(#SVGID_488_);fill:none;stroke:#2D2E82;stroke-width:0.19;stroke-miterlimit:10;}
	.st334{clip-path:url(#SVGID_490_);}
	.st335{fill:url(#SVGID_491_);}
	.st336{clip-path:url(#SVGID_493_);fill:none;stroke:#2D2E82;stroke-width:0.19;stroke-miterlimit:10;}
	.st337{fill:url(#SVGID_494_);stroke:url(#SVGID_495_);stroke-width:0.3801;stroke-miterlimit:10;}
	.st338{fill:url(#SVGID_496_);stroke:url(#SVGID_497_);stroke-width:0.3801;stroke-miterlimit:10;}
	.st339{fill:url(#SVGID_498_);stroke:url(#SVGID_499_);stroke-width:0.3801;stroke-miterlimit:10;}
	.st340{fill:url(#SVGID_500_);stroke:url(#SVGID_501_);stroke-width:0.3801;stroke-miterlimit:10;}
	.st341{fill:url(#SVGID_502_);}
	.st342{clip-path:url(#SVGID_504_);fill:none;stroke:#E5007D;stroke-width:9.352224e-02;stroke-miterlimit:10;}
	.st343{clip-path:url(#SVGID_506_);}
	.st344{fill:url(#SVGID_507_);}
	.st345{fill:url(#SVGID_508_);}
	.st346{clip-path:url(#SVGID_510_);fill:none;stroke:#E5007D;stroke-width:9.352224e-02;stroke-miterlimit:10;}
	.st347{fill:url(#SVGID_511_);stroke:url(#SVGID_512_);stroke-width:0.187;stroke-miterlimit:10;}
	.st348{fill:url(#SVGID_513_);stroke:url(#SVGID_514_);stroke-width:0.187;stroke-miterlimit:10;}
	.st349{fill:url(#SVGID_515_);stroke:url(#SVGID_516_);stroke-width:0.187;stroke-miterlimit:10;}
	.st350{fill:url(#SVGID_517_);stroke:url(#SVGID_518_);stroke-width:0.187;stroke-miterlimit:10;}
	.st351{opacity:0.4;fill:#B3CBF4;}
	.st352{opacity:0.4;fill:#FFFFFF;}
	.st353{opacity:0.2;fill:url(#SVGID_519_);enable-background:new    ;}
	.st354{fill:#B3CBF4;}
	.st355{fill:none;stroke:#2D2E82;stroke-width:1.6158;stroke-linecap:round;stroke-miterlimit:10;}
	.st356{opacity:0.2;fill:url(#SVGID_520_);enable-background:new    ;}
	.st357{fill:url(#SVGID_521_);stroke:url(#SVGID_522_);stroke-width:0.9775;stroke-miterlimit:10;}
	.st358{opacity:0.2;fill:url(#SVGID_523_);enable-background:new    ;}
	.st359{opacity:0.2;fill:url(#SVGID_524_);enable-background:new    ;}
	.st360{fill:url(#SVGID_525_);}
	.st361{fill:url(#SVGID_526_);}
	.st362{clip-path:url(#SVGID_528_);fill:none;stroke:#2D2E82;stroke-width:0.1151;stroke-miterlimit:10;}
	.st363{clip-path:url(#SVGID_530_);}
	.st364{fill:url(#SVGID_531_);}
	.st365{clip-path:url(#SVGID_533_);fill:none;stroke:#2D2E82;stroke-width:0.1151;stroke-miterlimit:10;}
	.st366{fill:url(#SVGID_534_);stroke:url(#SVGID_535_);stroke-width:0.2302;stroke-miterlimit:10;}
	.st367{fill:url(#SVGID_536_);stroke:url(#SVGID_537_);stroke-width:0.2302;stroke-miterlimit:10;}
	.st368{fill:url(#SVGID_538_);stroke:url(#SVGID_539_);stroke-width:0.2302;stroke-miterlimit:10;}
	.st369{fill:url(#SVGID_540_);stroke:url(#SVGID_541_);stroke-width:0.2302;stroke-miterlimit:10;}
	.st370{opacity:0.2;fill:url(#SVGID_542_);enable-background:new    ;}
	.st371{opacity:0.2;fill:url(#SVGID_543_);enable-background:new    ;}
	.st372{opacity:0.2;fill:url(#SVGID_544_);enable-background:new    ;}
	.st373{fill:url(#SVGID_545_);}
	.st374{clip-path:url(#SVGID_547_);fill:none;stroke:#66F29E;stroke-width:0.116;stroke-miterlimit:10;}
	.st375{clip-path:url(#SVGID_549_);}
	.st376{fill:url(#SVGID_550_);}
	.st377{clip-path:url(#SVGID_552_);fill:none;stroke:#66F29E;stroke-width:0.116;stroke-miterlimit:10;}
	.st378{fill:url(#SVGID_553_);stroke:url(#SVGID_554_);stroke-width:0.2321;stroke-miterlimit:10;}
	.st379{fill:url(#SVGID_555_);stroke:url(#SVGID_556_);stroke-width:0.2321;stroke-miterlimit:10;}
	.st380{fill:url(#SVGID_557_);stroke:url(#SVGID_558_);stroke-width:0.2321;stroke-miterlimit:10;}
	.st381{fill:url(#SVGID_559_);stroke:url(#SVGID_560_);stroke-width:0.2321;stroke-miterlimit:10;}
</style>
<g id="FINAL_V2">
</g>
<g id="_x23_2">
</g>
<g id="_x23_3">
</g>
<g id="_x23_4">
	<g>
		<linearGradient id="SVGID_2_" gradientUnits="userSpaceOnUse" x1="106.5151" y1="184.5751" x2="290.1339" y2="184.5751">
			<stop  offset="0" style="stop-color:#FFFFFF;stop-opacity:0"/>
			<stop  offset="5.015135e-03" style="stop-color:#FCFDFF;stop-opacity:2.507567e-03"/>
			<stop  offset="9.188783e-02" style="stop-color:#CFDCFC;stop-opacity:4.594392e-02"/>
			<stop  offset="0.1838" style="stop-color:#A8BEFA;stop-opacity:9.189910e-02"/>
			<stop  offset="0.2816" style="stop-color:#87A5F8;stop-opacity:0.1408"/>
			<stop  offset="0.3856" style="stop-color:#6B91F6;stop-opacity:0.1928"/>
			<stop  offset="0.4982" style="stop-color:#5682F5;stop-opacity:0.2491"/>
			<stop  offset="0.6235" style="stop-color:#4776F4;stop-opacity:0.3117"/>
			<stop  offset="0.7715" style="stop-color:#3F70F3;stop-opacity:0.3858"/>
			<stop  offset="1" style="stop-color:#3C6EF3;stop-opacity:0.5"/>
		</linearGradient>
		<linearGradient id="SVGID_3_" gradientUnits="userSpaceOnUse" x1="106.5151" y1="184.5751" x2="290.1571" y2="184.5751">
			<stop  offset="0" style="stop-color:#FFFFFF;stop-opacity:0"/>
			<stop  offset="1" style="stop-color:#FFFFFF;stop-opacity:0"/>
		</linearGradient>
		<path style="fill:url(#SVGID_2_);stroke:url(#SVGID_3_);stroke-width:0.9775;stroke-miterlimit:10;" d="M251.5,188.4
			c0,0-35.8-3.3-18.7-4.3c0,0,52.7-2.2,39.8-4.3c-1-0.2-17.4-1.5-18.7-1.7c-11.7-1.6,18.4-4.2,36.2-5.1h-79.8c0,0-9.8,2.4,14.6,2.4
			c0,0,21.5,0.9-27.9,4c0,0-43.6,2.6-21.2,5.4l21,0.7c0,0,15.8,0.4-15.8,4.7c0,0-36,5.9-74.5,5.9h149.1
			C255.6,196.1,278.3,191.4,251.5,188.4z"/>
		<g>
			<g>
				
					<linearGradient id="SVGID_4_" gradientUnits="userSpaceOnUse" x1="-1086.1606" y1="2401.5967" x2="-1068.3152" y2="2401.5967" gradientTransform="matrix(1 0 0 -1 1378.6543 2577)">
					<stop  offset="0" style="stop-color:#001841;stop-opacity:0"/>
					<stop  offset="6.000000e-02" style="stop-color:#001841;stop-opacity:8.000000e-02"/>
					<stop  offset="0.45" style="stop-color:#001841;stop-opacity:0.58"/>
					<stop  offset="0.78" style="stop-color:#001841;stop-opacity:0.89"/>
					<stop  offset="1" style="stop-color:#001841"/>
				</linearGradient>
				<ellipse style="opacity:0.2;fill:url(#SVGID_4_);enable-background:new    ;" cx="301.4" cy="175.4" rx="8.9" ry="0.9"/>
				<path class="st13" d="M304,172.6c0.1,0.3,0.2,0.7,0.3,1c0.1,0.5,0.2,0.9,0.2,1.4c0,0.2-0.1,0.4-0.3,0.4c0,0,0,0,0,0l-4.7,0
					c-0.1-0.1-0.2-0.2-0.1-0.4c0.1-0.2,0.4-0.3,0.6-0.4c0.8-0.2,1.7-0.6,2.2-1.1c0.3-0.3,0.5-0.6,0.6-1L304,172.6z"/>
				<path class="st13" d="M301.2,172.6c0.1,0.3,0.2,0.7,0.3,1c0.1,0.5,0.2,0.9,0.2,1.4c0,0.2-0.1,0.4-0.3,0.4c0,0,0,0,0,0l-4.7,0
					c-0.1-0.1-0.2-0.2-0.1-0.4c0.1-0.2,0.4-0.3,0.6-0.4c0.8-0.2,1.7-0.6,2.2-1.1c0.3-0.3,0.5-0.6,0.6-1L301.2,172.6z"/>
				<path class="st216" d="M306.1,147c-1-0.4-7.5-2.3-8.3-1.7c-0.6,0.4-1.7,1.5-1.3,7.4c0.1,1,0.2,2.4,1.1,8
					c0.5,3.1,0.6,3.7,0.9,5.7c0.4,2.9,0.7,5.5,0.9,7l2.1-0.4c0-2,0-3.4,0.1-4.5c0.2-2.3,0.4-3.5,0.4-5.6c0-1.4-0.1-2.5-0.2-3.2
					c0.1-0.7,0.2-1.8,0.4-3.2c0.6-4,0.8-3.1,1-4.7C305,151.6,306.2,148.4,306.1,147z"/>
				<path class="st29" d="M304.6,145c-1.8-0.8-3.5-0.6-4.3,0c-0.6,0.4-1.4,1.7-1.1,7.7c0.1,1,0.2,2.4,1,8.1c0.5,3.2,0.6,3.7,0.9,5.8
					c0.4,2.9,0.7,5.5,0.9,7l2.1-0.4c0-2-0.1-3.5-0.1-4.6c0.2-2.3,0.4-3.6,0.4-5.6c0-1.4-0.1-2.5-0.2-3.2c0.1-0.7,0.2-1.8,0.4-3.2
					c0.5-4.1,1.8-5.9,1.6-8.1C306.1,146.9,306.2,146.1,304.6,145z"/>
				<path class="st25" d="M296.8,128.4c-0.4,0.9-0.4,1.9-0.1,2.8c0.3,0.8,0.8,1.4,1.5,1.8c0.3,0.2,0.6,0.3,0.9,0.3
					c0.3,0.1,0.6,0,0.9-0.1c1-0.5-0.1-4.8-1.6-5.9c-0.2-0.2-0.4-0.2-0.7-0.2C297.3,127.2,297,128,296.8,128.4z"/>
				<path class="st29" d="M291.2,124.4c0,0,0-0.6-0.4-0.8c0,0-0.2-0.2-0.2-0.6c0,0,0-0.8-0.5-0.3c0,0-0.1,0.5,0,0.5
					c0,0-0.5-0.9-0.8-0.9c0,0-0.3,0-0.4,0.1c0,0-0.2-0.2-0.3-0.1c0,0-0.3,0.2,0,0.5c0,0-0.4,0.3-0.1,0.7c0,0,0.7,1.4,1.6,1.5
					C290.1,125,291,125,291.2,124.4z"/>
				<path class="st21" d="M303,135.2l-6.9-5.9l-4.9-5.2l-1.1,0.9c2.9,4.1,6.8,9.2,11,12L303,135.2z"/>
				<path class="st29" d="M301.9,130.7c-0.5,0.9-0.6,1.9-0.1,2.8c-0.5,0.3-1,0.6-1.5,1c-0.7,0.5-1.4,1-2,1.5l0.9-2.2
					c0-0.6,0-1.1-0.2-1.7L301.9,130.7z"/>
				<path class="st24" d="M296.6,147.5l-1.8,10.5c0,0,0.9-0.9,1.8,0c0.9,0.9,2.7-0.8,3.6,0c0.8,0.8,2-0.7,2.7,0
					c0.7,0.7,2.5-0.6,3.1,0c0.6,0.6,1.8-0.3,1.8-0.3l-1.8-10.7C306.1,147,298.6,146,296.6,147.5z"/>
				<polygon class="st23" points="303.9,147.6 305.2,157.3 304.1,147.6 				"/>
				<polygon class="st23" points="301.9,147.3 302.5,157.2 302.1,147.4 				"/>
				<polygon class="st23" points="298.3,147.4 297.2,157.2 298.5,147.5 				"/>
				<polygon class="st23" points="300.1,147.3 299.7,157.1 300.4,147.3 				"/>
				<path class="st22" d="M306.3,146.9c-2.5,1.4-7.3,1.9-10.3,0.3c0.3-0.5,0.6-2,0.8-2.5c0.5-1.5,0.5-3.2,0.1-4.7
					c-0.3-1-0.7-1.2-0.7-2c0-0.4,0.1-0.5,0.6-2.3c0.4-1.3,0.4-1.4,0.5-1.5c0.1-0.2,0.7-0.8,2.8-0.9c0.6,0,1.1,0,1.7,0.1
					c2.3,0.3,4,2.6,3.4,4.9c0,0,0,0,0,0c-0.4,1.7-0.9,2.7-0.6,4c0.2,0.6,0.3,0.7,0.7,1.5C305.7,144.8,306.2,145.8,306.3,146.9z"/>
				<path id="_Path_11_22_" class="st29" d="M297,130.1c0.1,0.1,0.1,0.1,0.2,0.2c0.1,0.1,0.2,0.1,0.2,0.2c0,0.2,0,0.3,0,0.5
					c0,0.3,0.1,0.6,0.1,1c0.3,0.1,0.7,0.1,1,0.2c0.6,0.1,1.2,0.1,1.8-0.1c0.4-0.1,0.8-0.2,1.2-0.5c0.8-0.6,1.5-1.9,1-3.2
					c-0.6-1.3-2.4-1.9-3.5-1.4c-0.5,0.2-0.9,0.6-1.2,1.1c-0.1,0.3-0.1,0.3-0.3,0.8c-0.1,0.2-0.1,0.3-0.2,0.5
					C297.1,129.8,296.9,130,297,130.1z"/>
				<g>
					<path class="st25" d="M298.6,127.4c0,0-0.6,2.4,0.9,2.5c0,0,2.3,0.8,1,2.1l-1.6,1.6c-0.4,0.4-0.2,1.2,0.4,1.3
						c2.7,0.6,3.7-1.1,4.2-2.8c0.4-1.5,1.2-3.8,0-5.1c-0.2-0.3-0.6-0.4-0.9-0.5c-0.8-0.3-1.7-0.5-2.6-0.4c-0.5,0.1-2.7,0.6-2.7,1.3
						C297.3,127.5,298,128.2,298.6,127.4z"/>
					<path class="st25" d="M302.9,127.6c-0.1,0.1-0.2-0.5-0.1-0.6c0.1-0.3,0.4-0.6,0.7-0.7c0.4-0.2,1.5,0,1.9,0.1
						c0.4,0.1,0.8,0.4,1.1,0.7c0.4,0.5,0.3,1.3,0,1.9c-0.4,1-1.1,1.9-0.8,3c-0.1-0.3-0.4-0.4-0.6-0.7c-0.2-0.3-0.3-0.6-0.3-1
						c0-0.4,0.1-0.9,0-1.3c-0.1-0.5-0.3-1-0.8-1.3C303.8,127.5,303.3,127.5,302.9,127.6z"/>
				</g>
			</g>
			<g>
				
					<linearGradient id="SVGID_5_" gradientUnits="userSpaceOnUse" x1="-510.6292" y1="2403.6306" x2="-437.8584" y2="2403.6306" gradientTransform="matrix(1 0 0 -1 735 2577)">
					<stop  offset="0" style="stop-color:#001841;stop-opacity:0"/>
					<stop  offset="6.000000e-02" style="stop-color:#001841;stop-opacity:8.000000e-02"/>
					<stop  offset="0.45" style="stop-color:#001841;stop-opacity:0.58"/>
					<stop  offset="0.78" style="stop-color:#001841;stop-opacity:0.89"/>
					<stop  offset="1" style="stop-color:#001841"/>
				</linearGradient>
				<ellipse style="opacity:0.2;fill:url(#SVGID_5_);enable-background:new    ;" cx="260.8" cy="173.4" rx="36.4" ry="1.3"/>
				<g>
					<path class="st24" d="M288.8,108.6l-0.2,0.2l-5.5,5.5l-0.2,0.2L266,131.4l-0.2,0.2l-5.5,5.5l-0.2,0.2l-5.5,5.5l-0.2,0.2
						l-5.5,5.5l-0.2,0.2l-5.5,5.5l-0.2,0.2l-5.5,5.5l-0.2,0.2L226,171.4l-1.6,1.6h65.8v-65.8L288.8,108.6z M281.4,163.7h-36.2
						l36.2-36.2V163.7z"/>
					<g>
						<g>
							
								<rect x="226.4" y="171.1" transform="matrix(0.707 -0.7072 0.7072 0.707 -55.0887 210.5357)" class="st13" width="0.3" height="1.2"/>
						</g>
						<g>
							
								<rect x="232.1" y="165.4" transform="matrix(0.7072 -0.707 0.707 0.7072 -49.414 212.8057)" class="st13" width="0.3" height="1.2"/>
						</g>
						<g>
							<polygon class="st13" points="231,170.5 230.8,170.8 228.7,168.7 228.9,168.5 							"/>
						</g>
						<g>
							<polygon class="st13" points="236.9,164.7 236.7,164.9 234.6,162.8 234.8,162.6 							"/>
						</g>
						<g>
							<polygon class="st13" points="242.5,159.1 242.3,159.3 240.2,157.2 240.4,157 							"/>
						</g>
						<g>
							<polygon class="st13" points="248.2,153.4 248,153.6 245.9,151.5 246.1,151.3 							"/>
						</g>
						<g>
							<polygon class="st13" points="253.9,147.6 253.7,147.9 251.6,145.8 251.9,145.6 							"/>
						</g>
						<g>
							<polygon class="st13" points="259.6,142 259.4,142.2 257.3,140.1 257.5,139.9 							"/>
						</g>
						<g>
							<polygon class="st13" points="265.2,136.4 264.9,136.6 262.8,134.6 263.1,134.3 							"/>
						</g>
						<g>
							<polygon class="st13" points="270.8,130.7 270.6,131 268.5,128.9 268.7,128.7 							"/>
						</g>
						<g>
							<polygon class="st13" points="276.7,124.9 276.4,125.1 274.3,123.1 274.6,122.8 							"/>
						</g>
						<g>
							<polygon class="st13" points="282.3,119.3 282.1,119.5 280,117.4 280.2,117.2 							"/>
						</g>
						<g>
							<polygon class="st13" points="288,113.5 287.8,113.8 285.7,111.7 286,111.5 							"/>
						</g>
						<g>
							
								<rect x="237.8" y="159.8" transform="matrix(0.7072 -0.707 0.707 0.7072 -43.7264 215.1613)" class="st13" width="0.3" height="1.2"/>
						</g>
						<g>
							
								<rect x="243.4" y="154.1" transform="matrix(0.7156 -0.6985 0.6985 0.7156 -38.7662 214.1613)" class="st13" width="0.3" height="1.2"/>
						</g>
						<g>
							<polygon class="st13" points="249.9,149.3 249.6,149.5 248.7,148.7 249,148.4 							"/>
						</g>
						<g>
							
								<rect x="254.8" y="142.7" transform="matrix(0.7073 -0.7069 0.7069 0.7073 -26.6739 222.189)" class="st13" width="0.3" height="1.2"/>
						</g>
						<g>
							
								<rect x="260.5" y="137" transform="matrix(0.7071 -0.7071 0.7071 0.7071 -20.962 224.6309)" class="st13" width="0.3" height="1.2"/>
						</g>
						<g>
							
								<rect x="266.2" y="131.3" transform="matrix(0.707 -0.7072 0.7072 0.707 -15.2586 227.0295)" class="st13" width="0.3" height="1.2"/>
						</g>
						<g>
							
								<rect x="271.9" y="125.6" transform="matrix(0.7159 -0.6982 0.6982 0.7159 -10.8515 225.8122)" class="st13" width="0.3" height="1.2"/>
						</g>
						<g>
							
								<rect x="277.6" y="119.9" transform="matrix(0.6983 -0.7158 0.7158 0.6983 -2.4998 235.171)" class="st13" width="0.3" height="1.2"/>
						</g>
						<g>
							<polygon class="st13" points="284,115.2 283.8,115.4 282.9,114.5 283.1,114.3 							"/>
						</g>
						<g>
							
								<rect x="289" y="108.6" transform="matrix(0.707 -0.7072 0.7072 0.707 7.5023 236.4562)" class="st13" width="0.3" height="1.2"/>
						</g>
					</g>
				</g>
				<linearGradient id="SVGID_7_" gradientUnits="userSpaceOnUse" x1="276.1023" y1="139.5248" x2="297.9481" y2="145.789">
					<stop  offset="0" style="stop-color:#FA5D7A"/>
					<stop  offset="0.6306" style="stop-color:#EC1F7C"/>
					<stop  offset="1" style="stop-color:#E5007D"/>
				</linearGradient>
				<polygon style="fill:url(#SVGID_7_);" points="288.8,108.6 281.4,127.5 281.4,163.7 270,163.7 266.5,173 290.1,173 290.1,107.3 
									"/>
			</g>
			<g>
				<path class="st21" d="M301.7,139.1l-4.7,4.1l-5.6,5.5l-0.5-1.4c2.9-3.9,5.1-7.1,8.1-10.9c0.8-1,2.3-1,3,0l0,0
					C302.6,137.3,302.5,138.5,301.7,139.1z"/>
			</g>
			<g>
				<path class="st29" d="M290.4,147.2c0,0-0.7,0.1-0.8,0.5c0,0-0.2,0.2-0.7,0.3c0,0-0.9,0.1-0.3,0.6c0,0,0.5,0.1,0.6-0.1
					c0,0-0.9,0.7-0.9,1c0,0,0,0.3,0.2,0.4c0,0-0.3,0.2-0.1,0.3c0,0,0.2,0.3,0.5-0.1c0,0,0.4,0.4,0.8,0c0,0,1.5-1,1.5-1.9
					C291.2,148.3,291.1,147.3,290.4,147.2z"/>
				<path class="st22" d="M301.6,138.8l-4.7,4.1l-5.6,5.8l-1.5-1.3c2.9-3.9,6-7.5,9.1-11.3c0.8-1,2.3-1,3,0l0,0
					C302.5,137,302.4,138.1,301.6,138.8z"/>
			</g>
		</g>
		<g>
			<g>
				<g>
					
						<linearGradient id="SVGID_9_" gradientUnits="userSpaceOnUse" x1="-2958.2856" y1="168.554" x2="-2951.429" y2="168.554" gradientTransform="matrix(-1 0 0 1 -2738.5146 0)">
						<stop  offset="0" style="stop-color:#2D2E82"/>
						<stop  offset="0.1544" style="stop-color:#2E3288"/>
						<stop  offset="0.3672" style="stop-color:#303C9A"/>
						<stop  offset="0.614" style="stop-color:#344CB7"/>
						<stop  offset="0.8843" style="stop-color:#3963DF"/>
						<stop  offset="0.9998" style="stop-color:#3C6EF3"/>
					</linearGradient>
					<path style="fill:url(#SVGID_9_);" d="M219.4,172.7c0.7-0.9,0.3-2.1-0.6-2.7c-0.2-0.1-0.4-0.3-0.6-0.4
						c-0.4-0.4-0.4-0.9-0.3-1.4c0.1-0.5,0.3-1.1-0.1-1.6c-0.3-0.4-0.8-0.4-1.3-0.6c-0.8-0.3-0.5-1-0.6-1.7c0-0.2-0.1-0.3-0.3-0.4
						c-0.4-0.2-1-0.1-1.4-0.3c-0.2-0.1-0.4-0.2-0.5-0.1c-0.1,0-0.2,0.2-0.2,0.3c-0.1,0.4,0,0.8-0.1,1.3c-0.1,0.5-0.3,0.9-0.4,1.3
						c-0.1,0.6,0,1.2,0.5,1.5c0.2,0.1,0.5,0.2,0.8,0.3c0.9,0.2,1,0.9,0.8,1.6c-0.1,0.5-0.2,1,0.1,1.4c0.2,0.2,0.4,0.3,0.6,0.4
						c0.2,0.1,0.4,0.3,0.5,0.5c0.1,0.4-0.4,1,0.2,1.3c0.2,0.1,0.4,0.1,0.6,0.1C217.9,173.6,218.9,173.4,219.4,172.7
						C219.4,172.8,219.4,172.8,219.4,172.7z"/>
				</g>
				<g>
					<defs>
						<path id="SVGID_527_" d="M219.4,172.7c0.7-0.9,0.3-2.1-0.6-2.7c-0.2-0.1-0.4-0.3-0.6-0.4c-0.4-0.4-0.4-0.9-0.3-1.4
							c0.1-0.5,0.3-1.1-0.1-1.6c-0.3-0.4-0.8-0.4-1.3-0.6c-0.8-0.3-0.5-1-0.6-1.7c0-0.2-0.1-0.3-0.3-0.4c-0.4-0.2-1-0.1-1.4-0.3
							c-0.2-0.1-0.4-0.2-0.5-0.1c-0.1,0-0.2,0.2-0.2,0.3c-0.1,0.4,0,0.8-0.1,1.3c-0.1,0.5-0.3,0.9-0.4,1.3c-0.1,0.6,0,1.2,0.5,1.5
							c0.2,0.1,0.5,0.2,0.8,0.3c0.9,0.2,1,0.9,0.8,1.6c-0.1,0.5-0.2,1,0.1,1.4c0.2,0.2,0.4,0.3,0.6,0.4c0.2,0.1,0.4,0.3,0.5,0.5
							c0.1,0.4-0.4,1,0.2,1.3c0.2,0.1,0.4,0.1,0.6,0.1C217.9,173.6,218.9,173.4,219.4,172.7C219.4,172.8,219.4,172.8,219.4,172.7z"
							/>
					</defs>
					<clipPath id="SVGID_10_">
						<use xlink:href="#SVGID_527_"  style="overflow:visible;"/>
					</clipPath>
					<path style="clip-path:url(#SVGID_10_);fill:none;stroke:#2D2E82;stroke-width:0.1151;stroke-miterlimit:10;" d="M218.3,173.4
						l-4.6-9.9 M215.1,171.8l3,1.1 M213.4,169.5l3.8,1.4 M216,168.6l-3.4-1.3 M212.1,165.2l2.8,1 M219.2,170.1l-1.2,2.8
						 M218.6,167.4l-1.5,3.5 M217.4,165.4l-1.4,3.2 M215,166.2l1.1-2.6"/>
				</g>
			</g>
			<path class="st4" d="M215.9,172.6c1.2-0.9,2.8-0.7,4.2-0.9c0.7-0.1,1.4-0.2,1.9-0.5c1.3-0.8,2.1-1.4,3.4-0.3
				c1.5,1.1,2.7,1.9,4,0.1c1.2-1.6,1.7-3.6,4.1-3.8c1.3-0.1,2.6,0.5,3.4,1.4c0.7,0.8,0.7,1.9,1.2,2.7c0.2,0.4,0.6,0.8,1.1,0.9
				c0.7,0.2,1.4-0.1,2-0.5c0.6-0.4,1.1-0.9,1.7-1.3c1.3-0.7,2,0.1,2.7,1.1c0.1,0.1,0.7,0.5,0.7,0.5c0.5,0.2,1.2,0.1,1.7,0
				c0.8-0.1,1.7-0.1,2.5,0.1c0.4,0.1,0.8,0.2,1.2,0.5c0.4,0.3,0.6,0.7,0.4,1c0,0.1-0.1,0.1-0.2,0.1c-0.2,0.1-0.5,0-0.7,0
				c-0.8,0-1.6,0-2.4,0c-2.3,0-4.7,0-7,0c-2.7,0-5.4,0-8,0c-5.9,0-11.9,0-17.8,0c-0.1,0-0.3,0-0.4-0.1
				C215.3,173.4,215.5,172.9,215.9,172.6C215.8,172.6,215.8,172.6,215.9,172.6z"/>
			<g>
				<defs>
					<path id="SVGID_529_" d="M215.4,172.7c1.2-0.9,2.8-0.7,4.2-0.9c0.7-0.1,1.4-0.2,1.9-0.5c1.3-0.8,2.1-1.4,3.4-0.3
						c1.5,1.1,2.7,1.9,4,0.1c1.2-1.6,1.7-3.6,4.1-3.8c1.3-0.1,2.6,0.5,3.4,1.4c0.7,0.8,0.7,1.9,1.2,2.7c0.2,0.4,0.6,0.8,1.1,0.9
						c0.7,0.2,1.4-0.1,2-0.5c0.6-0.4,1.1-0.9,1.7-1.3c1.3-0.7,2,0.1,2.7,1.1c0.1,0.1,0.7,0.5,0.7,0.5c0.5,0.2,1.2,0.1,1.7,0
						c0.8-0.1,1.7-0.1,2.5,0.1c0.4,0.1,0.8,0.2,1.2,0.5c0.4,0.3,0.6,0.7,0.4,1c0,0.1,0,0-0.1,0.1c-0.2,0.1-0.6,0-0.8,0
						c-0.8,0-1.7,0.1-2.4,0.1c-2.3,0-4.7,0-7,0c-2.7,0-5.4,0-8,0c-5.9,0-11.9,0-17.8,0c-0.1,0-0.3,0-0.4-0.1
						C214.8,173.5,215,172.9,215.4,172.7C215.4,172.7,215.4,172.7,215.4,172.7z"/>
				</defs>
				<clipPath id="SVGID_12_">
					<use xlink:href="#SVGID_529_"  style="overflow:visible;"/>
				</clipPath>
				<g style="clip-path:url(#SVGID_12_);">
					<path class="st13" d="M221.2,173.7c1.7,0.4,3.5-1,4.2-2.6c0.2-0.4,0.3-0.8,0.5-1.2c0.4-0.8,1.3-1.2,2.1-1.3
						c0.9-0.2,1.9-0.3,2.6-1.2c0.5-0.6,0.4-1.4,0.5-2.1c0.2-1.4,1.5-1.3,2.5-2c0.3-0.2,0.5-0.4,0.6-0.7c0.3-0.7-0.1-1.4,0-2.1
						c0-0.3,0.1-0.6-0.1-0.8c-0.1-0.1-0.3-0.1-0.5-0.1c-0.7,0.2-1.4,0.5-2.1,0.6c-0.8,0.1-1.6,0.1-2.3,0.3c-0.9,0.2-2,0.8-2.3,1.7
						c-0.1,0.4-0.1,0.9-0.1,1.3c0,1.3-1.1,1.9-2.3,2.2c-0.8,0.2-1.7,0.4-2.2,1.1c-0.3,0.3-0.3,0.8-0.5,1.1c-0.1,0.4-0.4,0.8-0.7,1
						c-0.7,0.4-1.8,0.1-2,1.1c-0.1,0.3,0,0.6,0,0.8C219.3,172.2,220,173.4,221.2,173.7C221.2,173.7,221.2,173.7,221.2,173.7z"/>
				</g>
			</g>
			<g>
				<g>
					
						<linearGradient id="SVGID_13_" gradientUnits="userSpaceOnUse" x1="-2963.623" y1="165.2901" x2="-2954.8979" y2="163.7517" gradientTransform="matrix(-1 0 0 1 -2738.5146 0)">
						<stop  offset="0" style="stop-color:#2D2E82"/>
						<stop  offset="0.1833" style="stop-color:#2F3691"/>
						<stop  offset="0.5337" style="stop-color:#344CB7"/>
						<stop  offset="1" style="stop-color:#3C6EF3"/>
					</linearGradient>
					<path style="fill:url(#SVGID_13_);" d="M222.6,173.4c1.6-1,1.8-3.2,1-4.7c-0.2-0.4-0.5-0.7-0.6-1.1c-0.4-0.8,0-1.7,0.4-2.4
						c0.5-0.8,1.2-1.6,1-2.6c-0.2-0.7-1-1.2-1.5-1.7c-1-1.1,0-2,0.3-3.1c0.1-0.3,0-0.6-0.1-0.9c-0.4-0.6-1.3-0.8-1.8-1.3
						c-0.2-0.2-0.4-0.5-0.7-0.5c-0.2,0-0.4,0.1-0.5,0.3c-0.4,0.6-0.6,1.3-1.1,1.9c-0.5,0.7-1.1,1.2-1.5,1.9
						c-0.5,0.8-0.8,1.9-0.3,2.8c0.3,0.4,0.7,0.6,1,0.9c1.1,0.9,0.8,2,0.1,3.1c-0.5,0.7-1,1.5-0.8,2.3c0.1,0.4,0.4,0.7,0.6,1.1
						c0.2,0.3,0.4,0.8,0.3,1.2c-0.2,0.7-1.3,1.3-0.6,2.1c0.2,0.2,0.5,0.4,0.7,0.5C219.8,173.8,221.4,174.1,222.6,173.4
						C222.6,173.4,222.6,173.4,222.6,173.4z"/>
				</g>
				<g>
					<defs>
						<path id="SVGID_532_" d="M222.6,173.4c1.6-1,1.8-3.2,1-4.7c-0.2-0.4-0.5-0.7-0.6-1.1c-0.4-0.8,0-1.7,0.4-2.4
							c0.5-0.8,1.2-1.6,1-2.6c-0.2-0.7-1-1.2-1.5-1.7c-1-1.1,0-2,0.3-3.1c0.1-0.3,0-0.6-0.1-0.9c-0.4-0.6-1.3-0.8-1.8-1.3
							c-0.2-0.2-0.4-0.5-0.7-0.5c-0.2,0-0.4,0.1-0.5,0.3c-0.4,0.6-0.6,1.3-1.1,1.9c-0.5,0.7-1.1,1.2-1.5,1.9
							c-0.5,0.8-0.8,1.9-0.3,2.8c0.3,0.4,0.7,0.6,1,0.9c1.1,0.9,0.8,2,0.1,3.1c-0.5,0.7-1,1.5-0.8,2.3c0.1,0.4,0.4,0.7,0.6,1.1
							c0.2,0.3,0.4,0.8,0.3,1.2c-0.2,0.7-1.3,1.3-0.6,2.1c0.2,0.2,0.5,0.4,0.7,0.5C219.8,173.8,221.4,174.1,222.6,173.4
							C222.6,173.4,222.6,173.4,222.6,173.4z"/>
					</defs>
					<clipPath id="SVGID_14_">
						<use xlink:href="#SVGID_532_"  style="overflow:visible;"/>
					</clipPath>
					<path style="clip-path:url(#SVGID_14_);fill:none;stroke:#2D2E82;stroke-width:0.1151;stroke-miterlimit:10;" d="M220.5,173.8
						v-18.6 M216.9,169.1l3.6,3.6 M216,164.4l4.6,4.6 M220.5,164.6l-4.2-4.2 M217.1,156.8l3.4,3.4 M224.2,169.1l-3.6,3.6
						 M225.1,164.4l-4.6,4.6 M224.7,160.4l-4.2,4.2 M220.5,160.3l3.4-3.4"/>
				</g>
			</g>
			<g>
				
					<linearGradient id="SVGID_15_" gradientUnits="userSpaceOnUse" x1="-2976.5117" y1="173.7761" x2="-2976.5117" y2="170.5806" gradientTransform="matrix(-1 0 0 1 -2738.5146 0)">
					<stop  offset="0" style="stop-color:#2D2E82"/>
					<stop  offset="1" style="stop-color:#2D2E82;stop-opacity:0"/>
				</linearGradient>
				
					<linearGradient id="SVGID_16_" gradientUnits="userSpaceOnUse" x1="-2983.7561" y1="172.1784" x2="-2969.3826" y2="172.1784" gradientTransform="matrix(-1 0 0 1 -2738.5146 0)">
					<stop  offset="0" style="stop-color:#FFFFFF;stop-opacity:0"/>
					<stop  offset="1" style="stop-color:#FFFFFF;stop-opacity:0"/>
				</linearGradient>
				<path style="fill:url(#SVGID_15_);stroke:url(#SVGID_16_);stroke-width:0.2302;stroke-miterlimit:10;" d="M245.1,173.8
					c0.1,0-0.4-1.1-0.5-1.2c-0.4-0.5-1-0.8-1.6-0.7c-0.6,0-1.1,0.3-1.5,0.6c-0.4,0.3-0.7,0.7-1.3,0.6c-0.4-0.1-0.6-0.4-0.8-0.8
					c-0.2-0.4-0.3-0.9-0.6-1.3c-0.5-0.5-1.2-0.4-1.9-0.2c-0.5,0.2-1.1,0.5-1.4,0.9c-0.3,0.5-0.2,1.2-0.9,1.4c-0.4,0.1-0.9-0.1-1-0.5
					c-0.2-0.6,0.1-2-1-1.7c-0.6,0.2-1.1,0.9-1.4,1.5c-0.1,0.1-0.4,1.3-0.6,1.3C230.9,173.8,245.1,173.8,245.1,173.8z"/>
				
					<linearGradient id="SVGID_17_" gradientUnits="userSpaceOnUse" x1="-2978.9172" y1="173.7761" x2="-2978.9172" y2="168.9689" gradientTransform="matrix(-1 0 0 1 -2738.5146 0)">
					<stop  offset="0" style="stop-color:#2D2E82"/>
					<stop  offset="1" style="stop-color:#2D2E82;stop-opacity:0"/>
				</linearGradient>
				
					<linearGradient id="SVGID_18_" gradientUnits="userSpaceOnUse" x1="-2984.1409" y1="171.3725" x2="-2973.8086" y2="171.3725" gradientTransform="matrix(-1 0 0 1 -2738.5146 0)">
					<stop  offset="0" style="stop-color:#FFFFFF;stop-opacity:0"/>
					<stop  offset="1" style="stop-color:#FFFFFF;stop-opacity:0"/>
				</linearGradient>
				<path style="fill:url(#SVGID_17_);stroke:url(#SVGID_18_);stroke-width:0.2302;stroke-miterlimit:10;" d="M245.5,173.8
					c0.1,0-0.3-1.7-0.3-1.9c-0.3-0.7-0.7-1.1-1.2-1.1c-0.4,0-0.8,0.4-1.1,0.9c-0.3,0.4-0.5,1-0.9,0.9c-0.3-0.1-0.4-0.6-0.5-1.1
					c-0.1-0.6-0.2-1.4-0.5-1.9c-0.3-0.7-0.9-0.6-1.3-0.3c-0.4,0.3-0.8,0.7-1,1.4c-0.2,0.8-0.1,1.8-0.6,2.1c-0.3,0.2-0.6-0.1-0.7-0.7
					c-0.2-0.8,0.1-3-0.7-2.5c-0.4,0.3-0.8,1.4-1,2.2c0,0.2-0.3,2-0.4,2C235.3,173.8,245.5,173.8,245.5,173.8z"/>
				
					<linearGradient id="SVGID_19_" gradientUnits="userSpaceOnUse" x1="-2970.9221" y1="173.7761" x2="-2970.9221" y2="170.1226" gradientTransform="matrix(-1 0 0 1 -2738.5146 0)">
					<stop  offset="0" style="stop-color:#2D2E82"/>
					<stop  offset="1" style="stop-color:#2D2E82;stop-opacity:0"/>
				</linearGradient>
				
					<linearGradient id="SVGID_20_" gradientUnits="userSpaceOnUse" x1="-2973.1541" y1="171.9494" x2="-2968.8054" y2="171.9494" gradientTransform="matrix(-1 0 0 1 -2738.5146 0)">
					<stop  offset="0" style="stop-color:#FFFFFF;stop-opacity:0"/>
					<stop  offset="1" style="stop-color:#FFFFFF;stop-opacity:0"/>
				</linearGradient>
				<path style="fill:url(#SVGID_19_);stroke:url(#SVGID_20_);stroke-width:0.2302;stroke-miterlimit:10;" d="M234.5,173.8
					c0,0-0.1-1.3-0.1-1.4c-0.1-0.6-0.3-0.9-0.5-0.8c-0.2,0-0.3,0.3-0.4,0.7c-0.1,0.3-0.2,0.8-0.4,0.7c-0.1-0.1-0.2-0.5-0.2-0.9
					c-0.1-0.5-0.1-1.1-0.2-1.5c-0.1-0.5-0.4-0.4-0.6-0.2c-0.2,0.2-0.3,0.5-0.4,1.1c-0.1,0.6,0,1.4-0.3,1.6c-0.1,0.1-0.3-0.1-0.3-0.5
					c-0.1-0.6,0-2.3-0.3-1.9c-0.2,0.2-0.3,1.1-0.4,1.7c0,0.2-0.1,1.5-0.2,1.5C230.3,173.8,234.5,173.8,234.5,173.8z"/>
				
					<linearGradient id="SVGID_21_" gradientUnits="userSpaceOnUse" x1="-2980.9287" y1="173.7761" x2="-2980.9287" y2="170.1226" gradientTransform="matrix(-1 0 0 1 -2738.5146 0)">
					<stop  offset="0" style="stop-color:#2D2E82"/>
					<stop  offset="1" style="stop-color:#2D2E82;stop-opacity:0"/>
				</linearGradient>
				
					<linearGradient id="SVGID_22_" gradientUnits="userSpaceOnUse" x1="-2983.1606" y1="171.9494" x2="-2978.812" y2="171.9494" gradientTransform="matrix(-1 0 0 1 -2738.5146 0)">
					<stop  offset="0" style="stop-color:#FFFFFF;stop-opacity:0"/>
					<stop  offset="1" style="stop-color:#FFFFFF;stop-opacity:0"/>
				</linearGradient>
				<path style="fill:url(#SVGID_21_);stroke:url(#SVGID_22_);stroke-width:0.2302;stroke-miterlimit:10;" d="M244.5,173.8
					c0,0-0.1-1.3-0.1-1.4c-0.1-0.6-0.3-0.9-0.5-0.8c-0.2,0-0.3,0.3-0.4,0.7c-0.1,0.3-0.2,0.8-0.4,0.7c-0.1-0.1-0.2-0.5-0.2-0.9
					c-0.1-0.5-0.1-1.1-0.2-1.5c-0.1-0.5-0.4-0.4-0.6-0.2c-0.2,0.2-0.3,0.5-0.4,1.1c-0.1,0.6,0,1.4-0.3,1.6c-0.1,0.1-0.3-0.1-0.3-0.5
					c-0.1-0.6,0-2.3-0.3-1.9c-0.2,0.2-0.3,1.1-0.4,1.7c0,0.2-0.1,1.5-0.2,1.5C240.3,173.8,244.5,173.8,244.5,173.8z"/>
			</g>
		</g>
		<g>
			<g>
				<g>
					
						<linearGradient id="SVGID_24_" gradientUnits="userSpaceOnUse" x1="-682.8878" y1="2383.5571" x2="-545.7432" y2="2383.5571" gradientTransform="matrix(1 0 0 -1 735 2577)">
						<stop  offset="0" style="stop-color:#001841;stop-opacity:0"/>
						<stop  offset="6.000000e-02" style="stop-color:#001841;stop-opacity:8.000000e-02"/>
						<stop  offset="0.45" style="stop-color:#001841;stop-opacity:0.58"/>
						<stop  offset="0.78" style="stop-color:#001841;stop-opacity:0.89"/>
						<stop  offset="1" style="stop-color:#001841"/>
					</linearGradient>
					<ellipse style="opacity:0.2;fill:url(#SVGID_24_);enable-background:new    ;" cx="120.7" cy="193.4" rx="68.6" ry="2.7"/>
					<g>
						<g>
							<path class="st13" d="M158.6,193c-0.6,0-1.2-0.4-1.4-1l-32.3-85.2c-0.3-0.8,0.2-1.6,1-1.9c0.7-0.2,1.5,0.1,1.9,0.8l32.3,85.2
								c0.3,0.8-0.1,1.6-0.9,1.9C159,193,158.8,193,158.6,193L158.6,193z"/>
							<path class="st13" d="M186.8,193c-0.6,0-1.2-0.4-1.4-1L153,106.9c-0.3-0.8,0.2-1.6,1-1.9c0.7-0.2,1.5,0.1,1.9,0.8l32.3,85.2
								c0.3,0.8-0.1,1.6-0.9,1.9C187.1,193,187,193,186.8,193L186.8,193z"/>
						</g>
						<g>
							<path class="st13" d="M159.1,119h-29.1c-0.9,0.1-1.6-0.6-1.6-1.5c-0.1-0.9,0.6-1.6,1.5-1.6c0.1,0,0.1,0,0.2,0h29.1
								c0.9,0.1,1.5,0.8,1.5,1.6C160.5,118.4,159.9,119,159.1,119z"/>
							<path class="st13" d="M163.7,131h-29.1c-0.9-0.1-1.5-0.8-1.5-1.6c0-0.8,0.7-1.4,1.5-1.5h29.1c0.9,0.1,1.5,0.8,1.5,1.6
								C165.2,130.3,164.5,130.9,163.7,131z"/>
							<path class="st13" d="M168.4,143.4h-29.1c-0.9-0.1-1.5-0.8-1.5-1.6c0-0.8,0.7-1.4,1.5-1.5h29.1c0.9-0.1,1.6,0.6,1.6,1.5
								c0.1,0.9-0.6,1.6-1.5,1.6C168.5,143.4,168.5,143.4,168.4,143.4z"/>
							<path class="st13" d="M173.1,155.8h-29.1c-0.9-0.1-1.5-0.8-1.5-1.6c0-0.8,0.7-1.4,1.5-1.5h29.1c0.9,0.1,1.5,0.8,1.5,1.6
								C174.5,155.2,173.9,155.8,173.1,155.8z"/>
							<path class="st13" d="M177.8,167.7h-29.1c-0.9,0.1-1.6-0.6-1.6-1.5c-0.1-0.9,0.6-1.6,1.5-1.6c0.1,0,0.1,0,0.2,0h29.1
								c0.9,0.1,1.5,0.8,1.5,1.6C179.2,167.1,178.5,167.7,177.8,167.7z"/>
							<path class="st13" d="M182.4,180.2h-29.1c-0.9-0.1-1.5-0.8-1.5-1.6c0-0.8,0.7-1.4,1.5-1.5h29.1c0.9,0.1,1.5,0.8,1.5,1.6
								C183.8,179.5,183.2,180.1,182.4,180.2z"/>
						</g>
						<g>
							<g>
								<path class="st7" d="M112.4,193c-0.8,0-1.5-0.7-1.5-1.5c0-0.2,0-0.4,0.1-0.5l32.3-85.2c0.3-0.8,1.1-1.2,1.9-1
									c0.8,0.3,1.2,1.1,1,1.9c0,0,0,0.1,0,0.1l-32.3,85.2C113.6,192.6,113,193,112.4,193z"/>
								<path class="st7" d="M84.3,193c-0.8,0-1.5-0.7-1.5-1.5c0-0.2,0-0.4,0.1-0.5l32.4-85.2c0.3-0.8,1.1-1.2,1.9-1
									c0.8,0.3,1.2,1.1,1,1.9c0,0,0,0.1,0,0.1l-32.4,85.2C85.5,192.7,84.9,193,84.3,193z"/>
							</g>
							<path class="st25" d="M114.5,100.9h42.6c1.9,0,3.4,1.5,3.4,3.4l0,0c0,1.9-1.5,3.4-3.4,3.4h-42.6c-1.9,0-3.4-1.5-3.4-3.4l0,0
								C111.1,102.4,112.6,100.9,114.5,100.9z"/>
							<g>
								<path class="st7" d="M141.1,119H112c-0.9-0.1-1.5-0.8-1.5-1.6c0-0.8,0.7-1.4,1.5-1.5h29.1c0.9,0.1,1.5,0.8,1.5,1.6
									C142.5,118.4,141.9,119,141.1,119z"/>
								<path class="st7" d="M136.4,131h-29.1c-0.9-0.1-1.5-0.8-1.5-1.6c0-0.8,0.7-1.4,1.5-1.5h29.1c0.9,0.1,1.5,0.8,1.5,1.6
									C137.8,130.3,137.2,130.9,136.4,131z"/>
								<path class="st7" d="M131.8,143.4h-29.1c-0.9-0.1-1.5-0.8-1.5-1.6c0-0.8,0.7-1.4,1.5-1.5h29.1c0.9,0.1,1.5,0.8,1.5,1.6
									C133.2,142.7,132.5,143.3,131.8,143.4z"/>
								<path class="st7" d="M127.1,155.8H97.9c-0.9-0.1-1.5-0.8-1.5-1.6c0-0.8,0.7-1.4,1.5-1.5h29.1c0.9,0.1,1.5,0.8,1.5,1.6
									C128.5,155.2,127.9,155.8,127.1,155.8z"/>
								<path class="st7" d="M122.4,167.7H93.3c-0.9,0.1-1.6-0.6-1.6-1.5c-0.1-0.9,0.6-1.6,1.5-1.6c0.1,0,0.1,0,0.2,0h29.1
									c0.9,0.1,1.5,0.8,1.5,1.6C123.8,167.1,123.2,167.7,122.4,167.7z"/>
								<path class="st7" d="M117.8,180.2H88.6c-0.9-0.1-1.5-0.8-1.5-1.6c0-0.8,0.7-1.4,1.5-1.5h29.1c0.9,0.1,1.5,0.8,1.5,1.6
									C119.2,179.5,118.5,180.1,117.8,180.2z"/>
							</g>
						</g>
						<path class="st13" d="M150,100.9h8.3c1.9,0,3.4,1.5,3.4,3.4l0,0c0,1.9-1.5,3.4-3.4,3.4H150c-1.9,0-3.4-1.5-3.4-3.4l0,0
							C146.7,102.4,148.2,100.9,150,100.9z"/>
					</g>
				</g>
				<g>
					
						<linearGradient id="SVGID_25_" gradientUnits="userSpaceOnUse" x1="-597.4235" y1="2370.0837" x2="-517.2162" y2="2370.0837" gradientTransform="matrix(1 0 0 -1 746.4616 2565.1433)">
						<stop  offset="0" style="stop-color:#001841;stop-opacity:0"/>
						<stop  offset="6.000000e-02" style="stop-color:#001841;stop-opacity:8.000000e-02"/>
						<stop  offset="0.45" style="stop-color:#001841;stop-opacity:0.58"/>
						<stop  offset="0.78" style="stop-color:#001841;stop-opacity:0.89"/>
						<stop  offset="1" style="stop-color:#001841"/>
					</linearGradient>
					<ellipse style="opacity:0.2;fill:url(#SVGID_25_);enable-background:new    ;" cx="189.1" cy="195.1" rx="40.1" ry="1.4"/>
					<path class="st20" d="M223,178.3L223,178.3c-0.1,0-0.1,0-0.2,0l-0.4,0.3c-0.7,0.5-1.8,0.3-2.3-0.4c0.5,0.7,0.3,1.8-0.4,2.3
						l-0.4,0.3c-0.7,0.5-1.8,0.3-2.3-0.4c0.5,0.7,0.3,1.8-0.4,2.3l-0.4,0.3c0,0-0.1,0-0.1,0l0,0l8.8,8l2.3-1.6L223,178.3z"/>
					<path class="st24" d="M149.7,75.1l-3.3,2.3c-0.9,0.6-1.1,1.9-0.5,2.8l1.8,2.7l5-3.4L149.7,75.1z"/>
					
						<rect x="152" y="79.6" transform="matrix(0.8258 -0.564 0.564 0.8258 -22.709 102.7756)" class="st320" width="6" height="17.1"/>
					<path class="st23" d="M154.6,78.1l-1.8-2.7c-0.6-0.9-1.9-1.1-2.8-0.5l-0.3,0.2l2.9,4.3L154.6,78.1z"/>
					
						<rect x="157.3" y="77.3" transform="matrix(0.8258 -0.564 0.564 0.8258 -20.7897 104.3023)" class="st354" width="2.3" height="17.1"/>
					<polygon class="st320" points="220.1,178.2 229.4,195.1 223,178.2 221.8,176.5 					"/>
					<g>
						<path class="st4" d="M157.3,96.9l58.8,86c0,0,0.1,0,0.1,0l0.4-0.3c0.7-0.5,0.9-1.3,0.6-2l-58-84.9L157.3,96.9z"/>
						<path class="st4" d="M222.4,178.6l0.4-0.3c0,0,0.1-0.1,0.1-0.1l-58.8-86l-1.9,1.3l57.8,84.7
							C220.6,178.9,221.7,179.1,222.4,178.6z"/>
						<path class="st7" d="M159.2,95.7l58,84.9c0-0.1-0.1-0.2-0.1-0.3c0.5,0.7,1.5,0.9,2.3,0.4l0.4-0.3c0.7-0.5,0.9-1.5,0.4-2.3
							l-57.8-84.7L159.2,95.7z"/>
					</g>
					<polygon class="st23" points="225,191 229.4,195.1 227.3,189.4 					"/>
				</g>
			</g>
			<g>
				<g>
					<g>
						<path class="st6" d="M110.4,70.4l0.7,1.9c0,0,0.3,0.7,1,0.6c1.6-0.3,3.5,0.2,4.8,1.3c1.6,1.3,2,3.6,2.5,5.5c0.3,1,0.6,2,0.8,3
							c0.3,1.6,0.5,3.3,1,4.9c0.5,1.3,1.1,2.5,2,3.6c0.4,0.5,0.8,1,1.3,1.5c0.4,0.5,0.8,0.9,1.4,1.2c0.1,0,0.1,0.1,0.2,0.1
							c0.1,0,0.3-0.1,0.3-0.3c0.2-0.8,0.3-1.7,0.3-2.5c0-0.9,0-1.8-0.2-2.7c-0.3-1.7-0.8-3.4-1.6-5c-0.5-1-1.1-1.9-1.6-2.8
							c-0.7-1.4-1.4-2.8-2-4.2c-0.6-1.4-1-2.7-0.5-4.1c0.4-1.4,1.5-2.6,2.6-3.5c0,0,0.8-0.5,0.6-1l-0.8-2.1L110.4,70.4z"/>
						<path class="st22" d="M123.2,65.8l-12.7,4.6l-2.3-6.3c-0.1-0.3,0-0.6,0.3-0.7l11.7-4.2c0.3-0.1,0.6,0,0.7,0.3L123.2,65.8z"/>
						<polygon class="st7" points="108.5,63.3 105,56.1 118.3,51.3 120.2,59.1 						"/>
						<path class="st13" d="M121.3,65l-9.9,3.6c-0.2,0.1-0.2,0.2-0.2,0.4l0,0c0.1,0.2,0.2,0.2,0.4,0.2l9.9-3.6
							c0.2-0.1,0.2-0.2,0.2-0.4l0,0C121.6,65,121.5,65,121.3,65z"/>
					</g>
					<path class="st23" d="M119,53.8c-0.1,0.2-0.2,0.5-0.4,0.6c-0.1,0-0.2,0.1-0.3,0.1c-0.7,0-1.4,0.2-2,0.6c-0.6,0.4-1,1-1.1,1.7
						c0,0.2,0,0.4-0.1,0.6c-0.1,0.2-0.2,0.3-0.4,0.4c-0.2,0-0.3-0.1-0.5-0.2c-0.5-0.3-1-0.7-1.4-1.2c-0.1-0.1-0.2-0.2-0.3-0.3
						c-0.2-0.1-0.4-0.1-0.6,0s-0.3,0.3-0.5,0.4c-0.5,0.5-0.9,1-1.4,1.4c-0.2,0.2-0.5,0.5-0.8,0.5c-0.4,0-0.8-0.3-1.2-0.3
						c-0.5,0-0.8,0.3-1.2,0.5c-0.2,0.1-0.5,0.2-0.7,0.2c-0.1,0.4-0.1,0.9-0.1,1.2c0,1.4,0.1,2.7,0.2,4.1c0.1,0.6,0.1,1.3,0.2,1.9
						c0.1,0.8,0.4,1.7,0.3,2.5c0,0.3-0.1,0.6-0.3,0.8c-0.1,0.1-0.2,0.3-0.4,0.3c-0.3,0.1-0.7-0.1-0.9-0.4c-0.5-0.9,0.2-2,0.4-2.9
						c0.2-0.7,0.2-1.5,0.3-2.3c0.1-1.7,0-3.5-0.1-5.2c-0.1,0-0.1-0.1-0.2-0.2c-0.2-0.3-0.4-0.7-0.6-1.1c-0.6-1.7,0.9-2.1,0.9-2.1
						c10.8-4.2,12.6-4.2,12.6-4.2C119.7,51.4,119.1,53.1,119,53.8z"/>
				</g>
				<g>
					<path class="st22" d="M123.3,35.9L123.3,35.9l-0.9,1.2c-0.7,0-0.8,0.5-0.8,0.5l-0.9,5.6c-0.1,0.9,0.4,1.3,0.4,1.3l15.3,15.3
						c0.6,0.5,0.5,1,0.5,1l-0.2,1.4l-0.4-0.1l-1-0.2c0.2-0.9-0.5-1.7-0.5-1.7l-15-15.1c-0.8-0.8-0.6-1.3-0.6-1.3l1.1-7.3
						c0.2-1.1,1-0.9,1-0.9L123.3,35.9z"/>
					<path class="st21" d="M123.2,35.9l-0.9,1.1c-0.7,0-0.8,0.5-0.8,0.5l-0.9,5.6c-0.1,0.9,0.4,1.3,0.4,1.3l15.3,15.3
						c0.6,0.5,0.5,1,0.5,1l-0.2,1.4l-0.4-0.1c0.2-0.9-0.5-1.7-0.5-1.7l-15-15.1c-0.8-0.8-0.6-1.3-0.6-1.3l1.1-7.3
						c0.2-1.1,1-0.9,1-0.9L123.2,35.9z"/>
					<path class="st7" d="M156.5,37.9l-1.1,7.3c-0.1,0.8-0.9,1.4-1.8,1.3l-30.5-4.7c-0.8-0.1-1.4-0.9-1.3-1.8l1.1-7.3
						c0.1-0.8,0.9-1.4,1.8-1.3l30.5,4.7C156.1,36.3,156.6,37.1,156.5,37.9z"/>
					<path class="st13" d="M128.8,89.2l5.9,0.8c0,0,0.8-1.7,0.5-3.5c0,0-0.2-2.4,0.3-3.8l2.4-12.9c0,0,0-1.4-0.3-2.1
						c0,0-0.8-2.2-0.2-3.3c0,0,0.3-1.2,0.7-1.7c0,0-4.2-0.9-4.4-0.7c0,0,0.1,1.6,0,2c0,0,0.1,1.6-1.2,3.3c0,0-0.7,0.8-0.9,2.4
						l-1.7,14c0,0-0.6,2.1-0.9,2.5C129.1,86.1,128.6,87.7,128.8,89.2z"/>
					<path class="st13" d="M138.5,62.6L138.5,62.6c0,0.2-0.2,0.3-0.4,0.2l-4.5-0.8c-0.2,0-0.3-0.2-0.2-0.4l0,0
						c0-0.2,0.2-0.3,0.4-0.2l4.5,0.8C138.5,62.2,138.6,62.4,138.5,62.6z"/>
				</g>
				<g>
					<g>
						<g>
							<path class="st22" d="M138.4,79.3l-2.6,21.6h-20.1l-0.8-7.8h2.7c1.5,0,2.9-0.6,3.9-1.7l9-9.6c0.1-0.1,0.1-0.4,0-0.5
								c-0.1-0.1-0.4-0.1-0.5,0l-9,9.6c-0.8,0.9-2.1,1.4-3.3,1.4h-2.8l-0.6-5.3l-0.1-0.9l-0.6-5.4h24.6L138.4,79.3z"/>
							<path class="st22" d="M130.4,81.3c0.1,0.1,0.2,0.4,0,0.5l-9,9.6c-1,1.1-2.4,1.7-3.9,1.7h-2.7l-0.1-0.7h2.8
								c1.3,0,2.5-0.5,3.3-1.4l9-9.6C130.1,81.2,130.3,81.2,130.4,81.3z"/>
							<polygon class="st22" points="138.4,79.2 138.4,79.3 138.2,80.9 113.6,80.9 113.4,79.3 113.4,79.2 							"/>
							<polygon class="st21" points="138.4,79.2 138.4,79.3 138.2,80.9 113.6,80.9 113.4,79.3 113.4,79.2 							"/>
							<path class="st22" d="M140.1,79.3h-28.3l0,0c0-1.3,1.1-2.4,2.4-2.4h23.5C139,76.8,140.1,77.9,140.1,79.3L140.1,79.3z"/>
						</g>
						<circle class="st20" cx="130.2" cy="81.6" r="1.6"/>
						<g>
							<path class="st13" d="M130.4,81.8l-9,9.6c-1,1.1-2.4,1.7-3.9,1.7h-7.1c-0.6,0-1-0.2-1.2-0.6c-0.5-1.3,2.9-4.6,4.8-6.3
								l0.1,0.9c-2.4,2.2-4.5,4.5-4.2,5.1c0,0.1,0.2,0.1,0.5,0.1h7.1c1.3,0,2.5-0.5,3.3-1.4l9-9.6c0.1-0.1,0.4-0.2,0.5,0
								C130.6,81.5,130.6,81.7,130.4,81.8z"/>
						</g>
						<path class="st23" d="M121.3,76.8c0.4,0,0.9,0.6,1,1c0.7,1.4,0.4,3.2,0.4,4.7c0,0,0,0.1,0,0.1c0,0.3,0,0.5,0.1,0.8
							c0.1,0.3,0.2,0.6,0.4,0.8c0.2,0.3,0.6,0.6,1,0.6c0.6,0.1,1.1-0.2,1.5-0.6c0.4-0.5,0.4-1.2,0.4-1.9c0-1.2,0-2.3,0-3.5
							c0-0.9,0.4-2.1,1.5-2.1C127.4,76.8,121.3,76.8,121.3,76.8z"/>
					</g>
				</g>
			</g>
			<g>
				
					<linearGradient id="SVGID_27_" gradientUnits="userSpaceOnUse" x1="-691.3392" y1="2384.7126" x2="-624.7217" y2="2384.7126" gradientTransform="matrix(1 0 0 -1 735 2577)">
					<stop  offset="0" style="stop-color:#001841;stop-opacity:0"/>
					<stop  offset="6.000000e-02" style="stop-color:#001841;stop-opacity:8.000000e-02"/>
					<stop  offset="0.45" style="stop-color:#001841;stop-opacity:0.58"/>
					<stop  offset="0.78" style="stop-color:#001841;stop-opacity:0.89"/>
					<stop  offset="1" style="stop-color:#001841"/>
				</linearGradient>
				<ellipse style="opacity:0.2;fill:url(#SVGID_27_);enable-background:new    ;" cx="77" cy="192.3" rx="33.3" ry="1.5"/>
				<path class="st29" d="M109,126.5c0,0,0.4-1.9,1.3-2.5c0,0,0.9-0.6,1.2-1.3c0,0,0.3-1.2,0.7-1s0.3,1.2,0.3,1.2s0,0.5,0.2,0.3
					c0,0,0.8-1,1.2-0.8c0.4,0.2,0.3,0.9,0.3,0.9s0.5,0,0.5,0.4c0,0-0.2,2.5-1.1,3.4c0,0-2.5,1.7-3.9,1.6l-0.9-1.1L109,126.5z"/>
				<path class="st29" d="M105.3,121.1c0,0,0.1-1.9,0.8-2.6c0,0,0.8-0.7,0.9-1.5c0,0,0.1-1.2,0.5-1.1s0.4,1.1,0.4,1.1
					s0.1,0.5,0.2,0.3c0,0,0.6-1.1,1-1c0.4,0.1,0.4,0.8,0.4,0.8s0.5,0,0.5,0.3c0,0,0.2,2.5-0.6,3.4c0,0-2.1,2-3.3,2.1l-1-0.9
					L105.3,121.1z"/>
				<path class="st23" d="M80.5,134.6c0,0,6.4-4.5,9.8-4.8c0,0,6.2-1.4,8.9-3.7l6-5.6l1.6,2.8c0,0-6.7,6.6-7.7,7.3l-8.8,6.1
					C90.3,136.8,80.7,138.2,80.5,134.6z"/>
				<path class="st13" d="M75.1,182l6.3-0.1c-0.4,1.7-0.8,3.4-1.2,5.1c-0.1,0.5-0.5,1.2-0.2,1.7c0.3,0.5,1.1,0.7,1.6,0.9
					c0.8,0.3,1.7,0.4,2.5,0.6c0.5,0.1,0.6,0.6,0.3,1c0,0-3.4,1-6.4,0l-0.5-0.2l0,0.5c0,0-1.3,0.4-2-0.5
					C75.4,191,74.9,184.6,75.1,182z"/>
				<path class="st13" d="M94.9,180l6-1.9c0.1,1.8,0.2,3.5,0.3,5.3c0,0.5-0.1,1.3,0.3,1.7c0.4,0.4,1.3,0.3,1.8,0.4
					c0.9,0,1.7-0.1,2.6-0.1c0.6,0,0.7,0.4,0.6,0.9c0,0-3,1.9-6.1,1.9l-0.6,0l0.1,0.4c0,0-1.1,0.8-2.1,0.1
					C97.8,188.6,95.5,182.6,94.9,180z"/>
				<path class="st21" d="M75.9,149.9c-0.5,2.7-0.8,5.5-1,8.3c-0.1,2.3-0.1,4.7,0.2,7c0.3,1.7,0.8,3.4,0.9,5.2
					c0.1,1.4-0.3,2.7-0.5,4c-0.4,2.7-1.5,5.6-1.2,8.4l7.8,0c0.1-2.1-0.2-3.7-0.1-5.8c0.2-3.3,0.4-6.7,0.6-10
					c0.2-2.7,0.3-5.5,0.4-8.2c0-1,0-2.1,0-3.1c0-0.6,0-1.3-0.2-1.9C82.8,153.9,81.6,147,75.9,149.9z"/>
				<path class="st22" d="M75.9,149.9c0,0-1.8,5.9,6.3,11.3c2.8,2,5.6,4.2,8.8,5.7c0.5,2.7,1,5.5,1.7,8.2c0.3,1.2,0.6,2.4,1,3.5
					c0.2,0.7,0.5,1.6,1,2.1l7.2-2.3c-0.5-1.5-1-2.9-1.5-4.3c-0.6-1.6-1.3-3.2-1.9-4.8c-0.3-0.8-0.6-1.6-0.8-2.5
					c-0.2-0.8-0.2-1.6-0.4-2.5c-0.3-0.9-1-1.6-1.6-2.3c-0.6-0.8-1.3-1.6-1.9-2.3c-1.5-1.9-3-3.7-4.6-5.6c-1-1.3-2.1-2.6-3.1-3.9
					C85.9,150.2,81,147.6,75.9,149.9z"/>
				<g>
					<path id="_Path_11_21_" class="st29" d="M87.1,128.1c-0.1,0.1-0.1,0.2-0.2,0.4c-0.1,0.1-0.2,0.3-0.3,0.4
						c0.1,0.3,0.2,0.5,0.2,0.8c0.1,0.5,0.2,1,0.3,1.5c-0.5,0.3-0.9,0.5-1.4,0.8c-0.9,0.4-1.8,0.7-2.8,0.8c-0.7,0.1-1.3,0-2-0.2
						c-1.5-0.5-3.2-2.3-3-4.6c0.2-2.4,2.7-4.1,4.6-3.9c0.9,0.1,1.7,0.5,2.3,1.1c0.3,0.4,0.2,0.5,0.8,1.2c0.2,0.2,0.4,0.4,0.6,0.6
						C86.7,127.6,87.1,127.8,87.1,128.1z"/>
					<path class="st29" d="M79.3,130.5c0.7,1.4,0.6,3-0.2,4.3c0.7,0.6,1.4,1.1,2.1,1.7c1,0.9,2,1.7,2.9,2.6l-1-3.4
						c0.1-0.9-1.2-2.2,1.7-3.6L79.3,130.5z"/>
				</g>
				<path class="st24" d="M75,152.8c0,0,1.3-17.4,4.8-18.6c0.9-0.3,1.6-0.4,2.5-0.3c2.6,0.1,5,1.5,7.7,1.1c1.8-0.3,3.7-0.9,5.5-1.4
					c4.6-1.4,9.1-3.4,12.7-6.5c0.2-0.1,0.3-0.3,0.5-0.4c0,0,2.1,2.2,2.1,2.2c-1.6,1.4-3.2,2.9-4.8,4.3c-1,0.9-2.1,1.9-3.2,2.7
					c-1.9,1.5-4.4,2.1-6.6,2.9c-1.5,0.6-4.1,1.2-5.2,2.4c0,0-2.9,2.7-3.6,5.6c0,0-0.4,4,0.6,6.1C88,152.9,76.6,153.3,75,152.8z"/>
				<path class="st6" d="M84.7,125.1c0.3-0.2,0.5-0.8-0.1-1.6c-1.1-0.2-0.7,0.2-2-0.1c0,0-7.4-0.5-5,6.4c0,0,0.9,2.1,2.2,2.8l0-2.1
					c0,0-1.2-1.2-0.9-2c0,0,0.6-1.4,1.3-0.9c0.7,0.6,0.7,1.6,0.7,1.6H82l0.3-2.4C82.3,126.8,82.8,125.2,84.7,125.1z"/>
				<path class="st6" d="M86.4,128.8c0,0-1.6,0.2-2,1.1c0,0-0.2,0.7,0,0.9c0.4,0.3-0.1-0.8,0.6-1c0,0,1.3-0.1,1.6-0.5
					C86.7,129.3,86.9,128.7,86.4,128.8z"/>
			</g>
		</g>
		<g>
			<g>
				<g>
					
						<linearGradient id="SVGID_29_" gradientUnits="userSpaceOnUse" x1="-1319.6233" y1="189.8336" x2="-1312.7117" y2="189.8336" gradientTransform="matrix(1 0 0 1 1600.2025 0)">
						<stop  offset="0" style="stop-color:#66F29E"/>
						<stop  offset="0.9998" style="stop-color:#9DFFB0"/>
					</linearGradient>
					<path style="fill:url(#SVGID_29_);" d="M280.9,194.1c-0.7-0.9-0.3-2.1,0.6-2.7c0.2-0.2,0.4-0.3,0.6-0.4
						c0.4-0.4,0.4-0.9,0.3-1.4c-0.1-0.5-0.3-1.1,0.1-1.6c0.3-0.4,0.9-0.4,1.3-0.6c0.8-0.3,0.5-1.1,0.6-1.7c0-0.2,0.1-0.3,0.3-0.4
						c0.4-0.2,1-0.1,1.4-0.3c0.2-0.1,0.4-0.2,0.5-0.1c0.1,0,0.2,0.2,0.2,0.3c0.1,0.4,0,0.9,0.1,1.3c0.1,0.5,0.3,0.9,0.4,1.4
						c0.1,0.6,0,1.2-0.5,1.5c-0.2,0.1-0.5,0.2-0.8,0.3c-0.9,0.2-1,0.9-0.8,1.6c0.1,0.5,0.2,1-0.1,1.4c-0.2,0.2-0.4,0.3-0.6,0.4
						c-0.2,0.1-0.4,0.3-0.5,0.6c-0.1,0.4,0.4,1-0.2,1.3c-0.2,0.1-0.4,0.1-0.6,0.1C282.5,194.9,281.5,194.7,280.9,194.1
						C281,194.1,280.9,194.1,280.9,194.1z"/>
				</g>
				<g>
					<defs>
						<path id="SVGID_546_" d="M280.9,194.1c-0.7-0.9-0.3-2.1,0.6-2.7c0.2-0.2,0.4-0.3,0.6-0.4c0.4-0.4,0.4-0.9,0.3-1.4
							c-0.1-0.5-0.3-1.1,0.1-1.6c0.3-0.4,0.9-0.4,1.3-0.6c0.8-0.3,0.5-1.1,0.6-1.7c0-0.2,0.1-0.3,0.3-0.4c0.4-0.2,1-0.1,1.4-0.3
							c0.2-0.1,0.4-0.2,0.5-0.1c0.1,0,0.2,0.2,0.2,0.3c0.1,0.4,0,0.9,0.1,1.3c0.1,0.5,0.3,0.9,0.4,1.4c0.1,0.6,0,1.2-0.5,1.5
							c-0.2,0.1-0.5,0.2-0.8,0.3c-0.9,0.2-1,0.9-0.8,1.6c0.1,0.5,0.2,1-0.1,1.4c-0.2,0.2-0.4,0.3-0.6,0.4c-0.2,0.1-0.4,0.3-0.5,0.6
							c-0.1,0.4,0.4,1-0.2,1.3c-0.2,0.1-0.4,0.1-0.6,0.1C282.5,194.9,281.5,194.7,280.9,194.1C281,194.1,280.9,194.1,280.9,194.1z"
							/>
					</defs>
					<clipPath id="SVGID_30_">
						<use xlink:href="#SVGID_546_"  style="overflow:visible;"/>
					</clipPath>
					<path style="clip-path:url(#SVGID_30_);fill:none;stroke:#66F29E;stroke-width:0.116;stroke-miterlimit:10;" d="M286.7,184.8
						l-4.6,9.9 M282.3,194.2l3-1.1 M283.3,192.2l3.8-1.4 M287.8,188.6l-3.5,1.3 M285.4,187.5l2.8-1 M282.3,194.2l-1.2-2.8
						 M283.3,192.2l-1.5-3.5 M284.3,189.8l-1.4-3.2 M284.3,184.9l1.1,2.6"/>
				</g>
			</g>
			<path class="st22" d="M285.1,193.9c-1.2-1-2.8-0.7-4.3-0.9c-0.7-0.1-1.4-0.2-2-0.5c-1.3-0.8-2.1-1.4-3.5-0.3
				c-1.5,1.2-2.7,1.9-4,0.1c-1.2-1.7-1.7-3.6-4.2-3.9c-1.3-0.1-2.6,0.5-3.5,1.4c-0.7,0.8-0.7,1.9-1.2,2.7c-0.2,0.4-0.6,0.8-1.1,0.9
				c-0.7,0.2-1.4-0.1-2-0.5c-0.6-0.4-1.1-0.9-1.7-1.3c-1.3-0.7-2,0.1-2.7,1.1c-0.1,0.1-0.7,0.5-0.7,0.5c-0.6,0.2-1.2,0.1-1.8,0
				c-0.8-0.1-1.7-0.1-2.5,0.1c-0.4,0.1-0.8,0.2-1.2,0.5c-0.4,0.3-0.6,0.7-0.4,1c0,0.1,0.1,0.1,0.2,0.1c0.2,0.1,0.5,0,0.7,0
				c0.8,0,1.6,0,2.4,0c2.4,0,4.7,0,7.1,0c2.7,0,5.4,0,8.1,0c6,0,12,0,17.9,0c0.1,0,0.3,0,0.4-0.1
				C285.7,194.8,285.5,194.2,285.1,193.9C285.1,193.9,285.1,193.9,285.1,193.9z"/>
			<g>
				<defs>
					<path id="SVGID_548_" d="M285,194c-1.2-1-2.8-0.7-4.3-0.9c-0.7-0.1-1.4-0.2-2-0.5c-1.3-0.8-2.1-1.4-3.5-0.3
						c-1.5,1.2-2.7,1.9-4,0.1c-1.2-1.7-1.7-3.6-4.2-3.9c-1.3-0.1-2.6,0.5-3.5,1.4c-0.7,0.8-0.7,1.9-1.2,2.7
						c-0.2,0.4-0.6,0.8-1.1,0.9c-0.7,0.2-1.4-0.1-2-0.5c-0.6-0.4-1.1-0.9-1.7-1.3c-1.3-0.7-2,0.1-2.7,1.1c-0.1,0.1-0.7,0.5-0.7,0.5
						c-0.6,0.2-1.2,0.1-1.8,0c-0.8-0.1-1.7-0.1-2.5,0.1c-0.4,0.1-0.8,0.2-1.2,0.5c-0.4,0.3-0.6,0.7-0.4,1c0,0.1,0,0,0.1,0.1
						c0.2,0.1,0.6,0,0.8,0c0.8,0,1.7,0.1,2.5,0.1c2.4,0,4.7,0,7.1,0c2.7,0,5.4,0,8.1,0c6,0,12,0,17.9,0c0.1,0,0.3,0,0.4-0.1
						C285.6,194.8,285.4,194.3,285,194C285,194,285,194,285,194z"/>
				</defs>
				<clipPath id="SVGID_31_">
					<use xlink:href="#SVGID_548_"  style="overflow:visible;"/>
				</clipPath>
				<g style="clip-path:url(#SVGID_31_);">
					<path class="st21" d="M279.1,195.1c-1.7,0.4-3.5-1-4.2-2.6c-0.2-0.4-0.3-0.8-0.5-1.2c-0.4-0.8-1.3-1.2-2.1-1.4
						c-0.9-0.2-2-0.3-2.6-1.2c-0.5-0.6-0.4-1.4-0.5-2.1c-0.2-1.4-1.5-1.3-2.5-2c-0.3-0.2-0.5-0.4-0.6-0.7c-0.3-0.7,0.1-1.4,0-2.1
						c0-0.3-0.1-0.6,0.1-0.8c0.1-0.1,0.3-0.1,0.5-0.1c0.7,0.2,1.4,0.5,2.1,0.6c0.8,0.1,1.6,0.1,2.4,0.3c1,0.2,2,0.8,2.3,1.7
						c0.1,0.4,0.1,0.9,0.1,1.3c0,1.3,1.1,1.9,2.3,2.2c0.8,0.2,1.7,0.4,2.2,1.1c0.3,0.4,0.4,0.8,0.5,1.2c0.1,0.4,0.4,0.8,0.7,1
						c0.7,0.4,1.8,0.1,2,1.1c0.1,0.3,0,0.6,0,0.8C281,193.5,280.4,194.7,279.1,195.1C279.2,195.1,279.1,195.1,279.1,195.1z"/>
				</g>
			</g>
			<g>
				<g>
					
						<linearGradient id="SVGID_33_" gradientUnits="userSpaceOnUse" x1="-1316.2894" y1="186.5344" x2="-1324.5452" y2="185.0787" gradientTransform="matrix(1 0 0 1 1600.2025 0)">
						<stop  offset="0" style="stop-color:#66F29E"/>
						<stop  offset="0.148" style="stop-color:#74F5A2"/>
						<stop  offset="0.455" style="stop-color:#8AFBAA"/>
						<stop  offset="0.7455" style="stop-color:#98FEAE"/>
						<stop  offset="1" style="stop-color:#9DFFB0"/>
					</linearGradient>
					<path style="fill:url(#SVGID_33_);" d="M277.7,194.7c-1.6-1-1.9-3.2-1-4.7c0.2-0.4,0.5-0.7,0.6-1.1c0.4-0.8,0-1.7-0.5-2.4
						c-0.5-0.8-1.2-1.6-1-2.6c0.2-0.8,1-1.2,1.5-1.7c1-1.1,0-2-0.3-3.1c-0.1-0.3,0-0.6,0.1-0.9c0.4-0.6,1.3-0.8,1.9-1.3
						c0.2-0.2,0.4-0.5,0.7-0.5c0.2,0,0.4,0.1,0.5,0.3c0.4,0.6,0.6,1.3,1.1,1.9c0.5,0.7,1.1,1.2,1.5,1.9c0.5,0.8,0.8,2,0.3,2.8
						c-0.3,0.4-0.7,0.6-1,0.9c-1.1,0.9-0.8,2-0.1,3.1c0.5,0.7,1,1.5,0.8,2.3c-0.1,0.4-0.4,0.7-0.6,1.1c-0.2,0.4-0.4,0.8-0.3,1.2
						c0.2,0.7,1.3,1.3,0.6,2.2c-0.2,0.2-0.5,0.4-0.7,0.5C280.5,195.1,279,195.4,277.7,194.7C277.7,194.7,277.7,194.7,277.7,194.7z"
						/>
				</g>
				<g>
					<defs>
						<path id="SVGID_551_" d="M277.7,194.7c-1.6-1-1.9-3.2-1-4.7c0.2-0.4,0.5-0.7,0.6-1.1c0.4-0.8,0-1.7-0.5-2.4
							c-0.5-0.8-1.2-1.6-1-2.6c0.2-0.8,1-1.2,1.5-1.7c1-1.1,0-2-0.3-3.1c-0.1-0.3,0-0.6,0.1-0.9c0.4-0.6,1.3-0.8,1.9-1.3
							c0.2-0.2,0.4-0.5,0.7-0.5c0.2,0,0.4,0.1,0.5,0.3c0.4,0.6,0.6,1.3,1.1,1.9c0.5,0.7,1.1,1.2,1.5,1.9c0.5,0.8,0.8,2,0.3,2.8
							c-0.3,0.4-0.7,0.6-1,0.9c-1.1,0.9-0.8,2-0.1,3.1c0.5,0.7,1,1.5,0.8,2.3c-0.1,0.4-0.4,0.7-0.6,1.1c-0.2,0.4-0.4,0.8-0.3,1.2
							c0.2,0.7,1.3,1.3,0.6,2.2c-0.2,0.2-0.5,0.4-0.7,0.5C280.5,195.1,279,195.4,277.7,194.7C277.7,194.7,277.7,194.7,277.7,194.7z"
							/>
					</defs>
					<clipPath id="SVGID_34_">
						<use xlink:href="#SVGID_551_"  style="overflow:visible;"/>
					</clipPath>
					<path style="clip-path:url(#SVGID_34_);fill:none;stroke:#66F29E;stroke-width:0.116;stroke-miterlimit:10;" d="M279.8,176.4
						v18.7 M279.8,194l3.7-3.7 M279.8,190.2l4.6-4.6 M284,181.6l-4.2,4.2 M279.8,181.5l3.4-3.4 M279.8,194l-3.7-3.7 M279.8,190.2
						l-4.6-4.6 M279.8,185.9l-4.2-4.2 M276.3,178l3.4,3.4"/>
				</g>
			</g>
			<g>
				
					<linearGradient id="SVGID_35_" gradientUnits="userSpaceOnUse" x1="-1337.995" y1="195.0975" x2="-1337.995" y2="191.8764" gradientTransform="matrix(1 0 0 1 1600.2025 0)">
					<stop  offset="0" style="stop-color:#66F29E"/>
					<stop  offset="1" style="stop-color:#66F29E;stop-opacity:0"/>
				</linearGradient>
				
					<linearGradient id="SVGID_36_" gradientUnits="userSpaceOnUse" x1="-1345.2971" y1="193.4869" x2="-1330.8088" y2="193.4869" gradientTransform="matrix(1 0 0 1 1600.2025 0)">
					<stop  offset="0" style="stop-color:#FFFFFF;stop-opacity:0"/>
					<stop  offset="1" style="stop-color:#FFFFFF;stop-opacity:0"/>
				</linearGradient>
				<path style="fill:url(#SVGID_35_);stroke:url(#SVGID_36_);stroke-width:0.2321;stroke-miterlimit:10;" d="M255,195.1
					c-0.1,0,0.4-1.1,0.5-1.3c0.4-0.5,1-0.8,1.6-0.7c0.6,0,1.1,0.3,1.5,0.6c0.4,0.3,0.7,0.7,1.3,0.6c0.4-0.1,0.6-0.4,0.8-0.8
					c0.2-0.4,0.3-1,0.6-1.3c0.5-0.5,1.2-0.4,1.9-0.2c0.5,0.2,1.1,0.5,1.4,1c0.3,0.5,0.2,1.2,0.9,1.4c0.4,0.1,0.9-0.1,1-0.5
					c0.2-0.6-0.1-2,1-1.7c0.6,0.2,1.2,0.9,1.4,1.5c0.1,0.1,0.4,1.3,0.6,1.3C269.4,195.1,255.1,195.1,255,195.1z"/>
				
					<linearGradient id="SVGID_37_" gradientUnits="userSpaceOnUse" x1="-1340.4196" y1="195.0975" x2="-1340.4196" y2="190.2518" gradientTransform="matrix(1 0 0 1 1600.2025 0)">
					<stop  offset="0" style="stop-color:#66F29E"/>
					<stop  offset="1" style="stop-color:#66F29E;stop-opacity:0"/>
				</linearGradient>
				
					<linearGradient id="SVGID_38_" gradientUnits="userSpaceOnUse" x1="-1345.6851" y1="192.6747" x2="-1335.2703" y2="192.6747" gradientTransform="matrix(1 0 0 1 1600.2025 0)">
					<stop  offset="0" style="stop-color:#FFFFFF;stop-opacity:0"/>
					<stop  offset="1" style="stop-color:#FFFFFF;stop-opacity:0"/>
				</linearGradient>
				<path style="fill:url(#SVGID_37_);stroke:url(#SVGID_38_);stroke-width:0.2321;stroke-miterlimit:10;" d="M254.6,195.1
					c-0.1,0,0.3-1.7,0.3-1.9c0.3-0.7,0.7-1.1,1.2-1.1c0.4,0,0.8,0.4,1.1,0.9c0.3,0.4,0.5,1,0.9,0.9c0.3-0.1,0.4-0.6,0.5-1.1
					c0.1-0.6,0.2-1.4,0.5-1.9c0.3-0.7,0.9-0.6,1.3-0.3c0.4,0.3,0.8,0.7,1,1.4c0.2,0.8,0.1,1.8,0.6,2.2c0.3,0.2,0.6-0.1,0.7-0.7
					c0.2-0.8-0.1-3,0.7-2.5c0.4,0.3,0.8,1.4,1,2.2c0,0.2,0.3,2,0.4,2C264.9,195.1,254.7,195.1,254.6,195.1z"/>
				
					<linearGradient id="SVGID_39_" gradientUnits="userSpaceOnUse" x1="-1332.3606" y1="195.0975" x2="-1332.3606" y2="191.4148" gradientTransform="matrix(1 0 0 1 1600.2025 0)">
					<stop  offset="0" style="stop-color:#66F29E"/>
					<stop  offset="1" style="stop-color:#66F29E;stop-opacity:0"/>
				</linearGradient>
				
					<linearGradient id="SVGID_40_" gradientUnits="userSpaceOnUse" x1="-1334.6104" y1="193.2561" x2="-1330.2269" y2="193.2561" gradientTransform="matrix(1 0 0 1 1600.2025 0)">
					<stop  offset="0" style="stop-color:#FFFFFF;stop-opacity:0"/>
					<stop  offset="1" style="stop-color:#FFFFFF;stop-opacity:0"/>
				</linearGradient>
				<path style="fill:url(#SVGID_39_);stroke:url(#SVGID_40_);stroke-width:0.2321;stroke-miterlimit:10;" d="M265.7,195.1
					c0,0,0.1-1.3,0.1-1.4c0.1-0.6,0.3-0.9,0.5-0.8c0.2,0,0.3,0.3,0.5,0.7c0.1,0.3,0.2,0.8,0.4,0.7c0.1-0.1,0.2-0.5,0.2-0.9
					c0.1-0.5,0.1-1.1,0.2-1.5c0.1-0.5,0.4-0.4,0.6-0.2c0.2,0.2,0.3,0.5,0.4,1.1c0.1,0.6,0,1.4,0.3,1.6c0.1,0.1,0.3-0.1,0.3-0.5
					c0.1-0.6,0-2.3,0.3-1.9c0.2,0.2,0.3,1.1,0.4,1.7c0,0.2,0.1,1.5,0.2,1.5C270,195.1,265.7,195.1,265.7,195.1z"/>
				
					<linearGradient id="SVGID_41_" gradientUnits="userSpaceOnUse" x1="-1342.4471" y1="195.0975" x2="-1342.4471" y2="191.4148" gradientTransform="matrix(1 0 0 1 1600.2025 0)">
					<stop  offset="0" style="stop-color:#66F29E"/>
					<stop  offset="1" style="stop-color:#66F29E;stop-opacity:0"/>
				</linearGradient>
				
					<linearGradient id="SVGID_43_" gradientUnits="userSpaceOnUse" x1="-1344.6969" y1="193.2561" x2="-1340.3135" y2="193.2561" gradientTransform="matrix(1 0 0 1 1600.2025 0)">
					<stop  offset="0" style="stop-color:#FFFFFF;stop-opacity:0"/>
					<stop  offset="1" style="stop-color:#FFFFFF;stop-opacity:0"/>
				</linearGradient>
				<path style="fill:url(#SVGID_41_);stroke:url(#SVGID_43_);stroke-width:0.2321;stroke-miterlimit:10;" d="M255.6,195.1
					c0,0,0.1-1.3,0.1-1.4c0.1-0.6,0.3-0.9,0.5-0.8c0.2,0,0.3,0.3,0.5,0.7c0.1,0.3,0.2,0.8,0.4,0.7c0.1-0.1,0.2-0.5,0.2-0.9
					c0.1-0.5,0.1-1.1,0.2-1.5c0.1-0.5,0.4-0.4,0.6-0.2c0.2,0.2,0.3,0.5,0.4,1.1c0.1,0.6,0,1.4,0.3,1.6c0.1,0.1,0.3-0.1,0.3-0.5
					c0.1-0.6,0-2.3,0.3-1.9c0.2,0.2,0.3,1.1,0.4,1.7c0,0.2,0.1,1.5,0.2,1.5C259.9,195.1,255.6,195.1,255.6,195.1z"/>
			</g>
		</g>
	</g>
</g>
</svg>
