<?xml version="1.0" encoding="utf-8"?>
<!-- Generator: Adobe Illustrator 22.1.0, SVG Export Plug-In . SVG Version: 6.00 Build 0)  -->
<svg version="1.1" xmlns="http://www.w3.org/2000/svg" xmlns:xlink="http://www.w3.org/1999/xlink" x="0px" y="0px"
	 viewBox="0 0 710 916" style="enable-background:new 0 0 710 916;" xml:space="preserve">
<style type="text/css">
	.st0{clip-path:url(#SVGID_2_);}
	.st1{fill:#FFFFFF;}
	.st2{opacity:5.000000e-02;}
	.st3{fill:#3C6EF3;}
	.st4{fill:url(#SVGID_3_);}
	.st5{fill:url(#SVGID_4_);}
	.st6{clip-path:url(#SVGID_6_);fill:none;stroke:#2D2E82;stroke-width:0.2125;stroke-miterlimit:10;}
	.st7{clip-path:url(#SVGID_8_);}
	.st8{fill:#2D2E82;}
	.st9{fill:url(#SVGID_9_);}
	.st10{clip-path:url(#SVGID_11_);fill:none;stroke:#2D2E82;stroke-width:0.2125;stroke-miterlimit:10;}
	.st11{fill:url(#SVGID_12_);stroke:url(#SVGID_13_);stroke-width:0.425;stroke-miterlimit:10;}
	.st12{fill:url(#SVGID_14_);stroke:url(#SVGID_15_);stroke-width:0.425;stroke-miterlimit:10;}
	.st13{fill:url(#SVGID_16_);stroke:url(#SVGID_17_);stroke-width:0.425;stroke-miterlimit:10;}
	.st14{fill:url(#SVGID_18_);stroke:url(#SVGID_19_);stroke-width:0.425;stroke-miterlimit:10;}
	.st15{fill:url(#SVGID_20_);}
	.st16{clip-path:url(#SVGID_22_);fill:none;stroke:#2D2E82;stroke-width:0.2449;stroke-miterlimit:10;}
	.st17{clip-path:url(#SVGID_24_);}
	.st18{fill:url(#SVGID_25_);}
	.st19{clip-path:url(#SVGID_27_);fill:none;stroke:#2D2E82;stroke-width:0.2449;stroke-miterlimit:10;}
	.st20{fill:url(#SVGID_28_);stroke:url(#SVGID_29_);stroke-width:0.4898;stroke-miterlimit:10;}
	.st21{fill:url(#SVGID_30_);stroke:url(#SVGID_31_);stroke-width:0.4898;stroke-miterlimit:10;}
	.st22{fill:url(#SVGID_32_);stroke:url(#SVGID_33_);stroke-width:0.4898;stroke-miterlimit:10;}
	.st23{fill:url(#SVGID_34_);stroke:url(#SVGID_35_);stroke-width:0.4898;stroke-miterlimit:10;}
	.st24{fill:url(#SVGID_36_);}
	.st25{fill:url(#SVGID_37_);}
	.st26{fill:url(#SVGID_38_);}
	.st27{fill:url(#SVGID_39_);}
	.st28{fill:url(#SVGID_40_);}
	.st29{fill:url(#SVGID_41_);}
	.st30{fill:url(#SVGID_42_);}
	.st31{fill:url(#SVGID_43_);}
	.st32{fill:url(#SVGID_44_);}
	.st33{fill:url(#SVGID_45_);}
	.st34{fill:url(#SVGID_46_);stroke:url(#SVGID_47_);stroke-width:1.1339;stroke-miterlimit:10;}
	.st35{fill:url(#SVGID_48_);stroke:url(#SVGID_49_);stroke-width:1.1339;stroke-miterlimit:10;}
	.st36{fill:url(#SVGID_50_);stroke:url(#SVGID_51_);stroke-width:1.1339;stroke-miterlimit:10;}
	.st37{fill:url(#SVGID_52_);stroke:url(#SVGID_53_);stroke-width:1.1339;stroke-miterlimit:10;}
	.st38{fill:#9DFFB0;}
	.st39{fill:#66F29E;}
	.st40{fill:url(#SVGID_54_);}
	.st41{fill:url(#SVGID_55_);}
	.st42{fill:#E5007D;}
	.st43{fill:url(#SVGID_56_);}
	.st44{fill:url(#SVGID_57_);}
	.st45{fill:url(#SVGID_58_);}
	.st46{fill:url(#SVGID_59_);}
	.st47{fill:url(#SVGID_60_);}
	.st48{fill:#69DFFF;}
	.st49{fill:url(#SVGID_61_);}
	.st50{fill:url(#SVGID_62_);}
	.st51{fill:url(#SVGID_63_);}
	.st52{fill:url(#SVGID_64_);stroke:url(#SVGID_65_);stroke-width:1.254;stroke-miterlimit:10;}
	.st53{fill:url(#SVGID_66_);stroke:url(#SVGID_67_);stroke-width:1.254;stroke-miterlimit:10;}
	.st54{fill:url(#SVGID_68_);stroke:url(#SVGID_69_);stroke-width:1.254;stroke-miterlimit:10;}
	.st55{fill:url(#SVGID_70_);stroke:url(#SVGID_71_);stroke-width:1.254;stroke-miterlimit:10;}
	.st56{fill:url(#SVGID_74_);}
	.st57{fill:url(#SVGID_75_);}
	.st58{fill:url(#SVGID_76_);}
	.st59{fill:url(#SVGID_77_);}
	.st60{fill:url(#SVGID_78_);}
	.st61{fill:url(#SVGID_79_);}
	.st62{fill:url(#SVGID_80_);}
	.st63{fill:url(#SVGID_81_);}
	.st64{fill:url(#SVGID_82_);}
	.st65{fill:url(#SVGID_83_);}
	.st66{fill:url(#SVGID_84_);}
	.st67{fill:url(#SVGID_85_);}
	.st68{fill:url(#SVGID_86_);}
	.st69{fill:url(#SVGID_87_);}
	.st70{fill:url(#SVGID_88_);}
	.st71{fill:url(#SVGID_89_);stroke:url(#SVGID_90_);stroke-width:1.7703;stroke-miterlimit:10;}
	.st72{fill:url(#SVGID_91_);stroke:url(#SVGID_92_);stroke-width:1.7703;stroke-miterlimit:10;}
	.st73{fill:url(#SVGID_93_);stroke:url(#SVGID_94_);stroke-width:1.7703;stroke-miterlimit:10;}
	.st74{fill:url(#SVGID_95_);stroke:url(#SVGID_96_);stroke-width:1.7703;stroke-miterlimit:10;}
	.st75{clip-path:url(#SVGID_98_);fill:#2D2E82;}
	.st76{fill:#2E2E82;}
	.st77{fill:url(#SVGID_99_);}
	.st78{fill:url(#SVGID_100_);}
	.st79{fill:url(#SVGID_101_);}
	.st80{opacity:0.6;fill:url(#SVGID_102_);}
	.st81{opacity:0.6;fill:url(#SVGID_103_);}
	.st82{fill:#BED4F4;}
	.st83{fill:#FA5D7A;}
	.st84{fill:#6941E8;}
	.st85{fill:url(#SVGID_104_);}
	.st86{clip-path:url(#SVGID_106_);fill:none;stroke:#2D2E82;stroke-width:0.3563;stroke-miterlimit:10;}
	.st87{clip-path:url(#SVGID_108_);}
	.st88{fill:url(#SVGID_109_);}
	.st89{clip-path:url(#SVGID_111_);fill:none;stroke:#2D2E82;stroke-width:0.3563;stroke-miterlimit:10;}
	.st90{fill:url(#SVGID_112_);stroke:url(#SVGID_113_);stroke-width:0.7126;stroke-miterlimit:10;}
	.st91{fill:url(#SVGID_114_);stroke:url(#SVGID_115_);stroke-width:0.7126;stroke-miterlimit:10;}
	.st92{fill:url(#SVGID_116_);stroke:url(#SVGID_117_);stroke-width:0.7126;stroke-miterlimit:10;}
	.st93{fill:url(#SVGID_118_);stroke:url(#SVGID_119_);stroke-width:0.7126;stroke-miterlimit:10;}
	.st94{opacity:0.2;fill:url(#SVGID_120_);enable-background:new    ;}
	.st95{fill:url(#SVGID_121_);}
	.st96{fill:url(#SVGID_122_);}
	.st97{fill:url(#SVGID_123_);}
	.st98{opacity:0.6;fill:url(#SVGID_124_);}
	.st99{opacity:0.6;fill:url(#SVGID_125_);}
	.st100{opacity:0.2;fill:url(#SVGID_126_);enable-background:new    ;}
	.st101{fill:url(#SVGID_127_);}
	.st102{clip-path:url(#SVGID_129_);fill:url(#SVGID_130_);}
	.st103{clip-path:url(#SVGID_129_);fill:url(#SVGID_131_);}
	.st104{opacity:0.2;fill:url(#SVGID_132_);enable-background:new    ;}
	.st105{fill:url(#SVGID_133_);}
	.st106{clip-path:url(#SVGID_135_);fill:url(#SVGID_136_);}
	.st107{clip-path:url(#SVGID_135_);fill:url(#SVGID_137_);}
	.st108{fill:url(#SVGID_138_);}
	.st109{clip-path:url(#SVGID_140_);fill:none;stroke:#66F29E;stroke-width:0.4077;stroke-miterlimit:10;}
	.st110{clip-path:url(#SVGID_142_);}
	.st111{fill:url(#SVGID_143_);}
	.st112{clip-path:url(#SVGID_145_);fill:none;stroke:#66F29E;stroke-width:0.4077;stroke-miterlimit:10;}
	.st113{fill:url(#SVGID_146_);stroke:url(#SVGID_147_);stroke-width:0.8154;stroke-miterlimit:10;}
	.st114{fill:url(#SVGID_148_);stroke:url(#SVGID_149_);stroke-width:0.8154;stroke-miterlimit:10;}
	.st115{fill:url(#SVGID_150_);stroke:url(#SVGID_151_);stroke-width:0.8154;stroke-miterlimit:10;}
	.st116{fill:url(#SVGID_152_);stroke:url(#SVGID_153_);stroke-width:0.8154;stroke-miterlimit:10;}
	.st117{fill:url(#SVGID_154_);}
	.st118{clip-path:url(#SVGID_156_);fill:none;stroke:#E5007D;stroke-width:0.32;stroke-miterlimit:10;}
	.st119{clip-path:url(#SVGID_158_);}
	.st120{fill:url(#SVGID_159_);}
	.st121{fill:url(#SVGID_160_);}
	.st122{clip-path:url(#SVGID_162_);fill:none;stroke:#E5007D;stroke-width:0.32;stroke-miterlimit:10;}
	.st123{fill:url(#SVGID_163_);stroke:url(#SVGID_164_);stroke-width:0.64;stroke-miterlimit:10;}
	.st124{fill:url(#SVGID_165_);stroke:url(#SVGID_166_);stroke-width:0.64;stroke-miterlimit:10;}
	.st125{fill:url(#SVGID_167_);stroke:url(#SVGID_168_);stroke-width:0.64;stroke-miterlimit:10;}
	.st126{fill:url(#SVGID_169_);stroke:url(#SVGID_170_);stroke-width:0.64;stroke-miterlimit:10;}
	.st127{fill:url(#SVGID_171_);}
	.st128{clip-path:url(#SVGID_173_);fill:none;stroke:#E5007D;stroke-width:0.255;stroke-miterlimit:10;}
	.st129{clip-path:url(#SVGID_175_);}
	.st130{fill:url(#SVGID_176_);}
	.st131{fill:url(#SVGID_177_);}
	.st132{clip-path:url(#SVGID_179_);fill:none;stroke:#E5007D;stroke-width:0.255;stroke-miterlimit:10;}
	.st133{fill:url(#SVGID_180_);stroke:url(#SVGID_181_);stroke-width:0.51;stroke-miterlimit:10;}
	.st134{fill:url(#SVGID_182_);stroke:url(#SVGID_183_);stroke-width:0.51;stroke-miterlimit:10;}
	.st135{fill:url(#SVGID_184_);stroke:url(#SVGID_185_);stroke-width:0.51;stroke-miterlimit:10;}
	.st136{fill:url(#SVGID_186_);stroke:url(#SVGID_187_);stroke-width:0.51;stroke-miterlimit:10;}
	.st137{fill:url(#SVGID_188_);}
	.st138{clip-path:url(#SVGID_190_);fill:none;stroke:#66F29E;stroke-width:0.116;stroke-miterlimit:10;}
	.st139{clip-path:url(#SVGID_192_);}
	.st140{fill:url(#SVGID_193_);}
	.st141{clip-path:url(#SVGID_195_);fill:none;stroke:#66F29E;stroke-width:0.116;stroke-miterlimit:10;}
	.st142{fill:url(#SVGID_196_);stroke:url(#SVGID_197_);stroke-width:0.2321;stroke-miterlimit:10;}
	.st143{fill:url(#SVGID_198_);stroke:url(#SVGID_199_);stroke-width:0.2321;stroke-miterlimit:10;}
	.st144{fill:url(#SVGID_200_);stroke:url(#SVGID_201_);stroke-width:0.2321;stroke-miterlimit:10;}
	.st145{fill:url(#SVGID_202_);stroke:url(#SVGID_203_);stroke-width:0.2321;stroke-miterlimit:10;}
	.st146{fill:url(#SVGID_204_);}
	.st147{clip-path:url(#SVGID_206_);fill:none;stroke:#66F29E;stroke-width:0.2286;stroke-miterlimit:10;}
	.st148{clip-path:url(#SVGID_208_);}
	.st149{fill:url(#SVGID_209_);}
	.st150{clip-path:url(#SVGID_211_);fill:none;stroke:#66F29E;stroke-width:0.2286;stroke-miterlimit:10;}
	.st151{fill:url(#SVGID_212_);stroke:url(#SVGID_213_);stroke-width:0.4573;stroke-miterlimit:10;}
	.st152{fill:url(#SVGID_214_);stroke:url(#SVGID_215_);stroke-width:0.4573;stroke-miterlimit:10;}
	.st153{fill:url(#SVGID_216_);stroke:url(#SVGID_217_);stroke-width:0.4573;stroke-miterlimit:10;}
	.st154{fill:url(#SVGID_218_);stroke:url(#SVGID_219_);stroke-width:0.4573;stroke-miterlimit:10;}
	.st155{opacity:5.000000e-02;fill:#3C6EF3;}
	.st156{fill:url(#SVGID_220_);}
	.st157{fill:none;stroke:#69DFFF;stroke-width:2.8518;stroke-linecap:round;stroke-miterlimit:10;}
	.st158{fill:url(#SVGID_221_);}
	.st159{fill:url(#SVGID_222_);}
	.st160{clip-path:url(#SVGID_224_);fill:none;stroke:#2D2E82;stroke-width:0.3406;stroke-miterlimit:10;}
	.st161{clip-path:url(#SVGID_226_);}
	.st162{fill:url(#SVGID_227_);}
	.st163{clip-path:url(#SVGID_229_);fill:none;stroke:#2D2E82;stroke-width:0.3406;stroke-miterlimit:10;}
	.st164{fill:url(#SVGID_230_);stroke:url(#SVGID_231_);stroke-width:0.6812;stroke-miterlimit:10;}
	.st165{fill:url(#SVGID_232_);stroke:url(#SVGID_233_);stroke-width:0.6812;stroke-miterlimit:10;}
	.st166{fill:url(#SVGID_234_);stroke:url(#SVGID_235_);stroke-width:0.6812;stroke-miterlimit:10;}
	.st167{fill:url(#SVGID_236_);stroke:url(#SVGID_237_);stroke-width:0.6812;stroke-miterlimit:10;}
	.st168{opacity:0.2;fill:url(#SVGID_238_);enable-background:new    ;}
	.st169{opacity:0.2;fill:url(#SVGID_239_);enable-background:new    ;}
	.st170{clip-path:url(#SVGID_241_);}
	.st171{fill:none;stroke:#2D2E82;stroke-width:2;stroke-linecap:round;stroke-miterlimit:10;}
	.st172{fill:#3438C2;}
	.st173{fill:url(#SVGID_242_);}
	.st174{clip-path:url(#SVGID_244_);fill:none;stroke:#E5007D;stroke-width:1.6778;stroke-miterlimit:10;}
	.st175{clip-path:url(#SVGID_246_);}
	.st176{fill:url(#SVGID_247_);}
	.st177{fill:url(#SVGID_248_);}
	.st178{clip-path:url(#SVGID_250_);fill:none;stroke:#E5007D;stroke-width:1.6778;stroke-miterlimit:10;}
	.st179{fill:url(#SVGID_251_);stroke:url(#SVGID_252_);stroke-width:3.3556;stroke-miterlimit:10;}
	.st180{fill:url(#SVGID_253_);stroke:url(#SVGID_254_);stroke-width:3.3556;stroke-miterlimit:10;}
	.st181{fill:url(#SVGID_255_);stroke:url(#SVGID_256_);stroke-width:3.3556;stroke-miterlimit:10;}
	.st182{fill:url(#SVGID_257_);stroke:url(#SVGID_258_);stroke-width:3.3556;stroke-miterlimit:10;}
	.st183{clip-path:url(#SVGID_260_);fill:#FFFFFF;}
	.st184{clip-path:url(#SVGID_260_);}
	.st185{fill:url(#SVGID_261_);}
	.st186{fill:url(#SVGID_262_);}
	.st187{fill:url(#SVGID_263_);}
	.st188{fill:url(#SVGID_264_);}
	.st189{fill:url(#SVGID_265_);}
	.st190{fill:url(#SVGID_266_);}
	.st191{fill:url(#SVGID_267_);}
	.st192{clip-path:url(#SVGID_269_);fill:none;stroke:#2D2E82;stroke-width:0.8939;stroke-miterlimit:10;}
	.st193{clip-path:url(#SVGID_271_);}
	.st194{fill:url(#SVGID_272_);}
	.st195{clip-path:url(#SVGID_274_);fill:none;stroke:#E5007D;stroke-width:0.8939;stroke-miterlimit:10;}
	.st196{fill:url(#SVGID_275_);stroke:url(#SVGID_276_);stroke-width:1.7878;stroke-miterlimit:10;}
	.st197{fill:url(#SVGID_277_);stroke:url(#SVGID_278_);stroke-width:1.7878;stroke-miterlimit:10;}
	.st198{fill:url(#SVGID_279_);stroke:url(#SVGID_280_);stroke-width:1.7878;stroke-miterlimit:10;}
	.st199{fill:url(#SVGID_281_);stroke:url(#SVGID_282_);stroke-width:1.7878;stroke-miterlimit:10;}
	.st200{fill:url(#SVGID_283_);}
	.st201{clip-path:url(#SVGID_285_);fill:none;stroke:#E5007D;stroke-width:0.1538;stroke-miterlimit:10;}
	.st202{clip-path:url(#SVGID_287_);}
	.st203{fill:url(#SVGID_288_);}
	.st204{clip-path:url(#SVGID_290_);fill:none;stroke:#E5007D;stroke-width:0.1538;stroke-miterlimit:10;}
	.st205{fill:url(#SVGID_291_);stroke:url(#SVGID_292_);stroke-width:0.3076;stroke-miterlimit:10;}
	.st206{fill:url(#SVGID_293_);stroke:url(#SVGID_294_);stroke-width:0.3076;stroke-miterlimit:10;}
	.st207{fill:url(#SVGID_295_);stroke:url(#SVGID_296_);stroke-width:0.3076;stroke-miterlimit:10;}
	.st208{fill:url(#SVGID_297_);stroke:url(#SVGID_298_);stroke-width:0.3076;stroke-miterlimit:10;}
	.st209{fill:url(#SVGID_299_);}
	.st210{clip-path:url(#SVGID_301_);fill:none;stroke:#66F29E;stroke-width:0.3988;stroke-miterlimit:10;}
	.st211{clip-path:url(#SVGID_303_);}
	.st212{fill:url(#SVGID_304_);}
	.st213{clip-path:url(#SVGID_306_);fill:none;stroke:#66F29E;stroke-width:0.3988;stroke-miterlimit:10;}
	.st214{fill:url(#SVGID_307_);stroke:url(#SVGID_308_);stroke-width:0.7975;stroke-miterlimit:10;}
	.st215{fill:url(#SVGID_309_);stroke:url(#SVGID_310_);stroke-width:0.7975;stroke-miterlimit:10;}
	.st216{fill:url(#SVGID_311_);stroke:url(#SVGID_312_);stroke-width:0.7975;stroke-miterlimit:10;}
	.st217{fill:url(#SVGID_313_);stroke:url(#SVGID_314_);stroke-width:0.7975;stroke-miterlimit:10;}
	.st218{fill:url(#SVGID_315_);}
	.st219{clip-path:url(#SVGID_317_);fill:none;stroke:#66F29E;stroke-width:0.1947;stroke-miterlimit:10;}
	.st220{clip-path:url(#SVGID_319_);}
	.st221{fill:url(#SVGID_320_);}
	.st222{clip-path:url(#SVGID_322_);fill:none;stroke:#66F29E;stroke-width:0.1947;stroke-miterlimit:10;}
	.st223{fill:url(#SVGID_323_);stroke:url(#SVGID_324_);stroke-width:0.3894;stroke-miterlimit:10;}
	.st224{fill:url(#SVGID_325_);stroke:url(#SVGID_326_);stroke-width:0.3894;stroke-miterlimit:10;}
	.st225{fill:url(#SVGID_327_);stroke:url(#SVGID_328_);stroke-width:0.3894;stroke-miterlimit:10;}
	.st226{fill:url(#SVGID_329_);stroke:url(#SVGID_330_);stroke-width:0.3894;stroke-miterlimit:10;}
	.st227{fill:url(#SVGID_331_);}
	.st228{clip-path:url(#SVGID_333_);fill:none;stroke:#E5007D;stroke-width:0.216;stroke-miterlimit:10;}
	.st229{clip-path:url(#SVGID_335_);}
	.st230{fill:url(#SVGID_336_);}
	.st231{clip-path:url(#SVGID_338_);fill:none;stroke:#E5007D;stroke-width:0.216;stroke-miterlimit:10;}
	.st232{fill:url(#SVGID_339_);stroke:url(#SVGID_340_);stroke-width:0.432;stroke-miterlimit:10;}
	.st233{fill:url(#SVGID_341_);stroke:url(#SVGID_342_);stroke-width:0.432;stroke-miterlimit:10;}
	.st234{fill:url(#SVGID_343_);stroke:url(#SVGID_344_);stroke-width:0.432;stroke-miterlimit:10;}
	.st235{fill:url(#SVGID_345_);stroke:url(#SVGID_346_);stroke-width:0.432;stroke-miterlimit:10;}
	.st236{opacity:0.2;fill:url(#SVGID_347_);enable-background:new    ;}
	.st237{fill:url(#SVGID_348_);}
	.st238{clip-path:url(#SVGID_350_);fill:url(#SVGID_351_);}
	.st239{clip-path:url(#SVGID_350_);fill:url(#SVGID_352_);}
	.st240{opacity:0.2;fill:url(#SVGID_353_);enable-background:new    ;}
	.st241{fill:url(#SVGID_354_);}
	.st242{clip-path:url(#SVGID_356_);fill:url(#SVGID_357_);}
	.st243{clip-path:url(#SVGID_356_);fill:url(#SVGID_358_);}
	.st244{fill:url(#SVGID_359_);}
	.st245{clip-path:url(#SVGID_361_);fill:none;stroke:#E5007D;stroke-width:0.8388;stroke-miterlimit:10;}
	.st246{clip-path:url(#SVGID_363_);}
	.st247{fill:url(#SVGID_364_);}
	.st248{clip-path:url(#SVGID_366_);fill:none;stroke:#E5007D;stroke-width:0.8388;stroke-miterlimit:10;}
	.st249{fill:url(#SVGID_367_);stroke:url(#SVGID_368_);stroke-width:1.6777;stroke-miterlimit:10;}
	.st250{fill:url(#SVGID_369_);stroke:url(#SVGID_370_);stroke-width:1.6777;stroke-miterlimit:10;}
	.st251{fill:url(#SVGID_371_);stroke:url(#SVGID_372_);stroke-width:1.6777;stroke-miterlimit:10;}
	.st252{fill:url(#SVGID_373_);stroke:url(#SVGID_374_);stroke-width:1.6777;stroke-miterlimit:10;}
	.st253{opacity:0.2;fill:url(#SVGID_375_);enable-background:new    ;}
	.st254{fill:url(#SVGID_376_);stroke:url(#SVGID_377_);stroke-width:0.551;stroke-miterlimit:10;}
	.st255{fill:url(#SVGID_378_);stroke:url(#SVGID_379_);stroke-width:0.551;stroke-miterlimit:10;}
	.st256{fill:url(#SVGID_380_);stroke:url(#SVGID_381_);stroke-width:0.551;stroke-miterlimit:10;}
	.st257{fill:url(#SVGID_382_);stroke:url(#SVGID_383_);stroke-width:0.551;stroke-miterlimit:10;}
	.st258{fill:url(#SVGID_384_);}
	.st259{fill:url(#SVGID_385_);}
	.st260{fill:url(#SVGID_386_);}
	.st261{fill:url(#SVGID_387_);}
	.st262{fill:url(#SVGID_388_);}
	.st263{fill:#9CC1E5;}
	.st264{fill:url(#SVGID_389_);}
	.st265{clip-path:url(#SVGID_391_);fill:none;stroke:#2D2E82;stroke-width:0.2108;stroke-miterlimit:10;}
	.st266{clip-path:url(#SVGID_393_);}
	.st267{fill:url(#SVGID_394_);}
	.st268{clip-path:url(#SVGID_396_);fill:none;stroke:#2D2E82;stroke-width:0.2108;stroke-miterlimit:10;}
	.st269{fill:url(#SVGID_397_);stroke:url(#SVGID_398_);stroke-width:0.4216;stroke-miterlimit:10;}
	.st270{fill:url(#SVGID_399_);stroke:url(#SVGID_400_);stroke-width:0.4216;stroke-miterlimit:10;}
	.st271{fill:url(#SVGID_401_);stroke:url(#SVGID_402_);stroke-width:0.4216;stroke-miterlimit:10;}
	.st272{fill:url(#SVGID_403_);stroke:url(#SVGID_404_);stroke-width:0.4216;stroke-miterlimit:10;}
	.st273{opacity:0.3;enable-background:new    ;}
	.st274{opacity:0.2;fill:url(#SVGID_405_);enable-background:new    ;}
	.st275{opacity:0.2;fill:url(#SVGID_406_);enable-background:new    ;}
	.st276{opacity:0.2;fill:url(#SVGID_407_);enable-background:new    ;}
	.st277{fill:#DCE7F9;}
	.st278{opacity:0.2;fill:url(#SVGID_408_);enable-background:new    ;}
	.st279{opacity:0.7;fill:#B3CBF4;}
	.st280{fill:url(#SVGID_409_);}
	.st281{fill:url(#SVGID_410_);}
	.st282{fill:url(#SVGID_411_);}
	.st283{fill:url(#SVGID_412_);}
	.st284{fill:url(#SVGID_413_);}
	.st285{fill:url(#SVGID_414_);stroke:url(#SVGID_415_);stroke-width:0.7765;stroke-miterlimit:10;}
	.st286{fill:url(#SVGID_416_);stroke:url(#SVGID_417_);stroke-width:0.7765;stroke-miterlimit:10;}
	.st287{fill:url(#SVGID_418_);stroke:url(#SVGID_419_);stroke-width:0.7765;stroke-miterlimit:10;}
	.st288{fill:url(#SVGID_420_);stroke:url(#SVGID_421_);stroke-width:0.7765;stroke-miterlimit:10;}
	.st289{fill:url(#SVGID_422_);}
	.st290{clip-path:url(#SVGID_424_);fill:none;stroke:#2D2E82;stroke-width:0.19;stroke-miterlimit:10;}
	.st291{clip-path:url(#SVGID_426_);}
	.st292{fill:url(#SVGID_427_);}
	.st293{clip-path:url(#SVGID_429_);fill:none;stroke:#2D2E82;stroke-width:0.19;stroke-miterlimit:10;}
	.st294{fill:url(#SVGID_430_);stroke:url(#SVGID_431_);stroke-width:0.3801;stroke-miterlimit:10;}
	.st295{fill:url(#SVGID_432_);stroke:url(#SVGID_433_);stroke-width:0.3801;stroke-miterlimit:10;}
	.st296{fill:url(#SVGID_434_);stroke:url(#SVGID_435_);stroke-width:0.3801;stroke-miterlimit:10;}
	.st297{fill:url(#SVGID_436_);stroke:url(#SVGID_437_);stroke-width:0.3801;stroke-miterlimit:10;}
	.st298{fill:url(#SVGID_438_);}
	.st299{clip-path:url(#SVGID_440_);fill:none;stroke:#E5007D;stroke-width:9.352224e-02;stroke-miterlimit:10;}
	.st300{clip-path:url(#SVGID_442_);}
	.st301{fill:url(#SVGID_443_);}
	.st302{fill:url(#SVGID_444_);}
	.st303{clip-path:url(#SVGID_446_);fill:none;stroke:#E5007D;stroke-width:9.352224e-02;stroke-miterlimit:10;}
	.st304{fill:url(#SVGID_447_);stroke:url(#SVGID_448_);stroke-width:0.187;stroke-miterlimit:10;}
	.st305{fill:url(#SVGID_449_);stroke:url(#SVGID_450_);stroke-width:0.187;stroke-miterlimit:10;}
	.st306{fill:url(#SVGID_451_);stroke:url(#SVGID_452_);stroke-width:0.187;stroke-miterlimit:10;}
	.st307{fill:url(#SVGID_453_);stroke:url(#SVGID_454_);stroke-width:0.187;stroke-miterlimit:10;}
	.st308{opacity:0.4;fill:#B3CBF4;}
	.st309{opacity:0.4;fill:#FFFFFF;}
	.st310{opacity:0.2;fill:url(#SVGID_455_);enable-background:new    ;}
	.st311{fill:#B3CBF4;}
	.st312{fill:none;stroke:#2D2E82;stroke-width:1.6158;stroke-linecap:round;stroke-miterlimit:10;}
	.st313{opacity:0.2;fill:url(#SVGID_456_);enable-background:new    ;}
	.st314{fill:url(#SVGID_457_);stroke:url(#SVGID_458_);stroke-width:0.9775;stroke-miterlimit:10;}
	.st315{opacity:0.2;fill:url(#SVGID_459_);enable-background:new    ;}
	.st316{opacity:0.2;fill:url(#SVGID_460_);enable-background:new    ;}
	.st317{fill:url(#SVGID_461_);}
	.st318{fill:url(#SVGID_462_);}
	.st319{clip-path:url(#SVGID_464_);fill:none;stroke:#2D2E82;stroke-width:0.1151;stroke-miterlimit:10;}
	.st320{clip-path:url(#SVGID_466_);}
	.st321{fill:url(#SVGID_467_);}
	.st322{clip-path:url(#SVGID_469_);fill:none;stroke:#2D2E82;stroke-width:0.1151;stroke-miterlimit:10;}
	.st323{fill:url(#SVGID_470_);stroke:url(#SVGID_471_);stroke-width:0.2302;stroke-miterlimit:10;}
	.st324{fill:url(#SVGID_472_);stroke:url(#SVGID_473_);stroke-width:0.2302;stroke-miterlimit:10;}
	.st325{fill:url(#SVGID_474_);stroke:url(#SVGID_475_);stroke-width:0.2302;stroke-miterlimit:10;}
	.st326{fill:url(#SVGID_476_);stroke:url(#SVGID_477_);stroke-width:0.2302;stroke-miterlimit:10;}
	.st327{opacity:0.2;fill:url(#SVGID_478_);enable-background:new    ;}
	.st328{opacity:0.2;fill:url(#SVGID_479_);enable-background:new    ;}
	.st329{opacity:0.2;fill:url(#SVGID_480_);enable-background:new    ;}
	.st330{fill:url(#SVGID_481_);}
	.st331{clip-path:url(#SVGID_483_);fill:none;stroke:#66F29E;stroke-width:0.116;stroke-miterlimit:10;}
	.st332{clip-path:url(#SVGID_485_);}
	.st333{fill:url(#SVGID_486_);}
	.st334{clip-path:url(#SVGID_488_);fill:none;stroke:#66F29E;stroke-width:0.116;stroke-miterlimit:10;}
	.st335{fill:url(#SVGID_489_);stroke:url(#SVGID_490_);stroke-width:0.2321;stroke-miterlimit:10;}
	.st336{fill:url(#SVGID_491_);stroke:url(#SVGID_492_);stroke-width:0.2321;stroke-miterlimit:10;}
	.st337{fill:url(#SVGID_493_);stroke:url(#SVGID_494_);stroke-width:0.2321;stroke-miterlimit:10;}
	.st338{fill:url(#SVGID_495_);stroke:url(#SVGID_496_);stroke-width:0.2321;stroke-miterlimit:10;}
	.st339{fill:url(#SVGID_497_);stroke:url(#SVGID_498_);stroke-miterlimit:10;}
	.st340{opacity:0.2;fill:url(#SVGID_499_);enable-background:new    ;}
	.st341{opacity:0.2;fill:url(#SVGID_500_);enable-background:new    ;}
	.st342{opacity:0.2;fill:url(#SVGID_501_);enable-background:new    ;}
	.st343{fill:url(#SVGID_502_);}
	.st344{clip-path:url(#SVGID_504_);fill:url(#SVGID_505_);}
	.st345{clip-path:url(#SVGID_504_);fill:url(#SVGID_506_);}
	.st346{fill:url(#SVGID_507_);}
	.st347{clip-path:url(#SVGID_509_);fill:none;stroke:#2D2E82;stroke-width:0.1346;stroke-miterlimit:10;}
	.st348{clip-path:url(#SVGID_511_);}
	.st349{fill:url(#SVGID_512_);}
	.st350{clip-path:url(#SVGID_514_);fill:none;stroke:#2D2E82;stroke-width:0.1346;stroke-miterlimit:10;}
	.st351{fill:url(#SVGID_515_);stroke:url(#SVGID_516_);stroke-width:0.2691;stroke-miterlimit:10;}
	.st352{fill:url(#SVGID_517_);stroke:url(#SVGID_518_);stroke-width:0.2691;stroke-miterlimit:10;}
	.st353{fill:url(#SVGID_519_);stroke:url(#SVGID_520_);stroke-width:0.2691;stroke-miterlimit:10;}
	.st354{fill:url(#SVGID_521_);stroke:url(#SVGID_522_);stroke-width:0.2691;stroke-miterlimit:10;}
	.st355{fill:url(#SVGID_523_);stroke:url(#SVGID_524_);stroke-width:0.3233;stroke-miterlimit:10;}
	.st356{fill:url(#SVGID_525_);stroke:url(#SVGID_526_);stroke-width:0.3233;stroke-miterlimit:10;}
	.st357{fill:url(#SVGID_527_);stroke:url(#SVGID_528_);stroke-width:0.3233;stroke-miterlimit:10;}
	.st358{fill:url(#SVGID_529_);stroke:url(#SVGID_530_);stroke-width:0.3233;stroke-miterlimit:10;}
	.st359{fill:url(#SVGID_531_);}
	.st360{fill:url(#SVGID_532_);}
	.st361{fill:url(#SVGID_533_);}
	.st362{fill:url(#SVGID_534_);}
	.st363{fill:url(#SVGID_535_);}
	.st364{opacity:0.2;fill:url(#SVGID_536_);enable-background:new    ;}
	.st365{fill:url(#SVGID_537_);}
	.st366{fill:url(#SVGID_538_);}
	.st367{fill:url(#SVGID_539_);}
	.st368{fill:url(#SVGID_540_);}
	.st369{clip-path:url(#SVGID_542_);fill:none;stroke:#E5007D;stroke-width:0.2538;stroke-miterlimit:10;}
	.st370{clip-path:url(#SVGID_544_);}
	.st371{fill:url(#SVGID_545_);}
	.st372{fill:url(#SVGID_546_);}
	.st373{clip-path:url(#SVGID_548_);fill:none;stroke:#E5007D;stroke-width:0.2538;stroke-miterlimit:10;}
	.st374{fill:url(#SVGID_549_);stroke:url(#SVGID_550_);stroke-width:0.5076;stroke-miterlimit:10;}
	.st375{fill:url(#SVGID_551_);stroke:url(#SVGID_552_);stroke-width:0.5076;stroke-miterlimit:10;}
	.st376{fill:url(#SVGID_553_);stroke:url(#SVGID_554_);stroke-width:0.5076;stroke-miterlimit:10;}
	.st377{fill:url(#SVGID_555_);stroke:url(#SVGID_556_);stroke-width:0.5076;stroke-miterlimit:10;}
</style>
<g id="FINAL_V2">
</g>
<g id="_x23_6">
	<g>
		<path class="st155" d="M245.9,63.1c-2.2,2.2-3.6,5.3-3.6,8.7c0,6.8,5.5,12.3,12.3,12.3h46.9c6.8,0,12.3,5.5,12.3,12.3
			c0,3.4-1.4,6.4-3.6,8.7c-2.2,2.2-5.3,3.6-8.7,3.6h-120c-3.4,0-6.4,1.4-8.7,3.6c-2.2,2.2-3.6,5.3-3.6,8.7c0,6.8,5.5,12.3,12.3,12.3
			h120c6.8,0,12.3,5.5,12.3,12.3c0,3.4-1.4,6.4-3.6,8.7c-2.2,2.2-5.3,3.6-8.7,3.6h-65.6c6.8,0,12.3,5.5,12.3,12.3
			c0,3.4-1.4,6.4-3.6,8.7c-2.2,2.2-5.3,3.6-8.7,3.6H56.8c-6.8,0-12.3-5.5-12.3-12.3c0-3.4,1.4-6.4,3.6-8.7c2.2-2.2,5.3-3.6,8.7-3.6
			H85c3.4,0,6.4-1.4,8.7-3.6c2.2-2.2,3.6-5.3,3.6-8.7c0-6.8-5.5-12.3-12.3-12.3H29.3c-6.8,0-12.3-5.5-12.3-12.3
			c0-3.4,1.4-6.4,3.6-8.7c2.2-2.2,5.3-3.6,8.7-3.6h98.6c3.4,0,6.4-1.4,8.7-3.6c2.2-2.2,3.6-5.3,3.6-8.7c0-6.8-5.5-12.3-12.3-12.3
			H76.5c-6.8,0-12.3-5.5-12.3-12.3c0-3.4,1.4-6.4,3.6-8.7c2.2-2.2,5.3-3.6,8.7-3.6h28c-6.8,0-12.3-5.5-12.3-12.3
			c0-3.4,1.4-6.4,3.6-8.7c2.2-2.2,5.3-3.6,8.7-3.6h207.7c6.8,0,12.3,5.5,12.3,12.3c0,3.4-1.4,6.4-3.6,8.7c-2.2,2.2-5.3,3.6-8.7,3.6
			h-57.6C251.2,59.5,248.1,60.9,245.9,63.1z"/>
		<g class="st2">
			<path class="st3" d="M1205,870.6H60c0,0,11-12.9,22.9-18.5c35.1-16.4,107.7-24.8,158.9-61.5c16.5-11.8,168.8,11.9,208.9-8.2
				c44.8-22.5,89.8-47.1,139.2-58.1c49.4-11.1,101.2-9.6,150.5,0.9c44.2,9.4,86.6,25.9,126.8,46.4c16.9,8.7,32.1,19.5,50.5,25
				c18.9,5.7,38.8,7.5,58.3,9.3c30.9,2.8,60.2,3.1,86.9-15.1c23.7-16.2,46.5-35.7,76.3-38.7c5.9-0.6,34.4-0.9,36.5,7.2L1205,870.6z"
				/>
			<g>
				<polygon class="st3" points="290.4,759.1 273,868.4 307.7,868.4 				"/>
				<polygon class="st3" points="398.4,707.9 381.1,817.2 415.7,817.2 				"/>
				<polygon class="st3" points="91.5,730.5 69.5,869.6 113.6,869.6 				"/>
				<polygon class="st3" points="182.8,719 160.7,858.1 204.8,858.1 				"/>
				<polygon class="st3" points="443.3,686 421.2,825.1 465.4,825.1 				"/>
				<polygon class="st3" points="662.4,649.5 640.3,788.6 684.4,788.6 				"/>
				<polygon class="st3" points="640.3,691.6 623,800.8 657.6,800.8 				"/>
				<polygon class="st3" points="472.3,746.2 455,855.4 489.6,855.4 				"/>
			</g>
			<path class="st3" d="M543.7,693.4c0-0.4,0.1-0.8,0.1-1.1c0-5.7-4.2-10.3-9.5-10.5c-2.2-6.8-8.3-11.7-15.3-11.7
				c-7.9,0-14.4,6-15.9,14c-4.4,0.6-7.8,4.3-8.4,9c-3.5,1.6-6,5.3-6,9.7c0,4.4,2.6,8.2,6.2,9.8h4.5c2.9,5.4,8.6,8.5,14.4,7.8v42.4
				H524v-42.4c5.7,0.6,11.3-2.5,14.3-7.8h9.4c2.6-1.9,4.4-5.1,4.4-8.7C552,698.5,548.4,694.1,543.7,693.4z M502,712.5h11.6v5.4
				C509.1,718.5,504.7,716.4,502,712.5z M524,717.9v-5.4h11.5C532.9,716.4,528.5,718.4,524,717.9z"/>
			<path class="st3" d="M296.5,719.7c0-0.4,0.1-0.8,0.1-1.1c0-5.7-4.2-10.3-9.5-10.5c-2.2-6.8-8.3-11.7-15.3-11.7
				c-7.9,0-14.4,6-15.9,14c-4.4,0.6-7.8,4.3-8.4,9c-3.5,1.6-6,5.3-6,9.7c0,4.4,2.6,8.2,6.2,9.8h4.5c2.9,5.4,8.6,8.5,14.4,7.8V789
				h10.4v-42.4c5.7,0.6,11.3-2.5,14.3-7.8h9.4c2.6-1.9,4.4-5.1,4.4-8.7C304.8,724.8,301.2,720.4,296.5,719.7z M254.8,738.8h11.6v5.4
				C261.9,744.7,257.4,742.7,254.8,738.8z M276.8,744.2v-5.4h11.5C285.7,742.6,281.3,744.7,276.8,744.2z"/>
		</g>
		<linearGradient id="SVGID_2_" gradientUnits="userSpaceOnUse" x1="388.0543" y1="870.6521" x2="388.0543" y2="643.2444">
			<stop  offset="0" style="stop-color:#6941E8"/>
			<stop  offset="8.565402e-02" style="stop-color:#613EDA"/>
			<stop  offset="0.3589" style="stop-color:#4B37B4"/>
			<stop  offset="0.6113" style="stop-color:#3B3299"/>
			<stop  offset="0.833" style="stop-color:#312F88"/>
			<stop  offset="1" style="stop-color:#2E2E82"/>
		</linearGradient>
		<path style="fill:url(#SVGID_2_);" d="M509.4,870.7H266.7c74.4,0,74.4-227.4,0-227.4h242.8C448.7,643.2,448.7,870.7,509.4,870.7z"
			/>
		<g>
			<g>
				<path class="st76" d="M700.7,660.4H78.2c-6.8,0-12.3-5.5-12.3-12.3V145c0-6.8,5.5-12.3,12.3-12.3h622.6
					c6.8,0,12.3,5.5,12.3,12.3v503C713,654.9,707.5,660.4,700.7,660.4z"/>
				<rect x="264.6" y="148.5" class="st48" width="303.1" height="16.6"/>
				<path class="st48" d="M649.8,161.8h-30.6c-2.8,0-5-2.2-5-5v0c0-2.8,2.2-5,5-5h30.6c2.8,0,5,2.2,5,5v0
					C654.8,159.5,652.6,161.8,649.8,161.8z"/>
				<path class="st48" d="M692.4,149.3h-20.9c-0.7,0-1.3-0.6-1.3-1.3l0,0c0-0.7,0.6-1.3,1.3-1.3h20.9c0.7,0,1.3,0.6,1.3,1.3l0,0
					C693.7,148.7,693.1,149.3,692.4,149.3z"/>
				<path class="st48" d="M692.4,157.9h-20.9c-0.7,0-1.3-0.6-1.3-1.3l0,0c0-0.7,0.6-1.3,1.3-1.3h20.9c0.7,0,1.3,0.6,1.3,1.3l0,0
					C693.7,157.3,693.1,157.9,692.4,157.9z"/>
				<path class="st48" d="M692.4,166.4h-20.9c-0.7,0-1.3-0.6-1.3-1.3l0,0c0-0.7,0.6-1.3,1.3-1.3h20.9c0.7,0,1.3,0.6,1.3,1.3l0,0
					C693.7,165.8,693.1,166.4,692.4,166.4z"/>
				<circle class="st157" cx="153.2" cy="156.8" r="8.9"/>
				<line class="st157" x1="118.9" y1="156.8" x2="134.3" y2="156.8"/>
				<g>
					<line class="st157" x1="92.3" y1="149.8" x2="107.7" y2="165.3"/>
					<line class="st157" x1="92.3" y1="165.3" x2="107.7" y2="149.8"/>
				</g>
			</g>
			<linearGradient id="SVGID_3_" gradientUnits="userSpaceOnUse" x1="389.4482" y1="643.2444" x2="389.4482" y2="181.2464">
				<stop  offset="0" style="stop-color:#69DFFF"/>
				<stop  offset="0.1426" style="stop-color:#5FC6FC"/>
				<stop  offset="0.3988" style="stop-color:#50A0F8"/>
				<stop  offset="0.6355" style="stop-color:#4585F5"/>
				<stop  offset="0.8434" style="stop-color:#3E74F4"/>
				<stop  offset="1" style="stop-color:#3C6EF3"/>
			</linearGradient>
			<path class="st4" d="M689,643.2H89.9c-3.6,0-6.5-2.9-6.5-6.5V187.7c0-3.6,2.9-6.5,6.5-6.5H689c3.6,0,6.5,2.9,6.5,6.5v449.1
				C695.5,640.3,692.6,643.2,689,643.2z"/>
		</g>
		<g>
			<g>
				<g>
					
						<linearGradient id="SVGID_4_" gradientUnits="userSpaceOnUse" x1="-1081.8894" y1="890.2102" x2="-1061.6008" y2="890.2102" gradientTransform="matrix(1 0 0 1 1717.046 0)">
						<stop  offset="0" style="stop-color:#2D2E82"/>
						<stop  offset="0.1544" style="stop-color:#2E3288"/>
						<stop  offset="0.3672" style="stop-color:#303C9A"/>
						<stop  offset="0.614" style="stop-color:#344CB7"/>
						<stop  offset="0.8843" style="stop-color:#3963DF"/>
						<stop  offset="0.9998" style="stop-color:#3C6EF3"/>
					</linearGradient>
					<path class="st5" d="M636.2,902.6c-2.1-2.6-0.8-6.2,1.7-8c0.6-0.4,1.3-0.8,1.9-1.3c1.2-1.1,1.2-2.6,1-4
						c-0.3-1.6-0.9-3.3,0.2-4.7c0.8-1.1,2.5-1.2,3.7-1.7c2.5-1,1.4-3.1,1.8-5c0.1-0.5,0.4-1,0.9-1.3c1.1-0.7,2.9-0.4,4.1-0.8
						c0.5-0.2,1.1-0.4,1.6-0.2c0.3,0.1,0.5,0.5,0.6,0.8c0.2,1.2,0.1,2.5,0.4,3.7c0.3,1.3,1,2.6,1.2,4c0.3,1.6,0,3.6-1.6,4.5
						c-0.7,0.4-1.6,0.5-2.4,0.8c-2.6,0.6-2.9,2.6-2.4,4.8c0.3,1.4,0.6,3-0.4,4.1c-0.5,0.6-1.2,0.9-1.8,1.3c-0.6,0.4-1.3,0.9-1.4,1.6
						c-0.2,1.3,1.3,2.9-0.5,3.8c-0.5,0.2-1.1,0.3-1.6,0.3C640.7,905.1,637.8,904.6,636.2,902.6C636.3,902.7,636.2,902.7,636.2,902.6
						z"/>
				</g>
				<g>
					<defs>
						<path id="SVGID_223_" d="M636.2,902.6c-2.1-2.6-0.8-6.2,1.7-8c0.6-0.4,1.3-0.8,1.9-1.3c1.2-1.1,1.2-2.6,1-4
							c-0.3-1.6-0.9-3.3,0.2-4.7c0.8-1.1,2.5-1.2,3.7-1.7c2.5-1,1.4-3.1,1.8-5c0.1-0.5,0.4-1,0.9-1.3c1.1-0.7,2.9-0.4,4.1-0.8
							c0.5-0.2,1.1-0.4,1.6-0.2c0.3,0.1,0.5,0.5,0.6,0.8c0.2,1.2,0.1,2.5,0.4,3.7c0.3,1.3,1,2.6,1.2,4c0.3,1.6,0,3.6-1.6,4.5
							c-0.7,0.4-1.6,0.5-2.4,0.8c-2.6,0.6-2.9,2.6-2.4,4.8c0.3,1.4,0.6,3-0.4,4.1c-0.5,0.6-1.2,0.9-1.8,1.3
							c-0.6,0.4-1.3,0.9-1.4,1.6c-0.2,1.3,1.3,2.9-0.5,3.8c-0.5,0.2-1.1,0.3-1.6,0.3C640.7,905.1,637.8,904.6,636.2,902.6
							C636.3,902.7,636.2,902.7,636.2,902.6z"/>
					</defs>
					<clipPath id="SVGID_6_">
						<use xlink:href="#SVGID_223_"  style="overflow:visible;"/>
					</clipPath>
					<path style="clip-path:url(#SVGID_6_);fill:none;stroke:#2D2E82;stroke-width:0.3406;stroke-miterlimit:10;" d="M653.1,875.4
						l-13.6,29.2 M640.2,903l8.9-3.3 M643,897.1l11.1-4.1 M656.4,886.5l-10.2,3.8 M649.4,883.4l8.3-3.1 M640.2,903l-3.5-8.2
						 M643,897.1l-4.4-10.2 M646.2,890.2l-4.1-9.4 M646,875.7l3.3,7.7"/>
				</g>
			</g>
			<path class="st3" d="M648.1,902.3c-3.7-2.8-8.3-2.1-12.6-2.5c-2-0.2-4-0.5-5.7-1.6c-3.8-2.2-6.1-4.2-10.2-1
				c-4.3,3.4-7.9,5.6-11.8,0.2c-3.6-4.9-5.1-10.7-12.2-11.3c-3.8-0.3-7.7,1.4-10.1,4.2c-1.9,2.3-2.1,5.5-3.6,8
				c-0.7,1.2-1.8,2.2-3.1,2.6c-2,0.6-4.1-0.3-5.8-1.5c-1.7-1.2-3.2-2.8-5-3.7c-4-2-5.8,0.4-7.9,3.3c-0.2,0.3-2.1,1.5-2.1,1.6
				c-1.6,0.6-3.4,0.2-5.2,0c-2.5-0.3-5-0.2-7.4,0.4c-1.2,0.3-2.5,0.7-3.4,1.5c-1.1,0.9-1.8,2.2-1.2,2.9c0.1,0.2,0.3,0.3,0.6,0.4
				c0.5,0.2,1.5,0,2.1,0c2.4,0,4.7,0,7.1,0c6.9,0,13.8,0,20.7,0c7.9,0,15.8,0,23.8,0c17.5,0,35.1,0,52.6,0c0.4,0,0.8,0,1.1-0.2
				c1.1-0.6,0.4-2.3-0.5-3.1C648.2,902.4,648.2,902.4,648.1,902.3z"/>
			<g>
				<defs>
					<path id="SVGID_225_" d="M648.1,902.3c-3.7-2.8-8.3-2.1-12.6-2.5c-2-0.2-4-0.5-5.7-1.6c-3.8-2.2-6.1-4.2-10.2-1
						c-4.3,3.4-7.9,5.6-11.8,0.2c-3.6-4.9-5.1-10.7-12.2-11.3c-3.8-0.3-7.7,1.4-10.1,4.2c-1.9,2.3-2.1,5.5-3.6,8
						c-0.7,1.2-1.8,2.2-3.1,2.6c-2,0.6-4.1-0.3-5.8-1.5c-1.7-1.2-3.2-2.8-5-3.7c-4-2-5.8,0.4-7.9,3.3c-0.2,0.3-2.1,1.5-2.1,1.6
						c-1.6,0.6-3.4,0.2-5.2,0c-2.5-0.3-5-0.2-7.4,0.4c-1.2,0.3-2.5,0.7-3.4,1.5c-1.1,0.9-1.8,2.2-1.2,2.9c0.1,0.2,0.3,0.3,0.6,0.4
						c0.5,0.2,1.5,0,2.1,0c2.4,0,4.7,0,7.1,0c6.9,0,13.8,0,20.7,0c7.9,0,15.8,0,23.8,0c17.5,0,35.1,0,52.6,0c0.4,0,0.8,0,1.1-0.2
						c1.1-0.6,0.4-2.3-0.5-3.1C648.2,902.4,648.2,902.4,648.1,902.3z"/>
				</defs>
				<clipPath id="SVGID_8_">
					<use xlink:href="#SVGID_225_"  style="overflow:visible;"/>
				</clipPath>
				<g class="st7">
					<path class="st8" d="M630.9,905.6c-4.9,1.1-10.3-2.9-12.4-7.7c-0.5-1.1-0.9-2.3-1.5-3.4c-1.3-2.4-3.8-3.4-6.2-4
						c-2.6-0.6-5.7-0.9-7.6-3.4c-1.4-1.9-1.1-4.2-1.5-6.3c-0.7-4-4.5-3.9-7.5-5.8c-0.8-0.5-1.5-1.2-1.8-2c-0.8-2,0.4-4.2,0.1-6.2
						c-0.1-0.8-0.3-1.8,0.2-2.3c0.3-0.4,0.9-0.4,1.5-0.3c2.1,0.5,4.1,1.5,6.2,1.9c2.3,0.4,4.6,0.4,6.9,0.9c2.8,0.6,5.9,2.4,6.8,5.1
						c0.4,1.3,0.3,2.6,0.4,3.9c0.1,3.9,3.2,5.6,6.9,6.5c2.4,0.6,5.1,1.2,6.6,3.3c0.7,1,1,2.2,1.4,3.4s1,2.4,2.1,3
						c2,1.2,5.2,0.2,5.9,3.2c0.2,0.8,0.1,1.7-0.1,2.4c-0.7,3.4-2.7,6.9-6.2,7.8C631,905.5,630.9,905.5,630.9,905.6z"/>
				</g>
			</g>
			<g>
				<g>
					
						<linearGradient id="SVGID_9_" gradientUnits="userSpaceOnUse" x1="-1097.6816" y1="880.5528" x2="-1071.8651" y2="876.0006" gradientTransform="matrix(1 0 0 1 1717.046 0)">
						<stop  offset="0" style="stop-color:#2D2E82"/>
						<stop  offset="0.1833" style="stop-color:#2F3691"/>
						<stop  offset="0.5337" style="stop-color:#344CB7"/>
						<stop  offset="1" style="stop-color:#3C6EF3"/>
					</linearGradient>
					<path class="st9" d="M626.7,904.5c-4.8-2.8-5.5-9.3-3-13.9c0.6-1.1,1.3-2.1,1.8-3.3c1.1-2.5,0-4.9-1.3-7
						c-1.5-2.3-3.6-4.7-2.9-7.7c0.5-2.2,2.8-3.5,4.3-5.1c2.9-3.1-0.1-5.8-0.7-9.1c-0.2-0.9-0.1-1.8,0.4-2.6c1.1-1.8,3.9-2.4,5.5-3.9
						c0.6-0.6,1.3-1.4,2.1-1.4c0.6,0,1.1,0.4,1.4,0.9c1.2,1.8,1.9,3.9,3.2,5.7c1.4,1.9,3.2,3.6,4.5,5.6c1.6,2.4,2.4,5.8,0.8,8.2
						c-0.8,1.1-2,1.9-3.1,2.7c-3.3,2.6-2.4,5.9-0.3,9.1c1.4,2.1,2.9,4.4,2.2,6.8c-0.3,1.2-1.1,2.2-1.8,3.2c-0.7,1-1.2,2.3-1,3.5
						c0.5,2.2,3.9,3.9,1.8,6.3c-0.6,0.7-1.4,1.1-2.2,1.5c-3.5,1.6-8,2.5-11.6,0.5C626.8,904.6,626.8,904.6,626.7,904.5z"/>
				</g>
				<g>
					<defs>
						<path id="SVGID_228_" d="M626.7,904.5c-4.8-2.8-5.5-9.3-3-13.9c0.6-1.1,1.3-2.1,1.8-3.3c1.1-2.5,0-4.9-1.3-7
							c-1.5-2.3-3.6-4.7-2.9-7.7c0.5-2.2,2.8-3.5,4.3-5.1c2.9-3.1-0.1-5.8-0.7-9.1c-0.2-0.9-0.1-1.8,0.4-2.6
							c1.1-1.8,3.9-2.4,5.5-3.9c0.6-0.6,1.3-1.4,2.1-1.4c0.6,0,1.1,0.4,1.4,0.9c1.2,1.8,1.9,3.9,3.2,5.7c1.4,1.9,3.2,3.6,4.5,5.6
							c1.6,2.4,2.4,5.8,0.8,8.2c-0.8,1.1-2,1.9-3.1,2.7c-3.3,2.6-2.4,5.9-0.3,9.1c1.4,2.1,2.9,4.4,2.2,6.8c-0.3,1.2-1.1,2.2-1.8,3.2
							c-0.7,1-1.2,2.3-1,3.5c0.5,2.2,3.9,3.9,1.8,6.3c-0.6,0.7-1.4,1.1-2.2,1.5c-3.5,1.6-8,2.5-11.6,0.5
							C626.8,904.6,626.8,904.6,626.7,904.5z"/>
					</defs>
					<clipPath id="SVGID_11_">
						<use xlink:href="#SVGID_228_"  style="overflow:visible;"/>
					</clipPath>
					<path style="clip-path:url(#SVGID_11_);fill:none;stroke:#2D2E82;stroke-width:0.3406;stroke-miterlimit:10;" d="M632.9,850.6
						v55 M632.9,902.5l10.7-10.7 M632.9,891.4l13.5-13.5 M645.2,866.2l-12.4,12.4 M632.9,865.6l10.1-10.1 M632.9,902.5l-10.7-10.7
						 M632.9,891.4l-13.5-13.5 M632.9,878.5l-12.4-12.4 M622.7,855.5l10.1,10.1"/>
				</g>
			</g>
			<g>
				
					<linearGradient id="SVGID_12_" gradientUnits="userSpaceOnUse" x1="-1135.8185" y1="905.662" x2="-1135.8185" y2="896.2067" gradientTransform="matrix(1 0 0 1 1717.046 0)">
					<stop  offset="0" style="stop-color:#2D2E82"/>
					<stop  offset="1" style="stop-color:#2D2E82;stop-opacity:0"/>
				</linearGradient>
				
					<linearGradient id="SVGID_13_" gradientUnits="userSpaceOnUse" x1="-1157.2535" y1="900.9343" x2="-1114.724" y2="900.9343" gradientTransform="matrix(1 0 0 1 1717.046 0)">
					<stop  offset="0" style="stop-color:#FFFFFF;stop-opacity:0"/>
					<stop  offset="1" style="stop-color:#FFFFFF;stop-opacity:0"/>
				</linearGradient>
				<path style="fill:url(#SVGID_12_);stroke:url(#SVGID_13_);stroke-width:0.6812;stroke-miterlimit:10;" d="M560.2,905.7
					c-0.3,0,1.1-3.3,1.4-3.7c1.2-1.4,3-2.2,4.8-2.2c1.7,0.1,3.2,0.7,4.5,1.7c1.1,0.8,2.2,2,3.7,1.7c1.1-0.2,1.8-1.2,2.2-2.2
					c0.5-1.3,0.8-2.8,1.9-3.8c1.4-1.4,3.7-1.1,5.5-0.5c1.5,0.5,3.2,1.4,4,2.8c0.9,1.5,0.4,3.6,2.6,4.2c1.2,0.3,2.6-0.3,3-1.4
					c0.7-1.6-0.3-5.8,2.9-4.9c1.7,0.5,3.4,2.7,4,4.3c0.2,0.4,1.2,3.9,1.7,3.9C602.3,905.7,560.3,905.7,560.2,905.7z"/>
				
					<linearGradient id="SVGID_14_" gradientUnits="userSpaceOnUse" x1="-1142.9359" y1="905.662" x2="-1142.9359" y2="891.4379" gradientTransform="matrix(1 0 0 1 1717.046 0)">
					<stop  offset="0" style="stop-color:#2D2E82"/>
					<stop  offset="1" style="stop-color:#2D2E82;stop-opacity:0"/>
				</linearGradient>
				
					<linearGradient id="SVGID_15_" gradientUnits="userSpaceOnUse" x1="-1158.3923" y1="898.5499" x2="-1127.8201" y2="898.5499" gradientTransform="matrix(1 0 0 1 1717.046 0)">
					<stop  offset="0" style="stop-color:#FFFFFF;stop-opacity:0"/>
					<stop  offset="1" style="stop-color:#FFFFFF;stop-opacity:0"/>
				</linearGradient>
				<path style="fill:url(#SVGID_14_);stroke:url(#SVGID_15_);stroke-width:0.6812;stroke-miterlimit:10;" d="M559,905.7
					c-0.2,0,0.8-5,1-5.5c0.8-2.2,2.1-3.4,3.5-3.3c1.2,0.1,2.3,1.1,3.2,2.6c0.8,1.2,1.6,3,2.7,2.6c0.8-0.3,1.3-1.8,1.6-3.3
					c0.4-1.9,0.6-4.2,1.3-5.7c1-2,2.6-1.7,3.9-0.8c1.1,0.8,2.3,2.1,2.9,4.2c0.6,2.3,0.3,5.4,1.8,6.3c0.8,0.5,1.8-0.4,2.2-2.1
					c0.5-2.5-0.2-8.8,2.1-7.4c1.2,0.8,2.4,4.1,2.9,6.5c0.1,0.6,0.9,5.9,1.2,5.9C589.2,905.7,559.1,905.7,559,905.7z"/>
				
					<linearGradient id="SVGID_16_" gradientUnits="userSpaceOnUse" x1="-1119.2792" y1="905.662" x2="-1119.2792" y2="894.8516" gradientTransform="matrix(1 0 0 1 1717.046 0)">
					<stop  offset="0" style="stop-color:#2D2E82"/>
					<stop  offset="1" style="stop-color:#2D2E82;stop-opacity:0"/>
				</linearGradient>
				
					<linearGradient id="SVGID_17_" gradientUnits="userSpaceOnUse" x1="-1125.8832" y1="900.2568" x2="-1113.0159" y2="900.2568" gradientTransform="matrix(1 0 0 1 1717.046 0)">
					<stop  offset="0" style="stop-color:#FFFFFF;stop-opacity:0"/>
					<stop  offset="1" style="stop-color:#FFFFFF;stop-opacity:0"/>
				</linearGradient>
				<path style="fill:url(#SVGID_16_);stroke:url(#SVGID_17_);stroke-width:0.6812;stroke-miterlimit:10;" d="M591.5,905.7
					c-0.1,0,0.3-3.8,0.4-4.2c0.3-1.6,0.9-2.6,1.4-2.5c0.5,0.1,0.9,0.8,1.3,2c0.3,0.9,0.6,2.3,1.1,1.9c0.3-0.3,0.5-1.4,0.7-2.5
					c0.2-1.4,0.3-3.2,0.6-4.3c0.4-1.5,1.1-1.3,1.6-0.6c0.5,0.6,0.9,1.6,1.2,3.2c0.3,1.7,0.1,4.1,0.8,4.8c0.3,0.4,0.8-0.3,0.9-1.6
					c0.2-1.9-0.1-6.7,0.9-5.6c0.5,0.6,1,3.1,1.2,4.9c0,0.5,0.4,4.5,0.5,4.5C604,905.7,591.5,905.7,591.5,905.7z"/>
				
					<linearGradient id="SVGID_18_" gradientUnits="userSpaceOnUse" x1="-1148.8877" y1="905.662" x2="-1148.8877" y2="894.8516" gradientTransform="matrix(1 0 0 1 1717.046 0)">
					<stop  offset="0" style="stop-color:#2D2E82"/>
					<stop  offset="1" style="stop-color:#2D2E82;stop-opacity:0"/>
				</linearGradient>
				
					<linearGradient id="SVGID_19_" gradientUnits="userSpaceOnUse" x1="-1155.4916" y1="900.2568" x2="-1142.6243" y2="900.2568" gradientTransform="matrix(1 0 0 1 1717.046 0)">
					<stop  offset="0" style="stop-color:#FFFFFF;stop-opacity:0"/>
					<stop  offset="1" style="stop-color:#FFFFFF;stop-opacity:0"/>
				</linearGradient>
				<path style="fill:url(#SVGID_18_);stroke:url(#SVGID_19_);stroke-width:0.6812;stroke-miterlimit:10;" d="M561.9,905.7
					c-0.1,0,0.3-3.8,0.4-4.2c0.3-1.6,0.9-2.6,1.4-2.5c0.5,0.1,0.9,0.8,1.3,2c0.3,0.9,0.6,2.3,1.1,1.9c0.3-0.3,0.5-1.4,0.7-2.5
					c0.2-1.4,0.3-3.2,0.6-4.3c0.4-1.5,1.1-1.3,1.6-0.6c0.5,0.6,0.9,1.6,1.2,3.2c0.3,1.7,0.1,4.1,0.8,4.8c0.3,0.4,0.8-0.3,0.9-1.6
					c0.2-1.9-0.1-6.7,0.9-5.6c0.5,0.6,1,3.1,1.2,4.9c0,0.5,0.4,4.5,0.5,4.5C574.4,905.7,561.9,905.7,561.9,905.7z"/>
			</g>
		</g>
		<g>
			<g>
				<rect x="97.7" y="193.6" class="st8" width="73.7" height="10.9"/>
			</g>
			<g>
				<path class="st1" d="M305.5,326.3H107c-5.1,0-9.3-4.2-9.3-9.3v-90.4c0-5.1,4.2-9.3,9.3-9.3h198.6c5.1,0,9.3,4.2,9.3,9.3V317
					C314.8,322.1,310.6,326.3,305.5,326.3z"/>
				<g>
					<g>
						<path class="st39" d="M161.8,247.9h-42.6c-4.2,0-7.7-3.4-7.7-7.7v0c0-4.2,3.4-7.7,7.7-7.7h42.6c4.2,0,7.7,3.4,7.7,7.7v0
							C169.4,244.5,166,247.9,161.8,247.9z"/>
						<path class="st38" d="M224.8,247.9h-42.4c-4.2,0-7.7-3.4-7.7-7.7v0c0-4.2,3.4-7.7,7.7-7.7h42.4c4.2,0,7.7,3.4,7.7,7.7v0
							C232.5,244.5,229.1,247.9,224.8,247.9z"/>
					</g>
					<g>
						<rect x="111.5" y="262.3" class="st3" width="108.7" height="3.7"/>
						<rect x="111.5" y="277.6" class="st3" width="108.7" height="3.7"/>
						<rect x="111.5" y="292.8" class="st3" width="72.4" height="3.7"/>
					</g>
				</g>
				<g>
					<g>
						<path class="st39" d="M301.9,315c-0.7,0.5-1.8,0.9-3.2,0.9c-1.8,0-3.3-0.7-4.4-1.9c-0.8-0.9-1.4-2.2-1.6-3.7h-1.3v-1.1h1.2
							c0-0.1,0-0.2,0-0.3c0-0.3,0-0.7,0-1h-1.3v-1.1h1.4c0.3-1.5,0.9-2.8,1.8-3.7c1.1-1.2,2.5-1.8,4.3-1.8c1.3,0,2.3,0.4,2.9,0.7
							l-0.4,1.4c-0.5-0.3-1.5-0.6-2.4-0.6c-1.2,0-2.1,0.4-2.9,1.2c-0.7,0.6-1.1,1.6-1.3,2.8h6.1v1.1l-6.3,0c0,0.3,0,0.6,0,0.9
							c0,0.1,0,0.2,0,0.4h6.3v1.1l-6.2,0c0.2,1.3,0.6,2.2,1.2,2.9c0.8,0.8,1.9,1.3,3.1,1.3c1.2,0,2.2-0.4,2.7-0.7L301.9,315z"/>
					</g>
					<g>
						<path class="st39" d="M288.3,315c-0.7,0.5-1.8,0.9-3.2,0.9c-1.8,0-3.3-0.7-4.4-1.9c-0.8-0.9-1.4-2.2-1.6-3.7h-1.3v-1.1h1.2
							c0-0.1,0-0.2,0-0.3c0-0.3,0-0.7,0-1h-1.3v-1.1h1.4c0.3-1.5,0.9-2.8,1.8-3.7c1.1-1.2,2.5-1.8,4.3-1.8c1.3,0,2.3,0.4,2.9,0.7
							l-0.4,1.4c-0.5-0.3-1.5-0.6-2.4-0.6c-1.2,0-2.1,0.4-2.9,1.2c-0.7,0.6-1.1,1.6-1.3,2.8h6.1v1.1l-6.3,0c0,0.3,0,0.6,0,0.9
							c0,0.1,0,0.2,0,0.4h6.3v1.1l-6.2,0c0.2,1.3,0.6,2.2,1.2,2.9c0.8,0.8,1.9,1.3,3.1,1.3c1.2,0,2.2-0.4,2.7-0.7L288.3,315z"/>
					</g>
				</g>
			</g>
			<g>
				<path class="st1" d="M308,628.6H104.5c-3.8,0-6.8-3.1-6.8-6.8v-69.6c0-3.8,3.1-6.8,6.8-6.8H308c3.8,0,6.8,3.1,6.8,6.8v69.6
					C314.8,625.5,311.7,628.6,308,628.6z"/>
				<g>
					<path class="st42" d="M161.8,571.8h-42.6c-4.2,0-7.7-3.4-7.7-7.7l0,0c0-4.2,3.4-7.7,7.7-7.7h42.6c4.2,0,7.7,3.4,7.7,7.7l0,0
						C169.4,568.3,166,571.8,161.8,571.8z"/>
					<path class="st83" d="M224.8,571.8h-42.4c-4.2,0-7.7-3.4-7.7-7.7l0,0c0-4.2,3.4-7.7,7.7-7.7h42.4c4.2,0,7.7,3.4,7.7,7.7l0,0
						C232.5,568.3,229.1,571.8,224.8,571.8z"/>
					<g>
						<rect x="111.5" y="582.1" class="st84" width="108.7" height="3.7"/>
						<rect x="111.5" y="597.3" class="st84" width="108.7" height="3.7"/>
						<rect x="111.5" y="612.5" class="st84" width="72.4" height="3.7"/>
					</g>
				</g>
				<g>
					<path class="st42" d="M301.9,616.9c-0.7,0.5-1.8,0.9-3.2,0.9c-1.8,0-3.3-0.7-4.4-1.9c-0.8-0.9-1.4-2.2-1.6-3.7h-1.3v-1.1h1.2
						c0-0.1,0-0.2,0-0.3c0-0.3,0-0.7,0-1h-1.3v-1.1h1.4c0.3-1.5,0.9-2.8,1.8-3.7c1.1-1.2,2.5-1.8,4.3-1.8c1.3,0,2.3,0.4,2.9,0.7
						l-0.4,1.4c-0.5-0.3-1.5-0.6-2.4-0.6c-1.2,0-2.1,0.4-2.9,1.2c-0.7,0.6-1.1,1.6-1.3,2.8h6.1v1.1h-6.3c0,0.3,0,0.6,0,0.9
						c0,0.1,0,0.2,0,0.4h6.3v1.1h-6.2c0.2,1.3,0.6,2.2,1.2,2.9c0.8,0.8,1.9,1.3,3.1,1.3c1.2,0,2.2-0.4,2.7-0.7L301.9,616.9z"/>
				</g>
			</g>
			<g>
				<path class="st1" d="M636.4,628.6H440.1c-5.7,0-10.4-4.7-10.4-10.4V445.1c0-5.7,4.7-10.4,10.4-10.4h196.3
					c5.7,0,10.4,4.7,10.4,10.4v173.1C646.8,623.9,642.1,628.6,636.4,628.6z"/>
			</g>
			<g>
				<g>
					<path class="st76" d="M494.8,465.2h-42.6c-4.2,0-7.7-3.4-7.7-7.7l0,0c0-4.2,3.4-7.7,7.7-7.7h42.6c4.2,0,7.7,3.4,7.7,7.7l0,0
						C502.4,461.8,499,465.2,494.8,465.2z"/>
					<path class="st84" d="M557.8,465.2h-42.4c-4.2,0-7.7-3.4-7.7-7.7l0,0c0-4.2,3.4-7.7,7.7-7.7h42.4c4.2,0,7.7,3.4,7.7,7.7l0,0
						C565.5,461.8,562.1,465.2,557.8,465.2z"/>
					<g>
						<rect x="443.5" y="478.5" class="st42" width="106.1" height="3.7"/>
						<rect x="443.5" y="493.8" class="st42" width="106.1" height="3.7"/>
						<rect x="443.5" y="509" class="st42" width="70.7" height="3.7"/>
					</g>
				</g>
				<g>
					<path class="st76" d="M635.7,614.4c-0.7,0.5-1.8,0.9-3.2,0.9c-1.8,0-3.3-0.7-4.4-1.9c-0.8-0.9-1.4-2.2-1.6-3.7h-1.3v-1.1h1.2
						c0-0.1,0-0.2,0-0.3c0-0.3,0-0.7,0-1h-1.3v-1.1h1.4c0.3-1.5,0.9-2.8,1.8-3.7c1.1-1.2,2.5-1.8,4.3-1.8c1.3,0,2.3,0.4,2.9,0.7
						l-0.4,1.4c-0.5-0.3-1.5-0.6-2.4-0.6c-1.2,0-2.1,0.4-2.9,1.2c-0.7,0.6-1.1,1.6-1.3,2.8h6.1v1.1h-6.3c0,0.3,0,0.6,0,0.9
						c0,0.1,0,0.2,0,0.4h6.3v1.1h-6.2c0.2,1.3,0.6,2.2,1.2,2.9c0.8,0.8,1.9,1.3,3.1,1.3c1.2,0,2.2-0.4,2.7-0.7L635.7,614.4z"/>
				</g>
				<g>
					<path class="st76" d="M619.4,614.4c-0.7,0.5-1.8,0.9-3.2,0.9c-1.8,0-3.3-0.7-4.4-1.9c-0.8-0.9-1.4-2.2-1.6-3.7h-1.3v-1.1h1.2
						c0-0.1,0-0.2,0-0.3c0-0.3,0-0.7,0-1h-1.3v-1.1h1.4c0.3-1.5,0.9-2.8,1.8-3.7c1.1-1.2,2.5-1.8,4.3-1.8c1.3,0,2.3,0.4,2.9,0.7
						l-0.4,1.4c-0.5-0.3-1.5-0.6-2.4-0.6c-1.2,0-2.1,0.4-2.9,1.2c-0.7,0.6-1.1,1.6-1.3,2.8h6.1v1.1H612c0,0.3,0,0.6,0,0.9
						c0,0.1,0,0.2,0,0.4h6.3v1.1h-6.2c0.2,1.3,0.6,2.2,1.2,2.9c0.8,0.8,1.9,1.3,3.1,1.3c1.2,0,2.2-0.4,2.7-0.7L619.4,614.4z"/>
				</g>
				<g>
					<path class="st76" d="M603,614.4c-0.7,0.5-1.8,0.9-3.2,0.9c-1.8,0-3.3-0.7-4.4-1.9c-0.8-0.9-1.4-2.2-1.6-3.7h-1.3v-1.1h1.2
						c0-0.1,0-0.2,0-0.3c0-0.3,0-0.7,0-1h-1.3v-1.1h1.4c0.3-1.5,0.9-2.8,1.8-3.7c1.1-1.2,2.5-1.8,4.3-1.8c1.3,0,2.3,0.4,2.9,0.7
						l-0.4,1.4c-0.5-0.3-1.5-0.6-2.4-0.6c-1.2,0-2.1,0.4-2.9,1.2c-0.7,0.6-1.1,1.6-1.3,2.8h6.1v1.1h-6.3c0,0.3,0,0.6,0,0.9
						c0,0.1,0,0.2,0,0.4h6.3v1.1h-6.2c0.2,1.3,0.6,2.2,1.2,2.9c0.8,0.8,1.9,1.3,3.1,1.3c1.2,0,2.2-0.4,2.7-0.7L603,614.4z"/>
				</g>
			</g>
			<g>
				<path class="st1" d="M640,409.6H436.5c-3.8,0-6.8-3.1-6.8-6.8v-69.6c0-3.8,3.1-6.8,6.8-6.8H640c3.8,0,6.8,3.1,6.8,6.8v69.6
					C646.8,406.5,643.7,409.6,640,409.6z"/>
				<g>
					<path class="st39" d="M493.8,352.8h-42.6c-4.2,0-7.7-3.4-7.7-7.7l0,0c0-4.2,3.4-7.7,7.7-7.7h42.6c4.2,0,7.7,3.4,7.7,7.7l0,0
						C501.4,349.3,498,352.8,493.8,352.8z"/>
					<path class="st38" d="M556.8,352.8h-42.4c-4.2,0-7.7-3.4-7.7-7.7l0,0c0-4.2,3.4-7.7,7.7-7.7h42.4c4.2,0,7.7,3.4,7.7,7.7l0,0
						C564.5,349.3,561.1,352.8,556.8,352.8z"/>
					<g>
						<rect x="443.5" y="363" class="st76" width="108.7" height="3.7"/>
						<rect x="443.5" y="378.3" class="st76" width="108.7" height="3.7"/>
						<rect x="443.5" y="393.5" class="st76" width="72.4" height="3.7"/>
					</g>
				</g>
				<g>
					<path class="st39" d="M633.9,397.9c-0.7,0.5-1.8,0.9-3.2,0.9c-1.8,0-3.3-0.7-4.4-1.9c-0.8-0.9-1.4-2.2-1.6-3.7h-1.3v-1.1h1.2
						c0-0.1,0-0.2,0-0.3c0-0.3,0-0.7,0-1h-1.3v-1.1h1.4c0.3-1.5,0.9-2.8,1.8-3.7c1.1-1.2,2.5-1.8,4.3-1.8c1.3,0,2.3,0.4,2.9,0.7
						l-0.4,1.4c-0.5-0.3-1.5-0.6-2.4-0.6c-1.2,0-2.1,0.4-2.9,1.2c-0.7,0.6-1.1,1.6-1.3,2.8h6.1v1.1h-6.3c0,0.3,0,0.6,0,0.9
						c0,0.1,0,0.2,0,0.4h6.3v1.1h-6.2c0.2,1.3,0.6,2.2,1.2,2.9c0.8,0.8,1.9,1.3,3.1,1.3c1.2,0,2.2-0.4,2.7-0.7L633.9,397.9z"/>
				</g>
			</g>
			<g>
				<path class="st1" d="M640,300H436.5c-3.8,0-6.8-3.1-6.8-6.8v-69.6c0-3.8,3.1-6.8,6.8-6.8H640c3.8,0,6.8,3.1,6.8,6.8v69.6
					C646.8,297,643.7,300,640,300z"/>
				<g>
					<path class="st42" d="M493.8,244.2h-42.6c-4.2,0-7.7-3.4-7.7-7.7v0c0-4.2,3.4-7.7,7.7-7.7h42.6c4.2,0,7.7,3.4,7.7,7.7v0
						C501.4,240.8,498,244.2,493.8,244.2z"/>
					<path class="st83" d="M556.8,244.2h-42.4c-4.2,0-7.7-3.4-7.7-7.7v0c0-4.2,3.4-7.7,7.7-7.7h42.4c4.2,0,7.7,3.4,7.7,7.7v0
						C564.5,240.8,561.1,244.2,556.8,244.2z"/>
					<g>
						<rect x="443.5" y="254.5" class="st84" width="108.7" height="3.7"/>
						<rect x="443.5" y="269.7" class="st84" width="108.7" height="3.7"/>
						<rect x="443.5" y="285" class="st84" width="72.4" height="3.7"/>
					</g>
				</g>
				<g>
					<path class="st84" d="M633.9,288.4c-0.7,0.5-1.8,0.9-3.2,0.9c-1.8,0-3.3-0.7-4.4-1.9c-0.8-0.9-1.4-2.2-1.6-3.7h-1.3v-1.1h1.2
						c0-0.1,0-0.2,0-0.3c0-0.3,0-0.7,0-1h-1.3v-1.1h1.4c0.3-1.5,0.9-2.8,1.8-3.7c1.1-1.2,2.5-1.8,4.3-1.8c1.3,0,2.3,0.4,2.9,0.7
						l-0.4,1.4c-0.5-0.3-1.5-0.6-2.4-0.6c-1.2,0-2.1,0.4-2.9,1.2c-0.7,0.6-1.1,1.6-1.3,2.8h6.1v1.1h-6.3c0,0.3,0,0.6,0,0.9
						c0,0.1,0,0.2,0,0.4h6.3v1.1h-6.2c0.2,1.3,0.6,2.2,1.2,2.9c0.8,0.8,1.9,1.3,3.1,1.3c1.2,0,2.2-0.4,2.7-0.7L633.9,288.4z"/>
				</g>
			</g>
			<g>
				<rect x="443.5" y="524.3" class="st76" width="106.7" height="91.1"/>
				<ellipse class="st38" cx="473.4" cy="557.2" rx="6.7" ry="7.3"/>
				<polygon class="st42" points="466.6,609.9 540.5,609.9 502.1,569.7 				"/>
				<polygon class="st83" points="447.1,609.9 500,609.9 472.5,581.1 				"/>
			</g>
		</g>
		<g>
			
				<linearGradient id="SVGID_20_" gradientUnits="userSpaceOnUse" x1="-9962.1982" y1="1624.9963" x2="-9698.2549" y2="1624.9963" gradientTransform="matrix(-1 0 0 -1 -9382.5674 2479)">
				<stop  offset="0" style="stop-color:#001841;stop-opacity:0"/>
				<stop  offset="6.000000e-02" style="stop-color:#001841;stop-opacity:8.000000e-02"/>
				<stop  offset="0.45" style="stop-color:#001841;stop-opacity:0.58"/>
				<stop  offset="0.78" style="stop-color:#001841;stop-opacity:0.89"/>
				<stop  offset="1" style="stop-color:#001841"/>
			</linearGradient>
			<ellipse style="opacity:0.2;fill:url(#SVGID_20_);enable-background:new    ;" cx="447.7" cy="854" rx="132" ry="11"/>
			<g>
				<g>
					<path class="st38" d="M384.2,854.2c0.2,0,0.3,0,0.5-0.1c1.3-0.3,2.2-1.6,1.9-2.9L326,573.4c-0.3-1.3-1.6-2.2-2.9-1.9
						c-1.3,0.3-2.2,1.6-1.9,2.9l60.6,277.9C382,853.5,383.1,854.2,384.2,854.2z"/>
				</g>
				<g>
					<path class="st38" d="M445.2,854.2c0.2,0,0.3,0,0.5-0.1c1.3-0.3,2.2-1.6,1.9-2.9l-60.6-277.9c-0.3-1.3-1.6-2.2-2.9-1.9
						c-1.3,0.3-2.2,1.6-1.9,2.9l60.6,277.9C443,853.5,444.1,854.2,445.2,854.2z"/>
				</g>
				<g>
					<path class="st38" d="M343.8,667.8h60.6c1.4,0,2.5-1.1,2.5-2.5s-1.1-2.5-2.5-2.5h-60.6c-1.4,0-2.5,1.1-2.5,2.5
						S342.4,667.8,343.8,667.8z"/>
				</g>
				<g>
					<path class="st38" d="M336.6,635.8h60.6c1.4,0,2.5-1.1,2.5-2.5s-1.1-2.5-2.5-2.5h-60.6c-1.4,0-2.5,1.1-2.5,2.5
						S335.3,635.8,336.6,635.8z"/>
				</g>
				<g>
					<path class="st38" d="M350.8,699.8h60.6c1.4,0,2.5-1.1,2.5-2.5s-1.1-2.5-2.5-2.5h-60.6c-1.4,0-2.5,1.1-2.5,2.5
						S349.4,699.8,350.8,699.8z"/>
				</g>
				<g>
					<path class="st38" d="M357.7,731.8h60.6c1.4,0,2.5-1.1,2.5-2.5s-1.1-2.5-2.5-2.5h-60.6c-1.4,0-2.5,1.1-2.5,2.5
						S356.4,731.8,357.7,731.8z"/>
				</g>
				<g>
					<path class="st38" d="M364.5,763.8h60.6c1.4,0,2.5-1.1,2.5-2.5s-1.1-2.5-2.5-2.5h-60.6c-1.4,0-2.5,1.1-2.5,2.5
						S363.1,763.8,364.5,763.8z"/>
				</g>
				<g>
					<path class="st38" d="M372,795.7h59.5c1.4,0,2.5-1.1,2.5-2.5s-1.1-2.5-2.5-2.5H372c-1.4,0-2.5,1.1-2.5,2.5
						S370.6,795.7,372,795.7z"/>
				</g>
				<g>
					<path class="st38" d="M379.6,827.7h59.5c1.4,0,2.5-1.1,2.5-2.5s-1.1-2.5-2.5-2.5h-59.5c-1.4,0-2.5,1.1-2.5,2.5
						S378.2,827.7,379.6,827.7z"/>
				</g>
				<g>
					<path class="st38" d="M329.8,603.8h60.6c1.4,0,2.5-1.1,2.5-2.5s-1.1-2.5-2.5-2.5h-60.6c-1.4,0-2.5,1.1-2.5,2.5
						S328.5,603.8,329.8,603.8z"/>
				</g>
			</g>
		</g>
		<g>
			<linearGradient id="SVGID_22_" gradientUnits="userSpaceOnUse" x1="159.4292" y1="439.2612" x2="340.9963" y2="439.2612">
				<stop  offset="0" style="stop-color:#001841"/>
				<stop  offset="0.22" style="stop-color:#001841;stop-opacity:0.89"/>
				<stop  offset="0.55" style="stop-color:#001841;stop-opacity:0.58"/>
				<stop  offset="0.94" style="stop-color:#001841;stop-opacity:8.000000e-02"/>
				<stop  offset="1" style="stop-color:#001841;stop-opacity:0"/>
			</linearGradient>
			<path style="opacity:0.2;fill:url(#SVGID_22_);enable-background:new    ;" d="M334,524.1H166.5c-3.9,0-7-3.1-7-7V361.4
				c0-3.9,3.1-7,7-7H334c3.9,0,7,3.1,7,7v155.6C341,521,337.9,524.1,334,524.1z"/>
			<g>
				<path class="st1" d="M356.1,502.7H188.6c-3.9,0-7-3.1-7-7V340c0-3.9,3.1-7,7-7h167.5c3.9,0,7,3.1,7,7v155.6
					C363.1,499.6,360,502.7,356.1,502.7z"/>
				<g>
					<defs>
						<path id="SVGID_240_" d="M355.9,502.7H188.3c-3.9,0-7-3.1-7-7V340c0-3.9,3.1-7,7-7h167.5c3.9,0,7,3.1,7,7v155.6
							C362.9,499.6,359.7,502.7,355.9,502.7z"/>
					</defs>
					<clipPath id="SVGID_24_">
						<use xlink:href="#SVGID_240_"  style="overflow:visible;"/>
					</clipPath>
					<g class="st17">
						<rect x="100.5" y="310.7" class="st38" width="293.7" height="133.1"/>
						<circle class="st1" cx="247.4" cy="364.9" r="9.5"/>
						<polygon class="st8" points="237.9,433.3 342,433.3 287.8,381 						"/>
						<polygon class="st3" points="210.3,433.3 284.9,433.3 246.1,395.8 						"/>
					</g>
				</g>
				<g>
					<rect x="196.6" y="459.3" class="st3" width="108.7" height="3.7"/>
					<rect x="196.6" y="474.5" class="st3" width="72.4" height="3.7"/>
				</g>
			</g>
		</g>
		<path class="st82" d="M313.5,491c0.3-0.9,0.3-1.9-0.1-2.8c-0.7-1.8-1.9-3.2-3.5-4.2c-2.7-4-4.2-5.9-4.6-5.7
			c-0.4,0.2,0.2,2,1.7,5.3c-0.9-1.1-1.8-2.2-2.9-3.3c-0.3-0.4-0.7-0.7-1.1-1.1c-0.5,0.2-0.9,0.6-1,1.1c-0.1,0.3-0.1,0.7,0.1,1
			c-0.2,0-0.4,0.1-0.6,0.3c-0.4,0.5,0.2,1.6,0.9,2.9c2,3.8,1.8,3.7,2.3,4.2c0.8,0.8,1.2,0.8,3.6,2.2c1.3,0.8,2.4,1.5,3.1,1.9
			C312.3,492.5,313.1,491.9,313.5,491z"/>
		<g>
			<path class="st39" d="M387.6,546c0,0,0.4,23.3-2.6,33.8c0,0,0.1,4,0.4,6.2c0,0,3.2,21,1.7,27.6h-11.7c0,0-2.5-20-3-26.7
				c0,0-1.2-26.6-1-29.2C371.5,555,387.6,546,387.6,546z"/>
			<path class="st8" d="M387.5,608.2l-14.7,0.1c1.1,4,2.1,7.9,3.2,11.9c0.3,1.1,1.2,2.9,0.6,3.9c-0.7,1.2-2.5,1.6-3.7,2.1
				c-1.9,0.7-3.8,1-5.7,1.5c-1.3,0.4-1.4,1.4-0.6,2.4c0,0,7.9,2.1,14.8-0.3l1.2-0.5l0.1,1.1c0,0,3.1,1,4.6-1.3
				C387.2,629.1,388.1,614.2,387.5,608.2z"/>
			<path class="st38" d="M386.7,539.9c0,0,6.2,21-14.2,21c0,0-7,0.7-14.8,0c0,0-1,2.4-2.9,5.8c-1.6,3-2.7,6.3-2.9,9.7
				c0,0.6-0.1,1.3,0,1.8h-10.7c0,0-0.3-13,1.6-19.1c0.3-1,0.5-2,0.6-3c0.1-1.4,0.6-3.2,2-4l20.8-12.1H386.7z"/>
			<path class="st8" d="M353.7,577.2l-14.7-0.9c0.8,4,1.6,8,2.3,12.1c0.2,1.2,1,2.9,0.3,4c-0.7,1.2-2.6,1.5-3.9,1.8
				c-1.9,0.6-3.9,0.7-5.8,1.1c-1.3,0.3-1.5,1.3-0.8,2.3c0,0,7.8,2.6,14.8,0.8l1.2-0.4v1.1c0,0,3,1.2,4.7-1
				C351.9,598,353.8,583.2,353.7,577.2z"/>
			<path class="st42" d="M365.4,507.8c0,0-9.3-1-13.2-5.1c7.4,0,10.7-0.2,11.2-10.8l13.4,11.5c0,0,3.4,3-1.9,5.3
				C374.9,508.7,369.2,511.6,365.4,507.8z"/>
			<g>
				<path id="_Path_11_10_" class="st82" d="M361.3,494.3c0.1,0.3,0.3,0.5,0.5,0.8c0.2,0.3,0.4,0.5,0.6,0.8
					c-0.2,0.6-0.3,1.1-0.5,1.7c-0.3,1.1-0.4,2.2-0.6,3.3c1,0.6,2,1.2,3.1,1.6c1.9,0.9,3.9,1.5,6,1.6c1.4,0.2,2.9,0,4.3-0.3
					c3.2-1.1,6.9-4.9,6.5-9.8c-0.5-5.1-5.8-8.9-10-8.4c-1.9,0.2-3.6,1-4.9,2.4c-0.7,0.8-0.5,1.1-1.8,2.5c-0.4,0.5-0.8,0.9-1.2,1.4
					C362.1,493.2,361.2,493.7,361.3,494.3z"/>
				<path class="st82" d="M378,499.6c-1.4,3-1.2,6.5,0.5,9.3c-1.5,1.2-3.1,2.4-4.6,3.7c-2.2,1.9-4.3,3.7-6.4,5.5l2.2-7.3
					c-0.2-1.8,2.6-4.8-3.6-7.8L378,499.6z"/>
			</g>
			<path class="st83" d="M386.7,539.9h-20.5c0,0-4.3-0.5-5.4-8.4c0,0-4.6-12.5-11.4-14.2c0,0-17.4-1.6-39.8-24.7l4.7-5.1
				c0,0,25.3,18.3,39.4,18.5c0,0,10.6,0.6,17.1-1.7c0,0,7.4-3.2,9.8,4C380.5,508.3,384,515.4,386.7,539.9z"/>
			<path class="st84" d="M376.1,506.2c0,0-1-2.5,0.2-4.7c0,0,4.4-3.8,1.4-4.5c0,0-3.6,0.8-4.3-0.2c0,0-0.1-8.6-4.3-10.1
				c0,0-3.5-3.2,2.1-3.2c0,0,11.8-1.1,13.1,10.7C384.4,494.2,385.6,502.5,376.1,506.2z"/>
		</g>
		<g>
			<g>
				<g>
					<g>
						<path class="st8" d="M405.5,98.8c-0.2,0-0.4,0-0.6-0.1c-46.5-20.9-126.7-20.1-127.5-20.1c-0.8,0-1.6-0.7-1.6-1.5
							c0-0.9,0.7-1.6,1.5-1.6c0.8,0,81.7-0.8,128.8,20.3c0.8,0.4,1.1,1.3,0.8,2.1C406.7,98.4,406.1,98.8,405.5,98.8z"/>
					</g>
					<line class="st171" x1="277.4" y1="78.6" x2="277.4" y2="342.5"/>
				</g>
				<g>
					<path class="st8" d="M408.3,176l0.8,10.8c0,0-3.9,11.7-8.8,15.4c0,0-0.8,3.2,6.6,1.1c0,0,8-4.2,8.5-8.4l3.9-0.3
						c0,0,1.1-2.4,0.9-5.6l-2.1-13.6C418,175.3,411.8,176.3,408.3,176z"/>
					<path class="st8" d="M387.6,179.6l0.1,9.7c0,0-9.4,8.4-14.9,9.9c0,0-5.8,1.3-0.3,2.8c0,0,14.5-0.3,16.8-3.1l1.2,0.1l0,1.2
						c0,0,2.7,0.4,3.9-0.2c0,0,3.7-16.9,3.6-19.5L387.6,179.6z"/>
					<path class="st39" d="M434.7,118.5c0,0-10.4-1.8-18.2,1.3c0,0-27.7,15.4-27.9,16.8c0,0-2,38.7-1.1,44.2l10.4,0.3
						c0,0,6.6-29.2,5.8-37.9c0,0,32.3-9.9,33.3-15.5C437,127.6,440.8,117.9,434.7,118.5z"/>
					<path class="st38" d="M452.4,117.2c0,0,5.9,15.1-13.4,16.4l-17.4,13c0,0,2.8,20.2-3.5,29.3c0,0-7.1,1.9-9.6,0.7l-2.2-32.7
						c2-3.4,4.2-6.6,6.5-9.8c3.4-4.8,7.3-10.5,12.3-13.8c2.1-1.4,4.6-1.7,6.9-2.5c2-0.6,4.1-1.1,6.1-1.5c2.5-0.4,5-0.7,7.5-0.6
						C446.6,115.8,451.9,116,452.4,117.2z"/>
					<path class="st82" d="M381.4,88.9c-0.6,0.5-1.4,0.4-2.1,0.3c-0.7-0.2-2.8-0.9-2.2,0.5c0.3,0.6,1,1,1.5,1.3
						c2.6,1.3,5.6,1.9,8.3,2.7c2.5,0.7,3.1-1.9,2.3-3.9c-1.2-3.1-4.7-2.4-6.9-4.1c-0.7-0.5-2.2-2-3-0.9c-0.4,0.5-0.1,1.3,0.2,1.8
						C380.2,87.4,380.9,88.1,381.4,88.9z"/>
					<path class="st172" d="M428.8,72.8c0,0-9.1,0.6-11.8,13l-4.3,12.8c0,0-0.2,1-1.9-0.1l-19.1-8.3l-5.9,3.2l22.6,14.1
						c0,0,5.1,2.8,7.4-0.4l13.2-13.7C428.8,93.4,440.3,74.3,428.8,72.8z"/>
					<path class="st3" d="M421.5,80.3c0,0-5.7,6-1.2,15.5c0,0,4.3,9.4,1.2,22.8c2.6-0.3,5.2-0.2,7.8,0.2c2.1,0.3,4.2,0.9,6,2
						c6.6,4,16.3,2.1,19.3-5.5c0,0-7.9-7.6-2.2-28.3c5.7-20.7-12.3-16.6-12.3-16.6S425.6,68.8,421.5,80.3z"/>
					<path class="st82" d="M405.4,97.1c-0.5,0.5-1.4,0.5-2,0.5c-0.7-0.1-2.9-0.6-2.1,0.8c0.3,0.5,1.1,0.9,1.6,1.2
						c2.7,1,5.7,1.3,8.6,1.8c2.6,0.4,2.9-2.2,1.9-4.1c-1.5-2.9-4.9-1.9-7.3-3.4c-0.7-0.4-2.4-1.8-3.1-0.6c-0.3,0.5,0.1,1.3,0.4,1.7
						C404.1,95.7,404.8,96.3,405.4,97.1z"/>
					<path class="st172" d="M444.1,72.2c0,0,8-1.1,9.1,8.9l-1.4,6.7c-0.4,1.7-1.1,3.3-2,4.8l-9.7,16.9c-0.2,0.4-0.5,0.7-0.8,1
						c-1.3,1.1-4.9,3.5-10.1,0.9c-0.2-0.1-0.4-0.2-0.6-0.4c-1.9-1.3-11.9-8.4-14.7-9l-0.1-2.3c0,0,18,4.7,20.1,3.8
						C433.9,103.4,434.8,80.9,444.1,72.2z"/>
					<path class="st172" d="M444.1,72.2c-1.9,0.7,5.1-3.3,9,5.6l-1.4,6.7c-0.4,1.7-1.1,3.3-2,4.8l-9.9,17.4c0,0-4.7,6.1-11,1.2
						c0,0-11.9-8.6-15-9.2l-0.1-2.3c0,0,16.9,5,19,4.1C432.7,100.5,436.2,75.5,444.1,72.2z"/>
					<path class="st3" d="M444.4,70.2c0,0,8.5,2,9.1,10.1l-0.8,4.5c-0.4,2.4-1.3,4.7-2.6,6.8l-10.4,17.2c0,0-4.9,5.8-11.3,0.9
						c0,0-12.8-7.6-15.9-8.3l0.6-5c0,0,18.1,5.7,20.2,4.8C433.4,101.2,435.2,78.8,444.4,70.2z"/>
					<g>
						<path class="st8" d="M423.2,70c0,0.3,3.2,10,10.9,5.2c0,0,0.6-0.5,1-0.1c0,0,6.2,5.2,12.9-0.1c0,0,3.9-4,1.3-14.3
							c0,0-2-17.3-12.5-16.8c0,0-10.3-0.9-14.4,9c0,0-0.1,2.2,2,2.2c0,0,3.3,6.1,2.6,7.5c-0.7,1.4-0.7,1.4-0.7,1.4
							S422.7,66.8,423.2,70z"/>
						<path id="_Path_11_15_" class="st82" d="M423.7,62c0.2,0.2,0.5,0.4,0.8,0.5c0.3,0.2,0.6,0.3,1,0.4c0.1,0.6,0.2,1.2,0.4,1.8
							c0.3,1.1,0.6,2.2,1,3.3c1.2,0.1,2.5,0.1,3.7,0.1c2.2-0.1,4.4-0.5,6.5-1.3c1.4-0.5,2.8-1.3,3.9-2.3c2.6-2.5,4.4-7.8,1.7-12.1
							c-2.8-4.5-9.6-5.5-13.4-3.1c-1.7,1-3,2.6-3.5,4.5c-0.3,1.1,0,1.2-0.5,3.2c-0.1,0.6-0.3,1.2-0.5,1.8
							C424,60.6,423.4,61.4,423.7,62z"/>
						<path class="st8" d="M433,44.3c-0.2,0-5.2,7.5,0.6,11c1.4,0.8,1.3,11.1-1.8,14.4l14.6-0.8l-2.8-19.5L433,44.3z"/>
					</g>
				</g>
			</g>
			<ellipse class="st8" cx="277.4" cy="342.5" rx="3.8" ry="2.3"/>
		</g>
		<g>
			<g>
				<g>
					
						<linearGradient id="SVGID_25_" gradientUnits="userSpaceOnUse" x1="-6537.4658" y1="797.069" x2="-6437.5312" y2="797.069" gradientTransform="matrix(-1 0 0 1 -6411.3057 0)">
						<stop  offset="0" style="stop-color:#E5007D"/>
						<stop  offset="0.3882" style="stop-color:#ED217C"/>
						<stop  offset="0.9998" style="stop-color:#FA5D7A"/>
					</linearGradient>
					<path class="st18" d="M121,858.2c10.2-12.8,4.2-30.5-8.5-39.6c-3-2.2-6.4-4-9.2-6.4c-6.1-5.2-6.1-12.8-4.8-19.9
						c1.4-7.7,4.5-16.4-1-23.3c-4.2-5.2-12.3-6-18.4-8.4c-12.2-4.9-6.7-15.2-8.9-24.6c-0.6-2.5-1.9-4.9-4.2-6.4
						c-5.4-3.5-14.1-1.8-20.3-4.2c-2.5-1-5.3-2.2-7.7-1.2c-1.6,0.7-2.6,2.3-2.9,3.9c-1.1,6.1-0.5,12.3-2.1,18.4
						c-1.7,6.6-4.7,12.9-6.1,19.6c-1.6,8.1,0.1,17.8,7.6,22.2c3.6,2.1,7.9,2.7,12.1,3.7c12.6,3.1,14.1,12.8,12,23.4
						c-1.3,6.9-2.8,14.8,2,20.4c2.4,2.8,5.9,4.4,9.1,6.4c3.2,1.9,6.3,4.5,7,8c1.2,6.3-6.3,14.5,2.6,18.5c2.5,1.1,5.3,1.3,8,1.4
						c11.9,0.4,25.8-2.5,33.5-11.6C120.7,858.5,120.9,858.4,121,858.2z"/>
				</g>
				<g>
					<defs>
						<path id="SVGID_243_" d="M121,858.2c10.2-12.8,4.2-30.5-8.5-39.6c-3-2.2-6.4-4-9.2-6.4c-6.1-5.2-6.1-12.8-4.8-19.9
							c1.4-7.7,4.5-16.4-1-23.3c-4.2-5.2-12.3-6-18.4-8.4c-12.2-4.9-6.7-15.2-8.9-24.6c-0.6-2.5-1.9-4.9-4.2-6.4
							c-5.4-3.5-14.1-1.8-20.3-4.2c-2.5-1-5.3-2.2-7.7-1.2c-1.6,0.7-2.6,2.3-2.9,3.9c-1.1,6.1-0.5,12.3-2.1,18.4
							c-1.7,6.6-4.7,12.9-6.1,19.6c-1.6,8.1,0.1,17.8,7.6,22.2c3.6,2.1,7.9,2.7,12.1,3.7c12.6,3.1,14.1,12.8,12,23.4
							c-1.3,6.9-2.8,14.8,2,20.4c2.4,2.8,5.9,4.4,9.1,6.4c3.2,1.9,6.3,4.5,7,8c1.2,6.3-6.3,14.5,2.6,18.5c2.5,1.1,5.3,1.3,8,1.4
							c11.9,0.4,25.8-2.5,33.5-11.6C120.7,858.5,120.9,858.4,121,858.2z"/>
					</defs>
					<clipPath id="SVGID_27_">
						<use xlink:href="#SVGID_243_"  style="overflow:visible;"/>
					</clipPath>
					<path style="clip-path:url(#SVGID_27_);fill:none;stroke:#E5007D;stroke-width:1.6778;stroke-miterlimit:10;" d="M104.9,868.1
						L37.8,724.3 M57.4,843.9l43.7,16.1 M32.8,810.7l54.7,20.1 M71.8,797.2l-50.3-18.5 M15,748.3l41.1,15.1 M118.6,819.8l-17.5,40.1
						 M109.4,780.5l-21.9,50.3 M91.9,751l-20.1,46.2 M56.1,763.5l16.4-37.8"/>
				</g>
			</g>
			<path class="st83" d="M61,856c18-13.8,40.8-10.4,61.9-12.5c9.6-1,19.8-2.7,28.2-7.7c18.5-11,30.1-20.9,50.2-5
				c21.2,16.7,38.8,27.3,58.2,1c17.7-24,25.2-52.7,60.1-55.9c18.6-1.7,37.9,6.7,50,20.7c9.6,11.2,10.4,27,17.9,39.3
				c3.6,5.9,8.8,11,15.4,13c9.8,3,20.4-1.6,28.7-7.6c8.3-6,15.6-13.7,24.7-18.3c19.5-9.8,28.4,2,38.8,16.4c1,1.4,10.3,7.6,10.3,7.8
				c8,3.1,16.9,1.1,25.4,0c12.1-1.5,24.5-0.9,36.4,1.8c6.1,1.4,12.1,3.3,17,7.2c5.4,4.4,9.1,10.7,5.8,14.3c-0.7,0.8-1.7,1.4-3.1,1.9
				c-2.7,1-7.6,0-10.5,0c-11.6,0-23.2,0-34.8,0c-34,0-68,0-102,0c-39,0-78,0-117,0c-86.4,0-172.9,0-259.3,0.1c-1.9,0-3.9,0-5.6-1
				c-5.2-3-2-11.3,2.7-15.1C60.6,856.3,60.8,856.1,61,856z"/>
			<g>
				<defs>
					<path id="SVGID_245_" d="M62.2,856.8c18-13.8,40.8-10.4,61.9-12.5c9.6-1,19.8-2.7,28.2-7.7c18.5-11,30.1-20.9,50.2-5
						c21.2,16.7,38.8,27.3,58.2,1c17.7-24,25.2-52.7,60.1-55.9c18.6-1.7,37.9,6.7,50,20.7c9.6,11.2,10.4,27,17.9,39.3
						c3.6,5.9,8.8,11,15.4,13c9.8,3,20.4-1.6,28.7-7.6c8.3-6,15.6-13.7,24.7-18.3c19.5-9.8,28.4,2,38.8,16.4
						c1,1.4,10.3,7.6,10.3,7.8c8,3.1,16.9,1.1,25.4,0c12.1-1.5,24.5-0.9,36.4,1.8c6.1,1.4,12.1,3.3,17,7.2
						c5.4,4.4,9.1,10.7,5.8,14.3c-0.7,0.8,0.3,0.6-1.1,1.1c-2.7,1-8.7-0.4-11.6-0.4c-11.6,0-24.1,1.2-35.7,1.2c-34,0-68,0-102,0
						c-39,0-78,0-117,0c-86.4,0-172.9,0-259.3,0.1c-1.9,0-3.9,0-5.6-1c-5.2-3-2-11.3,2.7-15.1C61.9,857.1,62,856.9,62.2,856.8z"/>
				</defs>
				<clipPath id="SVGID_28_">
					<use xlink:href="#SVGID_245_"  style="overflow:visible;"/>
				</clipPath>
				<g style="clip-path:url(#SVGID_28_);">
					
						<linearGradient id="SVGID_29_" gradientUnits="userSpaceOnUse" x1="-4335.1133" y1="771.0702" x2="-4112.0557" y2="771.0702" gradientTransform="matrix(-1 0 0 1 -3997.2493 0)">
						<stop  offset="0" style="stop-color:#E5007D"/>
						<stop  offset="1" style="stop-color:#E5007D;stop-opacity:0"/>
					</linearGradient>
					<path style="fill:url(#SVGID_29_);" d="M147.3,872.7c24.4,5.6,51-14.4,61.3-37.8c2.5-5.6,4.3-11.4,7.2-16.9
						c6.3-11.8,18.7-16.8,30.5-19.7c13-3.2,28.2-4.6,37.5-16.8c6.9-9.2,5.4-20.9,7.2-30.9c3.6-19.9,22.4-19.3,36.7-28.5
						c3.8-2.5,7.3-5.9,8.9-10c3.8-9.7-2.1-20.5-0.4-30.6c0.7-4,1.7-8.7-0.8-11.3c-1.7-1.8-4.7-2.1-7.4-1.4
						c-10.3,2.5-20.2,7.4-30.6,9.3c-11.4,2.1-22.6,2-34,4.6c-13.7,3.1-28.8,11.8-33.4,25.1c-2.2,6.3-1.6,12.7-1.8,19
						c-0.6,19.4-15.8,27.7-33.7,31.9c-11.7,2.7-25.1,6-32.4,16.1c-3.7,5.1-5.1,11-7.1,16.7c-2,5.7-5.1,11.7-10.5,14.9
						c-9.8,5.8-25.8,1-29.2,15.7c-0.9,4.1-0.3,8.1,0.6,12c3.6,16.6,13.1,33.8,30.6,38.3C146.7,872.5,147,872.6,147.3,872.7z"/>
				</g>
			</g>
			<g>
				<g>
					
						<linearGradient id="SVGID_30_" gradientUnits="userSpaceOnUse" x1="-6615.2529" y1="749.4999" x2="-6488.0898" y2="727.0776" gradientTransform="matrix(-1 0 0 1 -6411.3057 0)">
						<stop  offset="0" style="stop-color:#E5007D"/>
						<stop  offset="0.3776" style="stop-color:#EE297C"/>
						<stop  offset="0.7853" style="stop-color:#F74E7A"/>
						<stop  offset="1" style="stop-color:#FA5D7A"/>
					</linearGradient>
					<path style="fill:url(#SVGID_30_);" d="M167.8,867.5c23.7-13.9,26.9-45.9,14.5-68.4c-3-5.4-6.6-10.4-9.1-16
						c-5.3-12.1-0.1-24.2,6.5-34.6c7.3-11.4,17.9-23.3,14.4-37.8c-2.6-10.9-14-17.3-21.2-25c-14.5-15.4,0.6-28.5,3.7-44.7
						c0.8-4.3,0.5-9.1-1.8-12.8c-5.5-9-19.4-11.7-26.9-19.4c-3-3.1-6.2-6.8-10.5-6.7c-2.9,0.1-5.4,2-7,4.4c-5.8,9-9.2,19.3-15.6,28
						c-7,9.5-15.7,17.6-22.3,27.5c-7.9,11.9-12,28.4-4,40.2c3.8,5.6,9.8,9.3,15.1,13.5c16.4,12.9,11.8,29.2,1.6,44.8
						c-6.7,10.2-14.2,21.9-11,33.7c1.6,5.9,5.6,10.7,9,15.8s6.2,11.2,4.8,17.1c-2.5,10.8-19.1,19.2-8.9,31.1
						c2.8,3.3,6.8,5.4,10.8,7.3c17.2,8,39.5,12.3,56.9,2.6C167.2,867.9,167.5,867.7,167.8,867.5z"/>
				</g>
				<g>
					<defs>
						<path id="SVGID_249_" d="M167.8,867.5c23.7-13.9,26.9-45.9,14.5-68.4c-3-5.4-6.6-10.4-9.1-16c-5.3-12.1-0.1-24.2,6.5-34.6
							c7.3-11.4,17.9-23.3,14.4-37.8c-2.6-10.9-14-17.3-21.2-25c-14.5-15.4,0.6-28.5,3.7-44.7c0.8-4.3,0.5-9.1-1.8-12.8
							c-5.5-9-19.4-11.7-26.9-19.4c-3-3.1-6.2-6.8-10.5-6.7c-2.9,0.1-5.4,2-7,4.4c-5.8,9-9.2,19.3-15.6,28
							c-7,9.5-15.7,17.6-22.3,27.5c-7.9,11.9-12,28.4-4,40.2c3.8,5.6,9.8,9.3,15.1,13.5c16.4,12.9,11.8,29.2,1.6,44.8
							c-6.7,10.2-14.2,21.9-11,33.7c1.6,5.9,5.6,10.7,9,15.8s6.2,11.2,4.8,17.1c-2.5,10.8-19.1,19.2-8.9,31.1
							c2.8,3.3,6.8,5.4,10.8,7.3c17.2,8,39.5,12.3,56.9,2.6C167.2,867.9,167.5,867.7,167.8,867.5z"/>
					</defs>
					<clipPath id="SVGID_31_">
						<use xlink:href="#SVGID_249_"  style="overflow:visible;"/>
					</clipPath>
					<path style="clip-path:url(#SVGID_31_);fill:none;stroke:#E5007D;stroke-width:1.6778;stroke-miterlimit:10;" d="M137.5,873.2
						v-271 M84.6,804.9l52.9,52.9 M71.1,736.6l66.4,66.4 M137.5,739.6l-60.9-60.9 M87.6,626.2l49.9,49.9 M190.4,804.9l-52.9,52.9
						 M203.9,736.6L137.5,803 M198.5,678.6l-60.9,60.9 M137.5,676.1l49.9-49.9"/>
				</g>
			</g>
			<g>
				
					<linearGradient id="SVGID_32_" gradientUnits="userSpaceOnUse" x1="-6803.1021" y1="873.1794" x2="-6803.1021" y2="826.6058" gradientTransform="matrix(-1 0 0 1 -6411.3057 0)">
					<stop  offset="0" style="stop-color:#E5007D"/>
					<stop  offset="1" style="stop-color:#E5007D;stop-opacity:0"/>
				</linearGradient>
				
					<linearGradient id="SVGID_33_" gradientUnits="userSpaceOnUse" x1="-6908.6841" y1="849.8926" x2="-6699.1982" y2="849.8926" gradientTransform="matrix(-1 0 0 1 -6411.3057 0)">
					<stop  offset="0" style="stop-color:#FFFFFF;stop-opacity:0"/>
					<stop  offset="1" style="stop-color:#FFFFFF;stop-opacity:0"/>
				</linearGradient>
				<path style="fill:url(#SVGID_32_);stroke:url(#SVGID_33_);stroke-width:3.3556;stroke-miterlimit:10;" d="M495.4,873.2
					c1.7,0-5.3-16.4-6.7-18.1c-5.7-7.1-14.7-11-23.8-10.7c-8.1,0.3-15.5,3.6-21.9,8.5c-5.4,4.1-10.7,10-18.3,8.4
					c-5.3-1.1-8.9-6-11-10.9c-2.7-6.2-4.2-13.8-9.2-18.7c-6.8-6.7-18-5.6-27-2.6c-7.5,2.5-15.6,6.7-19.7,13.8
					c-4.3,7.5-2.2,17.7-12.7,20.8c-5.7,1.7-12.6-1.2-14.9-6.8c-3.4-8.1,1.2-28.7-14.2-24.1c-8.2,2.5-16.7,13.5-19.8,21.1
					c-0.8,2-6.1,19.3-8.2,19.3C287.9,873.2,495,873.2,495.4,873.2z"/>
				
					<linearGradient id="SVGID_34_" gradientUnits="userSpaceOnUse" x1="-6838.1602" y1="873.1794" x2="-6838.1602" y2="803.1161" gradientTransform="matrix(-1 0 0 1 -6411.3057 0)">
					<stop  offset="0" style="stop-color:#E5007D"/>
					<stop  offset="1" style="stop-color:#E5007D;stop-opacity:0"/>
				</linearGradient>
				
					<linearGradient id="SVGID_35_" gradientUnits="userSpaceOnUse" x1="-6914.2935" y1="838.1478" x2="-6763.7051" y2="838.1478" gradientTransform="matrix(-1 0 0 1 -6411.3057 0)">
					<stop  offset="0" style="stop-color:#FFFFFF;stop-opacity:0"/>
					<stop  offset="1" style="stop-color:#FFFFFF;stop-opacity:0"/>
				</linearGradient>
				<path style="fill:url(#SVGID_34_);stroke:url(#SVGID_35_);stroke-width:3.3556;stroke-miterlimit:10;" d="M501.1,873.2
					c1.2,0-3.8-24.6-4.8-27.3c-4.1-10.6-10.5-16.6-17-16.1c-5.8,0.4-11.1,5.5-15.7,12.8c-3.9,6.1-7.7,15-13.1,12.6
					c-3.8-1.7-6.4-9-7.9-16.5c-1.9-9.4-3-20.7-6.6-28.1c-4.9-10-12.9-8.4-19.4-3.9c-5.4,3.8-11.2,10.1-14.1,20.8
					c-3.1,11.3-1.6,26.6-9.1,31.2c-4.1,2.5-9.1-1.9-10.7-10.2c-2.4-12.2,0.9-43.2-10.2-36.2c-5.9,3.7-12,20.3-14.2,31.8
					c-0.6,2.9-4.4,29.1-5.9,29.1C352.4,873.2,500.8,873.2,501.1,873.2z"/>
				
					<linearGradient id="SVGID_36_" gradientUnits="userSpaceOnUse" x1="-6721.6353" y1="873.1794" x2="-6721.6353" y2="819.9313" gradientTransform="matrix(-1 0 0 1 -6411.3057 0)">
					<stop  offset="0" style="stop-color:#E5007D"/>
					<stop  offset="1" style="stop-color:#E5007D;stop-opacity:0"/>
				</linearGradient>
				
					<linearGradient id="SVGID_37_" gradientUnits="userSpaceOnUse" x1="-6754.1641" y1="846.5554" x2="-6690.7842" y2="846.5554" gradientTransform="matrix(-1 0 0 1 -6411.3057 0)">
					<stop  offset="0" style="stop-color:#FFFFFF;stop-opacity:0"/>
					<stop  offset="1" style="stop-color:#FFFFFF;stop-opacity:0"/>
				</linearGradient>
				<path style="fill:url(#SVGID_36_);stroke:url(#SVGID_37_);stroke-width:3.3556;stroke-miterlimit:10;" d="M341.1,873.2
					c0.5,0-1.6-18.7-2-20.7c-1.7-8.1-4.4-12.6-7.1-12.3c-2.4,0.3-4.6,4.2-6.5,9.7c-1.6,4.6-3.2,11.4-5.4,9.6
					c-1.6-1.3-2.6-6.9-3.3-12.5c-0.8-7.1-1.2-15.8-2.7-21.4c-2-7.6-5.3-6.4-8-3c-2.2,2.9-4.6,7.7-5.9,15.8
					c-1.3,8.6-0.7,20.2-3.8,23.7c-1.7,1.9-3.8-1.4-4.4-7.7c-1-9.2,0.4-32.9-4.2-27.5c-2.4,2.8-5,15.5-5.9,24.2
					c-0.2,2.2-1.8,22.1-2.4,22.1C279.5,873.2,341,873.2,341.1,873.2z"/>
				
					<linearGradient id="SVGID_38_" gradientUnits="userSpaceOnUse" x1="-6867.4766" y1="873.1794" x2="-6867.4766" y2="819.9313" gradientTransform="matrix(-1 0 0 1 -6411.3057 0)">
					<stop  offset="0" style="stop-color:#E5007D"/>
					<stop  offset="1" style="stop-color:#E5007D;stop-opacity:0"/>
				</linearGradient>
				
					<linearGradient id="SVGID_39_" gradientUnits="userSpaceOnUse" x1="-6900.0054" y1="846.5554" x2="-6836.6255" y2="846.5554" gradientTransform="matrix(-1 0 0 1 -6411.3057 0)">
					<stop  offset="0" style="stop-color:#FFFFFF;stop-opacity:0"/>
					<stop  offset="1" style="stop-color:#FFFFFF;stop-opacity:0"/>
				</linearGradient>
				<path style="fill:url(#SVGID_38_);stroke:url(#SVGID_39_);stroke-width:3.3556;stroke-miterlimit:10;" d="M486.9,873.2
					c0.5,0-1.6-18.7-2-20.7c-1.7-8.1-4.4-12.6-7.1-12.3c-2.4,0.3-4.6,4.2-6.5,9.7c-1.6,4.6-3.2,11.4-5.4,9.6
					c-1.6-1.3-2.6-6.9-3.3-12.5c-0.8-7.1-1.2-15.8-2.7-21.4c-2-7.6-5.3-6.4-8-3c-2.2,2.9-4.6,7.7-5.9,15.8
					c-1.3,8.6-0.7,20.2-3.8,23.7c-1.7,1.9-3.8-1.4-4.4-7.7c-1-9.2,0.4-32.9-4.2-27.5c-2.4,2.8-5,15.5-5.9,24.2
					c-0.2,2.2-1.8,22.1-2.4,22.1C425.3,873.2,486.8,873.2,486.9,873.2z"/>
			</g>
		</g>
		<g>
			<g>
				<path class="st38" d="M493.3,107.2l-3,25.5h-23.8l-1-9.2h3.2c1.7,0,3.4-0.7,4.6-2l10.6-11.3c0.2-0.2,0.2-0.4,0-0.6
					c-0.2-0.2-0.4-0.2-0.6,0L472.6,121c-1,1.1-2.5,1.7-3.9,1.7h-3.3l-0.7-6.2l-0.1-1.1l-0.7-6.3H493L493.3,107.2z"/>
				<path class="st38" d="M483.8,109.7c0.2,0.2,0.2,0.4,0,0.6l-10.6,11.3c-1.2,1.3-2.9,2-4.6,2h-3.2l-0.1-0.9h3.3
					c1.5,0,2.9-0.6,3.9-1.7l10.6-11.3C483.4,109.5,483.7,109.5,483.8,109.7z"/>
				<polygon class="st38" points="493.3,107.2 493.3,107.2 493,109.1 464,109.1 463.7,107.2 463.7,107.2 				"/>
				<polygon class="st39" points="493.3,107.2 493.3,107.2 493,109.1 464,109.1 463.7,107.2 463.7,107.2 				"/>
				<path class="st38" d="M495.2,107.2h-33.4v0c0-1.6,1.3-2.9,2.9-2.9h27.7C493.9,104.4,495.2,105.6,495.2,107.2L495.2,107.2z"/>
			</g>
			<circle class="st1" cx="483.5" cy="110" r="1.9"/>
			<g>
				<path class="st8" d="M483.9,110.3l-10.6,11.3c-1.2,1.3-2.9,2-4.6,2h-8.4c-0.7,0-1.2-0.2-1.4-0.7c-0.6-1.6,3.5-5.5,5.7-7.4
					l0.1,1.1c-2.8,2.6-5.3,5.3-5,6.1c0,0.1,0.2,0.1,0.6,0.1h8.3c1.5,0,2.9-0.6,3.9-1.7l10.6-11.3c0.2-0.2,0.4-0.2,0.6,0
					C484,109.8,484,110.1,483.9,110.3z"/>
			</g>
			<path class="st42" d="M473,104.4c0.5,0,1,0.8,1.2,1.1c0.8,1.6,0.5,3.8,0.5,5.5c0,0,0,0.1,0,0.1c0,0.3,0,0.6,0.1,0.9
				c0.1,0.4,0.2,0.7,0.4,1c0.3,0.4,0.7,0.7,1.1,0.8c0.7,0.1,1.3-0.2,1.7-0.7c0.5-0.6,0.5-1.4,0.5-2.2c0-1.4,0-2.8,0-4.1
				c0-1.1,0.5-2.4,1.8-2.4C480.3,104.4,473,104.4,473,104.4z"/>
		</g>
	</g>
</g>
<g id="_x23_2">
</g>
<g id="_x23_3">
</g>
<g id="_x23_4">
</g>
<g id="_x23_5">
</g>
</svg>
